<svg width="80" height="31" viewBox="0 0 80 31" fill="none" xmlns="http://www.w3.org/2000/svg">
<g clip-path="url(#clip0_3705_3007)">
<path d="M3.56381 27.7502C2.74706 27.7502 2.09366 27.3691 1.65806 26.7701V27.6958H0.786865V19.7461H1.65806V23.3398C2.09366 22.7408 2.74706 22.3597 3.56381 22.3597C5.0884 22.3597 6.1774 23.5031 6.1774 25.0277C6.1774 26.6068 5.0884 27.7502 3.56381 27.7502ZM5.25175 25.0277C5.25175 23.9387 4.48945 23.1764 3.45491 23.1764C2.42036 23.1764 1.65806 23.9932 1.65806 25.0277C1.65806 26.1167 2.42036 26.9335 3.45491 26.9335C4.5439 26.9335 5.25175 26.1167 5.25175 25.0277Z" fill="#2B2B2B"/>
<path d="M7.9743 30.3088H7.04865L8.73659 26.8784L6.50415 22.5225H7.5387L9.22664 25.9528L10.8601 22.5225H11.7858L7.9743 30.3088Z" fill="#2B2B2B"/>
<path d="M21.0422 27.0419L22.6757 28.8387H21.5322L20.2799 27.423C19.7898 27.5864 19.2998 27.6953 18.7008 27.6953C16.305 27.6953 14.6715 26.0073 14.6715 23.666C14.6715 21.3247 16.3595 19.6367 18.7008 19.6367C21.0422 19.6367 22.7301 21.3247 22.7301 23.666C22.7301 25.1362 22.0767 26.3885 21.0422 27.0419ZM18.7008 26.933C20.5521 26.933 21.8045 25.5717 21.8045 23.7205C21.8045 21.8692 20.5521 20.5079 18.7008 20.5079C16.8495 20.5079 15.5972 21.8692 15.5972 23.7205C15.5972 25.5717 16.8495 26.933 18.7008 26.933Z" fill="#2B2B2B"/>
<path d="M23.928 19.7461H24.7992V24.4288C24.7992 25.9534 25.7248 26.9335 27.1405 26.9335C28.5018 26.9335 29.4274 25.9534 29.4274 24.4288V19.7461H30.2986V24.3743C30.2986 26.389 28.9918 27.6958 27.0861 27.6958C25.1259 27.6958 23.8735 26.3345 23.8735 24.3743V19.7461H23.928Z" fill="#2B2B2B"/>
<path d="M36.6693 25.8992H32.8034L31.9867 27.6416H31.0066L34.7636 19.583L38.4662 27.6416H37.4316L36.6693 25.8992ZM36.3426 25.0824L34.7636 21.5432L33.1846 25.0824H36.3426Z" fill="#2B2B2B"/>
<path d="M44.0745 27.6413H39.4463V19.7461H40.3175V26.8246H44.0201V27.6413H44.0745Z" fill="#2B2B2B"/>
<path d="M45.1634 19.7461H46.0346V27.6413H45.1634V19.7461Z" fill="#2B2B2B"/>
<path d="M47.6681 19.7461H52.4052V21.1073H49.1927V23.2309H51.9696V24.6466H49.1927V27.6413H47.6681V19.7461Z" fill="#2B2B2B"/>
<path d="M57.578 26.4434H54.2565L53.712 27.6413H51.9697L55.89 19.5283L59.8104 27.6413H58.068L57.578 26.4434ZM56.979 25.2456L55.8356 22.7953L54.6921 25.2456H56.979Z" fill="#2B2B2B"/>
<path d="M59.8649 23.7207C59.8649 21.3249 61.5528 19.6914 63.9486 19.6914C64.8198 19.6914 65.6366 19.9092 66.3444 20.3993V22.1416C65.691 21.4883 64.8198 21.1071 63.8942 21.1071C62.3696 21.1071 61.4439 22.2505 61.4439 23.7207C61.4439 25.2453 62.4785 26.3343 64.0031 26.3343C64.8743 26.3343 65.7455 26.062 66.3989 25.5175V27.151C65.6366 27.5866 64.7654 27.8044 63.8942 27.8044C61.4439 27.75 59.8649 26.062 59.8649 23.7207Z" fill="#2B2B2B"/>
<path d="M70.8093 21.1618V27.6958H69.2847V21.1618H66.8889V19.7461H73.2051V21.1073H70.8093V21.1618Z" fill="#2B2B2B"/>
<path d="M75.4919 21.8152C75.4919 22.1964 75.7097 22.4142 76.1453 22.632L77.6699 23.4487C78.5955 23.8843 79.0311 24.4833 79.0311 25.3545C79.0311 26.8246 77.8877 27.7502 76.2542 27.7502C75.383 27.7502 74.5118 27.5324 73.804 26.9879V25.1911C74.6752 26.0078 75.6008 26.3345 76.2542 26.3345C76.8532 26.3345 77.3977 26.0623 77.3977 25.5178C77.3977 25.0822 77.2343 24.9189 76.6354 24.6466L75.2197 23.9388C74.3485 23.5032 73.804 22.9587 73.804 21.8697C73.804 20.454 74.9474 19.5283 76.472 19.5283C77.2343 19.5283 77.9422 19.6917 78.5411 20.0728V21.7608C77.8333 21.2163 77.1254 20.8896 76.472 20.8896C75.982 20.9985 75.4919 21.2707 75.4919 21.8152Z" fill="#2B2B2B"/>
<path d="M53.821 3.46639C53.5487 2.5952 53.222 1.8329 52.8409 1.3973C52.6231 1.1795 52.3508 1.01615 52.0786 0.907252C51.7519 0.743903 51.4252 0.689453 51.0985 0.689453C50.7718 0.689453 50.4995 0.743903 50.1728 0.852803C49.8461 0.961702 49.6283 1.12505 49.4105 1.34285C48.9749 1.77845 48.7027 2.54075 48.4304 3.41194L44.6734 15.7721H46.9059L48.3215 11.1983H53.9299L55.2911 15.7721H57.578L53.821 3.46639ZM48.9205 9.29252L50.6084 3.79309C50.7173 3.46639 50.8262 3.13969 50.9896 2.86745C50.9896 2.86745 51.044 2.86745 51.044 2.813H51.0985H51.1529H51.2074C51.2074 2.813 51.2618 2.813 51.2618 2.86745C51.4252 3.13969 51.5885 3.46639 51.643 3.79309L53.3309 9.29252H48.9205ZM44.619 13.104L44.1834 13.5396C42.9855 14.7375 41.2975 15.881 38.575 15.881C37.5949 15.881 36.6148 15.7176 35.6892 15.3365C34.7635 14.9553 33.9468 14.4108 33.2934 13.703C31.9322 12.2873 31.1699 10.3271 31.2243 8.36688V8.31243C31.2243 6.35223 31.9322 4.39204 33.2934 2.97635C34.0012 2.2685 34.818 1.66955 35.7436 1.2884C36.6693 0.907252 37.6494 0.689453 38.6295 0.743903C41.2975 0.743903 42.8766 1.724 44.1289 2.86745L44.5645 3.24859L43.0399 4.82764L42.6043 4.44649C41.2975 3.24859 40.0996 2.75855 38.575 2.75855C35.6892 2.75855 33.4568 5.04544 33.4568 8.25798V8.31243C33.4568 11.4705 35.7436 13.8663 38.6295 13.8663C40.4263 13.8663 41.5698 13.2129 42.7677 12.0695L43.2033 11.6883L44.619 13.104ZM8.35539 0.689453C4.16275 0.689453 0.786865 4.06534 0.786865 8.25798C0.786865 12.4506 4.16275 15.8265 8.35539 15.8265C12.548 15.8265 15.9784 12.5051 15.9784 8.31243C15.9784 4.11979 12.548 0.689453 8.35539 0.689453ZM8.35539 13.6485C5.4151 13.6485 2.96486 11.2527 2.96486 8.25798C2.96486 5.26324 5.36065 2.86745 8.35539 2.86745C11.3501 2.86745 13.7459 5.26324 13.7459 8.25798C13.7459 11.2527 11.3501 13.6485 8.35539 13.6485ZM30.3531 15.881H28.1751V4.11979C28.1751 3.46639 27.6306 2.86745 26.9228 2.86745H20.1165C19.4631 2.86745 18.8642 3.41194 18.8642 4.11979V15.881H16.6862V4.11979C16.6862 2.21405 18.2108 0.689453 20.1165 0.689453H26.9228C28.8285 0.689453 30.3531 2.21405 30.3531 4.11979V15.881ZM68.0868 15.881H61.2806C59.3749 15.881 57.8503 14.3564 57.8503 12.4506V0.689453H60.0283V12.4506C60.0283 13.104 60.5728 13.703 61.2806 13.703H68.0868V15.881ZM79.0857 15.881H72.2795C70.3737 15.881 68.8491 14.3564 68.8491 12.4506V0.689453H71.0271V12.4506C71.0271 13.104 71.5716 13.703 72.2795 13.703H79.0857V15.881Z" fill="#2B2B2B"/>
</g>
<defs>
<clipPath id="clip0_3705_3007">
<rect width="78.2988" height="29.6207" fill="white" transform="translate(0.786865 0.689453)"/>
</clipPath>
</defs>
</svg>
