<svg width="91" height="50" viewBox="0 0 91 50" fill="none" xmlns="http://www.w3.org/2000/svg">
<g clip-path="url(#clip0_775_28024)">
<mask id="mask0_775_28024" style="mask-type:luminance" maskUnits="userSpaceOnUse" x="0" y="4" width="91" height="42">
<path d="M90.9023 4H0.902344V46H90.9023V4Z" fill="white"/>
</mask>
<g mask="url(#mask0_775_28024)">
<path d="M2.20724 25.7076V15.3539C2.20724 14.5516 1.77224 14.3981 0.902344 14.2475V13.7928H5.50994V14.2475C4.64004 14.3981 4.18474 14.5516 4.18474 15.3539V19.5214C4.18474 20.063 4.44574 20.2802 4.96764 20.2802H10.4654C10.9642 20.2802 11.2251 20.063 11.2251 19.5214V15.3539C11.2251 14.5516 10.7902 14.3981 9.92034 14.2475V13.7928H14.5047V14.2475C13.6348 14.3981 13.1998 14.5516 13.1998 15.3539V25.7047C13.1998 26.5069 13.6348 26.6604 14.5047 26.811V27.2657H9.92034V26.811C10.7902 26.6604 11.2251 26.5069 11.2251 25.7047V21.6038C11.2251 21.0825 10.9642 20.8652 10.4857 20.8652H4.94444C4.44574 20.8652 4.18474 21.0825 4.18474 21.6038V25.7047C4.18474 26.5069 4.64004 26.6604 5.50994 26.811V27.2657H0.902344V26.811C1.77224 26.6604 2.20724 26.5069 2.20724 25.7047V25.7076ZM15.3543 22.322C15.3543 19.1102 17.6566 17.2856 20.3968 17.2856C22.6121 17.2856 23.9605 18.4788 23.9605 20.1065C23.9605 21.54 22.8963 22.0585 19.8111 22.1888L17.877 22.2757C17.4652 22.2988 17.3115 22.5132 17.3115 22.9707C17.3115 24.5781 18.8774 26.226 21.2435 26.226C22.2004 26.226 23.2414 25.9451 23.9808 24.9894L24.3287 25.2703C23.917 26.0291 22.6556 27.3961 20.3533 27.3961C17.6363 27.3961 15.3543 25.4643 15.3543 22.3162V22.322ZM17.9176 21.737L19.5037 21.7167C21.5683 21.653 22.1772 21.3055 22.1772 20.1325C22.1772 18.9596 21.548 17.8764 20.0053 17.8764C18.0944 17.8764 17.2014 19.5041 17.2014 20.9579C17.2014 21.6964 17.4623 21.7602 17.9176 21.7399V21.737ZM25.7612 30.2227C25.7612 29.5711 26.2164 29.1598 26.8486 29.1598C28.0867 29.1598 27.3705 30.7875 28.2607 30.7875C28.7826 30.7875 29.2379 30.0055 29.5655 29.1801C30.044 27.9637 29.7395 27.0312 29.4786 26.3361L26.8718 19.9327C26.3063 18.5425 26.0685 18.2819 25.1349 17.9372V17.4825H29.4583V17.9372C28.2636 18.2848 28.1766 18.5223 28.7623 19.9327L30.6964 24.6853C30.9777 25.3137 31.1749 25.3137 31.4561 24.665L32.413 22.1917C33.8919 18.5252 33.4772 18.2848 32.2187 17.9372V17.4825H36.0637V17.9372C34.8256 18.2848 34.4776 18.5657 33.9354 19.9327L30.2847 28.9397C29.6554 30.4805 29.0668 31.5665 27.5242 31.5665C26.4165 31.5665 25.7641 30.9815 25.7641 30.2198L25.7612 30.2227ZM36.0405 22.4089C36.0405 19.1102 38.3226 17.2856 40.8221 17.2856C42.8634 17.2856 43.7768 18.5454 43.7768 17.3088V15.2467C43.7768 14.291 43.5826 13.9 42.3647 14.0101V13.5756L44.754 13.0543C45.2325 12.9472 45.5137 13.1615 45.5137 13.6625V25.8148C45.5137 26.5736 45.9922 26.6604 46.6214 26.5533V26.8139C46.3836 27.1615 45.7747 27.399 45.1861 27.399C44.4902 27.399 44.0117 27.0514 43.8174 26.3998C43.7507 26.1391 43.5565 26.0754 43.426 26.0754C42.7967 26.0754 42.1646 27.399 40.2305 27.399C37.905 27.399 36.0376 25.4238 36.0376 22.406L36.0405 22.4089ZM41.3208 26.2057C42.385 26.2057 43.7768 25.6844 43.7768 23.7324V21.2359C43.7768 18.8061 42.0167 17.8503 40.6046 17.8503C38.801 17.8503 37.7803 19.3911 37.7803 21.6269C37.7803 24.2537 39.1722 26.2057 41.3208 26.2057ZM47.9263 25.0125C47.9263 23.3415 49.2514 22.0614 54.0968 21.4966C54.4215 21.4763 54.6187 21.346 54.6187 20.8884V20.4337C54.6187 18.8698 53.9025 17.8503 52.2497 17.8503C49.5327 17.8503 51.403 20.564 49.4892 20.564C48.86 20.564 48.5555 20.1962 48.5555 19.588C48.5555 17.9372 50.794 17.2885 52.8354 17.2885C55.3987 17.2885 56.3556 18.4383 56.3556 20.8479V25.8177C56.3556 26.5765 56.8341 26.5996 57.356 26.4259V26.6633C57.1617 27.0746 56.6398 27.4019 56.0743 27.4019C55.2914 27.4019 54.639 26.924 54.5955 25.8177C54.6158 25.6236 54.4447 25.6236 54.291 25.8177C53.4878 26.7937 52.1192 27.4019 50.7505 27.4019C49.2949 27.4019 47.9263 26.7068 47.9263 25.0154V25.0125ZM51.7712 26.4027C53.3139 26.4027 54.6187 25.2964 54.6187 23.799V22.7999C54.6187 22.3017 54.4882 21.9745 53.7488 22.0614C50.5099 22.4523 49.7937 23.5818 49.7937 24.6215C49.7937 25.5773 50.4026 26.3998 51.7712 26.3998V26.4027ZM58.4202 30.2227C58.4202 29.5711 58.8754 29.1598 59.5076 29.1598C60.7457 29.1598 60.0295 30.7875 60.9197 30.7875C61.4416 30.7875 61.8969 30.0055 62.2245 29.1801C62.703 27.9637 62.3985 27.0312 62.1376 26.3361L59.5308 19.9327C58.9653 18.5425 58.7275 18.2819 57.7938 17.9372V17.4825H62.1173V17.9372C60.9226 18.2848 60.8356 18.5223 61.4213 19.9327L63.3554 24.6853C63.6367 25.3137 63.8339 25.3137 64.1151 24.665L65.072 22.1917C66.5509 18.5252 66.1362 18.2848 64.8777 17.9372V17.4825H68.7227V17.9372C67.4845 18.2848 67.1366 18.5657 66.5944 19.9327L62.9437 28.9397C62.3144 30.4805 61.7258 31.5665 60.1832 31.5665C59.0755 31.5665 58.4231 30.9815 58.4231 30.2198L58.4202 30.2227ZM34.6429 44.3096V33.9587C34.6429 33.1565 34.2079 33.003 33.338 32.8524V32.3977H37.9456V32.8524C37.0757 33.003 36.6204 33.1565 36.6204 33.9587V38.1263C36.6204 38.6679 36.8814 38.8851 37.4034 38.8851H42.9011C43.3999 38.8851 43.6609 38.6679 43.6609 38.1263V33.9587C43.6609 33.1565 43.2259 33.003 42.356 32.8524V32.3977H46.9404V32.8524C46.0705 33.003 45.6355 33.1565 45.6355 33.9587V44.3096C45.6355 45.1118 46.0705 45.2653 46.9404 45.4159V45.8706H42.356V45.4159C43.2259 45.2653 43.6609 45.1118 43.6609 44.3096V40.2086C43.6609 39.6873 43.3999 39.4701 42.9214 39.4701H37.3802C36.8814 39.4701 36.6204 39.6873 36.6204 40.2086V44.3096C36.6204 45.1118 37.0757 45.2653 37.9456 45.4159V45.8706H33.338V45.4159C34.2079 45.2653 34.6429 45.1118 34.6429 44.3096ZM47.79 40.924C47.79 37.7122 50.0923 35.8876 52.8325 35.8876C55.0479 35.8876 56.3962 37.0808 56.3962 38.7084C56.3962 40.142 55.332 40.6604 52.2468 40.7908L50.3127 40.8777C49.9009 40.9008 49.7473 41.1151 49.7473 41.5727C49.7473 43.1801 51.3131 44.828 53.6792 44.828C54.6361 44.828 55.6771 44.5471 56.4165 43.5913L56.7645 43.8723C56.3527 44.6311 55.0914 45.998 52.789 45.998C50.072 45.998 47.79 44.0663 47.79 40.9182V40.924ZM50.3533 40.339L51.9394 40.3187C54.004 40.255 54.6129 39.9074 54.6129 38.7345C54.6129 37.5616 53.9837 36.4784 52.4411 36.4784C50.5302 36.4784 49.6371 38.106 49.6371 39.5599C49.6371 40.2984 49.898 40.3621 50.3533 40.3419V40.339ZM57.8924 43.6174C57.8924 41.9463 59.2176 40.6662 64.0629 40.1015C64.3877 40.0812 64.5849 39.9509 64.5849 39.4933V39.0386C64.5849 37.4747 63.8687 36.4552 62.2158 36.4552C59.4989 36.4552 61.3691 39.1689 59.4554 39.1689C58.8261 39.1689 58.5217 38.8011 58.5217 38.1929C58.5217 36.5421 60.7602 35.8934 62.8016 35.8934C65.3649 35.8934 66.3218 37.0431 66.3218 39.4527V44.4225C66.3218 45.1813 66.8002 45.2045 67.3222 45.0307V45.2682C67.1279 45.6795 66.6059 46.0067 66.0405 46.0067C65.2576 46.0067 64.6052 45.5289 64.5617 44.4225C64.582 44.2285 64.4109 44.2285 64.2572 44.4225C63.454 45.3985 62.0854 46.0067 60.7167 46.0067C59.2611 46.0067 57.8924 45.3117 57.8924 43.6203V43.6174ZM61.7374 45.0076C63.28 45.0076 64.5849 43.9012 64.5849 42.4039V41.4048C64.5849 40.9066 64.4544 40.5793 63.715 40.6662C60.476 41.0572 59.7598 42.1867 59.7598 43.2264C59.7598 44.1822 60.3688 45.0047 61.7374 45.0047V45.0076ZM68.9518 44.466V33.8545C68.9518 32.8988 68.7575 32.5078 67.5396 32.6178V32.1834L69.929 31.6621C70.4074 31.5549 70.6887 31.7693 70.6887 32.2703V44.4225C70.6887 45.1813 71.1671 45.2682 71.7964 45.1611V45.4217C71.5586 45.7693 70.9497 46.0067 70.3407 46.0067C69.5375 46.0067 68.9489 45.5723 68.9489 44.466H68.9518ZM74.0146 43.4234V37.411C74.0146 36.8462 73.8406 36.7391 73.5362 36.7391H72.5155V36.2612C73.7101 35.8065 74.4264 35.1317 75.0788 33.9819C75.1455 33.8516 75.2528 33.8081 75.3601 33.8081H75.5543C75.6848 33.8081 75.7718 33.895 75.7718 34.0254L75.7515 35.5227C75.7515 35.9571 75.9023 36.0874 76.8389 36.0874H78.512V36.8694L76.8389 36.7825C75.9052 36.7391 75.7515 36.9128 75.7515 37.4544V43.183C75.7515 44.4631 75.9893 45.2653 77.0564 45.2653C77.5783 45.2653 77.9698 45.0713 78.2307 44.8309C78.512 45.0481 78.4685 45.2422 78.3815 45.3088C77.9901 45.6997 77.4246 45.9807 76.5344 45.9807C75.0353 45.9807 74.0146 45.2219 74.0146 43.4205V43.4234ZM88.0523 44.466V39.9943C88.0523 38.2161 87.1824 36.9765 85.5959 36.9765C84.0098 36.9765 82.9659 38.2132 82.9659 39.9943V44.269C82.9659 45.051 83.3342 45.3117 84.378 45.4188V45.8735H79.8371V45.4188C80.8578 45.3117 81.229 45.051 81.229 44.269V33.8516C81.229 32.8959 81.0347 32.5049 79.8168 32.6149V32.1805L82.2062 31.6592C82.6846 31.552 82.9659 31.7664 82.9659 32.2674V36.5856C82.9659 37.411 83.1602 37.6919 83.4646 37.3878C83.7894 37.0837 84.7463 35.8905 86.5933 35.8905C88.2663 35.8905 89.7893 36.8897 89.7893 39.4933V44.4196C89.7893 45.1784 90.2673 45.2653 90.8963 45.1582V45.4188C90.6353 45.7664 90.0263 46.0038 89.4413 46.0038C88.6373 46.0038 88.0493 45.5694 88.0493 44.4631L88.0523 44.466Z" fill="#3D3E45"/>
<path d="M63.7789 12.1504C63.1671 12.1388 62.3435 11.9303 61.6534 11.241C61.3345 10.9225 60.6008 9.58155 60.4414 8.82855C61.1924 8.98783 62.5494 9.70898 62.8684 10.0275C63.5585 10.7168 63.7673 11.5393 63.7789 12.1504ZM68.0356 10.3635C68.459 9.92329 68.8939 9.19346 68.8939 8.22035C68.8939 7.77145 68.4474 6.3031 68.0269 5.66016C67.6094 6.3031 67.1773 7.77145 67.1773 8.22035C67.1773 9.19636 67.6123 9.92329 68.0356 10.3635ZM72.3097 12.107C72.9215 12.0954 73.7451 11.8869 74.4352 11.1976C74.7541 10.879 75.4762 9.52652 75.6356 8.77352C74.8846 8.93281 73.5392 9.66553 73.2202 9.98411C72.5301 10.6734 72.3213 11.4959 72.3097 12.107ZM74.0959 16.3585C74.5367 16.7814 75.2674 17.2158 76.2417 17.2158C76.6911 17.2158 78.1613 16.7698 78.805 16.3498C78.1613 15.9328 76.6911 15.5013 76.2417 15.5013C75.2645 15.5013 74.5367 15.9357 74.0959 16.3585ZM72.3503 20.6275C72.3619 21.2385 72.5707 22.0611 73.2608 22.7503C73.5798 23.0689 74.9339 23.7901 75.6878 23.9493C75.5284 23.1992 74.7947 21.8554 74.4758 21.5369C73.7856 20.8476 72.9621 20.639 72.3503 20.6275Z" fill="#3D3E45"/>
<path d="M62.0917 13.957C61.8104 14.1278 60.7259 14.348 59.3196 13.789C58.6613 13.5254 56.4576 11.9644 55.666 11.3968C56.6316 11.53 59.308 11.9123 59.9662 12.1729C61.3725 12.7319 62.0076 13.6384 62.0946 13.957H62.0917ZM65.319 7.6868C65.0377 7.03517 63.4197 4.87753 62.8282 4.10137C62.9848 5.06289 63.44 7.72156 63.7184 8.37319C64.3157 9.76334 65.2378 10.3744 65.5597 10.4497C65.7249 10.163 65.9163 9.07695 65.3161 7.6868H65.319ZM72.284 8.29499C72.5479 7.63757 72.9306 4.96442 73.0611 4C72.4928 4.79065 70.9299 6.99173 70.666 7.64915C70.1063 9.05379 70.3238 10.1369 70.4978 10.4179C70.8168 10.331 71.7215 9.69673 72.284 8.2921V8.29499ZM76.7756 13.6442C77.428 13.3633 79.5883 11.7472 80.3654 11.1564C79.4027 11.3128 76.7408 11.7675 76.0884 12.0455C74.6965 12.6421 74.0847 13.5631 74.0093 13.8846C74.2964 14.0496 75.3838 14.2408 76.7756 13.6413V13.6442ZM76.1667 20.6007C76.8249 20.8643 79.5013 21.2466 80.4669 21.3769C79.6753 20.8093 77.4715 19.2482 76.8133 18.9847C75.4069 18.4257 74.3225 18.6429 74.0412 18.8167C74.1282 19.1353 74.7632 20.0389 76.1696 20.6007H76.1667ZM70.811 25.0869C71.0922 25.7385 72.7103 27.8962 73.3018 28.6723C73.1452 27.7108 72.69 25.0521 72.4116 24.4005C71.8143 23.0103 70.8922 22.3993 70.5703 22.324C70.405 22.6107 70.2136 23.6967 70.8139 25.0869H70.811Z" fill="#3D3E45"/>
</g>
</g>
<defs>
<clipPath id="clip0_775_28024">
<rect width="90" height="50" fill="white" transform="translate(0.902344)"/>
</clipPath>
</defs>
</svg>
