<svg width="93" height="50" viewBox="0 0 93 50" fill="none" xmlns="http://www.w3.org/2000/svg">
<g clip-path="url(#clip0_775_28083)">
<path d="M85.9602 39.5032C85.2662 39.5032 84.7405 39.5032 84.0781 39.5032C84.0781 35.9006 84.0781 32.319 84.0781 28.6953C84.7405 28.6953 85.2662 28.6953 85.9496 28.6953C85.9496 29.9383 85.9496 31.1708 85.9496 32.4875C86.0653 32.4033 86.1284 32.3401 86.181 32.2979C87.2116 31.3183 88.4096 31.0865 89.6826 31.392C90.8286 31.6659 91.4486 32.6139 91.7746 33.8254C91.9216 34.3626 92.0056 34.9525 92.0376 35.5108C92.0796 36.7538 92.0586 37.9863 92.0586 39.2399C92.0586 39.3242 92.0476 39.3979 92.0376 39.5032C91.3746 39.5032 90.7336 39.5032 90.0396 39.5032C90.0396 39.3558 90.0396 39.2188 90.0396 39.0713C90.0296 37.8178 90.0186 36.5642 89.9876 35.3107C89.9876 35.0895 89.9446 34.8788 89.9136 34.6786C89.7136 33.541 89.0406 32.9405 88.0106 32.9405C86.959 32.951 86.244 33.562 86.0758 34.6786C85.9917 35.258 85.9602 35.8479 85.9496 36.4168C85.9496 37.428 85.9602 38.4288 85.9602 39.5032Z" fill="#3D3E45"/>
<path d="M79.5145 31.5622C79.5145 31.025 79.504 30.572 79.5145 30.1085C79.5145 29.9926 79.5566 29.8241 79.6302 29.782C80.24 29.3501 80.6185 28.9287 81.2914 28.4863C81.2914 29.5397 81.2914 30.5299 81.2914 31.5728C81.733 31.5728 82.1641 31.5728 82.5952 31.5728C82.5952 32.1732 82.5952 32.6999 82.5952 33.3109C82.1746 33.3109 81.7646 33.3109 81.3019 33.3109C81.3019 35.3966 81.3019 37.4929 81.3019 39.5471C80.6185 39.5471 80.2085 39.5471 79.5145 39.5471C79.5145 37.5035 79.5145 35.4177 79.5145 33.3425C79.0414 33.3425 78.6208 33.3425 78.1582 33.3425C78.1582 32.742 78.1582 32.2153 78.1582 31.6044C78.6103 31.5622 79.0624 31.5622 79.5145 31.5622Z" fill="#3D3E45"/>
<path d="M74.8867 28.707C75.5701 28.707 76.0853 28.707 76.7582 28.707C76.7582 32.3096 76.7582 35.8912 76.7582 39.5149C76.0958 39.5149 75.5701 39.5149 74.8867 39.5149C74.8867 35.9228 74.8867 32.3412 74.8867 28.707Z" fill="#3D3E45"/>
<path d="M74.142 17.0353C72.2599 15.4552 69.1897 15.6659 67.518 17.541C66.0565 19.1527 66.0565 21.4702 67.518 23.0819C68.5273 24.1774 69.747 24.6093 70.9036 24.6409C72.1548 24.6409 73.1326 24.3671 74.0158 23.6929C76.0976 22.0601 76.1607 18.7313 74.142 17.0353ZM71.0087 23.0398C69.5893 23.0398 68.4432 22.1338 68.4432 20.2904C68.4432 18.489 69.5998 17.541 71.0087 17.541C72.4281 17.541 73.5742 18.4153 73.5742 20.2904C73.5847 22.2392 72.4281 23.0398 71.0087 23.0398Z" fill="#3D3E45"/>
<path d="M83.4051 13.4956C83.4051 14.1171 83.4051 14.7176 83.4051 15.3075C83.4051 15.8553 83.4051 16.403 83.4051 16.9614C82.7006 16.2556 81.7543 15.8237 80.7239 15.8237C78.5159 15.8237 76.7285 17.7935 76.7285 20.2164C76.7285 22.6392 78.5159 24.6091 80.7239 24.6091C81.6387 24.6091 82.4903 24.2615 83.1632 23.6821C83.2789 23.5978 83.3945 23.5136 83.5102 23.4082L83.8572 24.2615H85.1715C85.1715 20.6483 85.1715 17.0562 85.1715 13.4746C84.488 13.4956 84.0885 13.4956 83.4051 13.4956ZM81.1129 22.9552C79.7566 22.9447 78.7893 21.7333 78.8208 20.1005C78.8313 18.6363 79.8617 17.5197 81.1865 17.5407C82.5008 17.5513 83.4156 18.7205 83.3945 20.3533C83.3735 21.807 82.3536 22.9869 81.1129 22.9552Z" fill="#3D3E45"/>
<path d="M16.0612 34.5852C16.0612 38.1352 13.2013 41.0005 9.67898 41.0005C6.15668 41.0005 3.29688 38.1247 3.29688 34.5852C3.29688 31.0352 6.15668 28.17 9.67898 28.17C13.2013 28.1594 16.0612 31.0352 16.0612 34.5852Z" fill="#3D3E45"/>
<path d="M30.8433 34.584C30.8433 39.7247 25.6072 40.9993 21.5697 40.9993C18.8886 40.9993 19.1304 28.1582 21.5697 28.1582C25.6177 28.1582 30.8433 29.4434 30.8433 34.584Z" fill="#3D3E45"/>
<path d="M31.4852 18.5304C31.4852 22.0804 28.5307 24.9457 24.8822 24.9457C21.2338 24.9457 18.2793 22.0699 18.2793 18.5304C18.2793 14.9805 21.2338 12.1152 24.8822 12.1152C28.5307 12.1152 31.4852 14.991 31.4852 18.5304Z" fill="#3D3E45"/>
<path d="M3.92629 14.2112L2.07569 22.2487C1.74979 23.5655 2.70659 24.8612 4.09449 24.9455C5.66109 25.0403 7.63779 25.1456 9.18339 25.1456C10.6869 25.1456 12.6111 25.0508 14.1567 24.956C15.5866 24.8717 16.5539 23.5128 16.1544 22.175L13.9464 14.0321C13.5573 12.7259 11.7489 12.5047 11.0444 13.674L9.70909 15.8756C9.36209 16.455 8.49999 16.455 8.14249 15.8861L6.83869 13.7793C6.10269 12.589 4.26269 12.8734 3.92629 14.2112Z" fill="#3D3E45"/>
<path d="M48.7907 21.8075C48.9274 21.502 49.022 21.2703 49.1271 21.028C50.147 18.6052 51.1774 16.1928 52.1763 13.7489C52.2709 13.5172 52.3866 13.4434 52.5969 13.4434C53.3539 13.454 53.7745 13.4434 53.7745 13.4434L54.889 24.2725C54.889 24.2725 53.8691 24.2725 53.1436 24.2725L52.3971 17.7098C52.3971 17.7098 52.3445 17.6992 52.3235 17.6782C52.2604 17.8256 52.1973 17.9626 52.1342 18.0995L49.6529 24.0091C49.5582 24.2409 49.4426 24.3146 49.2323 24.3146C48.7066 24.3041 48.8643 24.3041 48.3281 24.3146" fill="#3D3E45"/>
<path d="M48.8131 21.8075C48.6764 21.502 48.5818 21.2703 48.4766 21.028C47.4568 18.6052 46.4264 16.1718 45.4275 13.7489C45.3329 13.5172 45.2172 13.4434 45.0069 13.4434C44.2499 13.454 43.8293 13.4434 43.8293 13.4434L42.7148 24.2725C42.7148 24.2725 43.7347 24.2725 44.4602 24.2725L45.2067 17.6992C45.2067 17.6992 45.2593 17.6887 45.2803 17.6676C45.3434 17.8151 45.4065 17.952 45.4696 18.089C46.3002 20.0589 47.1308 22.0182 47.9509 23.9986C48.0456 24.2304 48.1612 24.3041 48.3715 24.3041C48.8972 24.2936 48.7395 24.2936 49.2757 24.3041" fill="#3D3E45"/>
<path d="M63.8894 17.0776C63.1218 16.414 62.2492 16.0874 61.2924 16.0137C59.6416 15.8873 58.1486 16.3613 56.992 17.8045C55.8039 19.2898 55.8144 21.3755 57.013 22.8608C58.0434 24.1249 59.3472 24.62 60.5879 24.6516C61.8812 24.6516 62.8695 24.3777 63.7632 23.6614C65.7925 22.0392 65.845 18.7631 63.8894 17.0776ZM60.7456 23.0399C59.3262 23.0399 58.1801 22.134 58.1801 20.2905C58.1801 18.4892 59.3367 17.5411 60.7456 17.5411C62.1545 17.5411 63.3111 18.4155 63.3111 20.2905C63.3216 22.2393 62.165 23.0399 60.7456 23.0399Z" fill="#3D3E45"/>
<path d="M60.9673 36.9445C60.5047 38.0717 59.2325 38.4403 58.3388 38.3245C57.014 38.1559 56.1202 37.1236 56.0782 35.6909C57.5922 35.6909 59.0958 35.6909 60.5783 35.6909C61.3984 35.6909 62.2185 35.6909 63.0386 35.6909C63.0597 35.6383 63.0807 35.6067 63.0807 35.5856C63.0807 35.5435 63.0912 35.4803 63.0912 35.4381C63.0912 33.7527 62.4498 32.4675 61.1356 31.7512C59.4322 30.8137 57.6869 30.8769 55.9941 31.8249C54.806 32.4991 54.091 33.6368 54.0174 35.2274C53.9438 36.8813 54.5852 38.1138 55.7943 38.946C57.3925 40.0415 59.0958 40.0415 60.8201 39.42C61.7033 39.104 62.4498 38.5246 62.8599 37.5133C62.9335 37.3448 62.9861 37.1341 63.0176 36.934H60.9673V36.9445ZM58.9906 32.615C60.021 32.6993 60.8096 33.405 60.9253 34.4479C59.3797 34.4479 57.8236 34.4479 56.2569 34.4479C56.5829 33.0996 57.6658 32.4991 58.9906 32.615Z" fill="#3D3E45"/>
<path d="M72.8999 34.2578C72.8894 33.1096 72.6686 32.309 71.7539 31.8666C70.3975 31.1924 68.9991 31.0765 67.5587 31.3082C66.6755 31.4557 65.8343 31.7085 65.1299 32.3617C64.6672 32.783 64.4359 33.3097 64.4149 33.9734H66.4547C66.5283 33.5099 66.7701 33.1938 67.1381 33.0253C68.2947 32.5091 69.4302 32.5197 70.5657 33.099C70.7655 33.2044 70.9653 33.4151 71.0915 33.6363C71.3123 34.0366 71.144 34.2894 70.7445 34.3947C70.4921 34.4474 70.2398 34.5001 69.9769 34.5001C69.0201 34.5106 67.2958 34.5527 66.5913 34.6581C65.5084 34.8477 64.3203 35.7642 64.3203 37.2179C64.3203 38.8612 65.6976 39.7145 66.9593 39.7355C66.9804 39.7355 67.422 39.7671 67.9161 39.7355C67.9161 39.7355 69.9244 39.7355 71.144 38.3134L71.4595 39.5143L72.8789 39.5248C72.8894 39.409 72.8894 39.3563 72.8894 39.2931C72.8999 37.6287 72.9209 35.9432 72.8999 34.2578ZM69.4197 37.9447C68.7783 38.1659 67.9687 38.2502 67.2327 38.0922C66.3075 37.8921 66.3075 37.0704 66.3075 37.0283C66.3075 36.4278 66.707 35.859 67.4325 35.88C67.443 35.88 68.1054 35.8484 68.7152 35.8379C69.5248 35.8063 70.3239 35.7958 71.1125 35.4376C71.102 36.47 70.3344 37.6392 69.4197 37.9447Z" fill="#3D3E45"/>
<path d="M50.7051 28.739C50.7051 29.9504 50.7051 31.1302 50.7051 32.3101C50.7051 32.4365 50.7051 32.5734 50.7051 32.6998V34.8804C50.7157 34.8804 50.7156 34.8804 50.7262 34.8804C50.7262 36.45 50.7262 37.9879 50.7262 39.5154C51.4622 39.5154 51.9038 39.5154 52.5977 39.5154C52.5977 35.9022 52.5977 32.3311 52.5977 28.7285C51.8827 28.739 51.4306 28.739 50.7051 28.739Z" fill="#3D3E45"/>
<path d="M44.5864 35.9541L44.5653 32.7096C44.5653 31.3718 44.5653 30.0445 44.5653 28.7383C43.8293 28.7383 43.3982 28.7383 42.7148 28.7383C42.7148 32.3515 42.7148 35.9436 42.7148 39.5252C43.4193 39.5252 43.8714 39.5252 44.5864 39.5252C44.5864 38.3348 44.5864 37.155 44.5864 35.9541Z" fill="#3D3E45"/>
<path d="M50.9371 33.2773H43.9766V35.0049H50.9371V33.2773Z" fill="#3D3E45"/>
<path d="M48.7921 21.8075C48.9288 21.502 49.0234 21.2703 49.1285 21.028C50.1484 18.6052 51.1788 16.1928 52.1777 13.7489C52.2723 13.5172 52.388 13.4434 52.5982 13.4434C53.3553 13.454 53.7758 13.4434 53.7758 13.4434L54.8903 24.2725C54.8903 24.2725 53.8705 24.2725 53.145 24.2725L52.3985 17.7098C52.3985 17.7098 52.3459 17.6992 52.3249 17.6782C52.2618 17.8256 52.1987 17.9626 52.1356 18.0995L49.6542 24.0091C49.5596 24.2409 49.444 24.3146 49.2337 24.3146C48.708 24.3041 48.8657 24.3041 48.3294 24.3146M48.8131 21.8075C48.6764 21.502 48.5818 21.2703 48.4766 21.028C47.4568 18.6052 46.4264 16.1718 45.4275 13.7489C45.3329 13.5172 45.2172 13.4434 45.0069 13.4434C44.2499 13.454 43.8293 13.4434 43.8293 13.4434L42.7148 24.2725C42.7148 24.2725 43.7347 24.2725 44.4602 24.2725L45.2067 17.6992C45.2067 17.6992 45.2593 17.6887 45.2803 17.6676C45.3434 17.8151 45.4065 17.952 45.4696 18.089C46.3002 20.0589 47.1308 22.0182 47.9509 23.9986C48.0456 24.2304 48.1612 24.3041 48.3715 24.3041C48.8972 24.2936 48.7395 24.2936 49.2757 24.3041M85.96 39.5048C85.2661 39.5048 84.7404 39.5048 84.078 39.5048C84.078 35.9021 84.078 32.3205 84.078 28.6968C84.7404 28.6968 85.2661 28.6968 85.9495 28.6968C85.9495 29.9398 85.9495 31.1723 85.9495 32.4891C86.0652 32.4048 86.1283 32.3416 86.1808 32.2995C87.2111 31.3198 88.4101 31.0881 89.6821 31.3935C90.8281 31.6674 91.4481 32.6155 91.7741 33.8269C91.9221 34.3642 92.0061 34.9541 92.0371 35.5124C92.0791 36.7554 92.0581 37.9879 92.0581 39.2414C92.0581 39.3257 92.0481 39.3995 92.0371 39.5048C91.3751 39.5048 90.7331 39.5048 90.0391 39.5048C90.0391 39.3573 90.0391 39.2204 90.0391 39.0729C90.0291 37.8193 90.0181 36.5658 89.9871 35.3122C89.9871 35.091 89.9451 34.8803 89.9131 34.6802C89.7141 33.5425 89.0411 32.9421 88.0101 32.9421C86.9589 32.9526 86.2439 33.5636 86.0757 34.6802C85.9916 35.2596 85.96 35.8495 85.9495 36.4183C85.9495 37.4296 85.96 38.4303 85.96 39.5048ZM79.5148 31.5621C79.5148 31.0249 79.5043 30.5719 79.5148 30.1084C79.5148 29.9925 79.5568 29.824 79.6304 29.7818C80.2403 29.3499 80.6188 28.9286 81.2917 28.4861C81.2917 29.5395 81.2917 30.5297 81.2917 31.5726C81.7333 31.5726 82.1644 31.5726 82.5955 31.5726C82.5955 32.1731 82.5955 32.6998 82.5955 33.3108C82.1749 33.3108 81.7648 33.3108 81.3022 33.3108C81.3022 35.3965 81.3022 37.4928 81.3022 39.5469C80.6188 39.5469 80.2087 39.5469 79.5148 39.5469C79.5148 37.5033 79.5148 35.4176 79.5148 33.3424C79.0416 33.3424 78.6211 33.3424 78.1584 33.3424C78.1584 32.7419 78.1584 32.2152 78.1584 31.6042C78.6106 31.5621 79.0627 31.5621 79.5148 31.5621ZM74.8885 28.7073C75.5719 28.7073 76.0871 28.7073 76.7601 28.7073C76.7601 32.31 76.7601 35.8916 76.7601 39.5153C76.0977 39.5153 75.5719 39.5153 74.8885 39.5153C74.8885 35.9232 74.8885 32.3416 74.8885 28.7073ZM63.8906 17.0777C63.123 16.4141 62.2503 16.0875 61.2935 16.0138C59.6428 15.8874 58.1498 16.3614 56.9932 17.8046C55.8051 19.2899 55.8156 21.3756 57.0142 22.8609C58.0446 24.125 59.3484 24.6201 60.5891 24.6517C61.8823 24.6517 62.8707 24.3778 63.7644 23.6615C65.7937 22.0393 65.8462 18.7632 63.8906 17.0777ZM60.7468 23.04C59.3274 23.04 58.1813 22.1341 58.1813 20.2906C58.1813 18.4893 59.3379 17.5412 60.7468 17.5412C62.1557 17.5412 63.3123 18.4155 63.3123 20.2906C63.3228 22.2394 62.1662 23.04 60.7468 23.04ZM74.142 17.0356C72.2599 15.4555 69.1898 15.6661 67.518 17.5412C66.0565 19.1529 66.0565 21.4704 67.518 23.0821C68.5274 24.1777 69.747 24.6096 70.9036 24.6412C72.1548 24.6412 73.1326 24.3673 74.0158 23.6931C76.0976 22.0603 76.1607 18.7316 74.142 17.0356ZM71.0087 23.04C69.5893 23.04 68.4433 22.1341 68.4433 20.2906C68.4433 18.4893 69.5998 17.5412 71.0087 17.5412C72.4282 17.5412 73.5742 18.4155 73.5742 20.2906C73.5847 22.2394 72.4282 23.04 71.0087 23.04ZM60.9676 36.945C60.505 38.0722 59.2327 38.4409 58.339 38.325C57.0142 38.1564 56.1205 37.1241 56.0785 35.6915C57.5925 35.6915 59.0961 35.6915 60.5786 35.6915C61.3987 35.6915 62.2188 35.6915 63.0389 35.6915C63.0599 35.6388 63.081 35.6072 63.081 35.5861C63.081 35.544 63.0915 35.4808 63.0915 35.4386C63.0915 33.7532 62.4501 32.468 61.1358 31.7517C59.4325 30.8142 57.6871 30.8774 55.9944 31.8254C54.8062 32.4996 54.0913 33.6373 54.0177 35.228C53.9441 36.8818 54.5854 38.1143 55.7946 38.9465C57.3927 40.042 59.0961 40.042 60.8204 39.4205C61.7036 39.1045 62.4501 38.5251 62.8602 37.5139C62.9338 37.3453 62.9863 37.1346 63.0179 36.9345H60.9676V36.945ZM58.9909 32.6155C60.0213 32.6998 60.8099 33.4056 60.9255 34.4484C59.3799 34.4484 57.8238 34.4484 56.2572 34.4484C56.5832 33.1001 57.6661 32.4996 58.9909 32.6155ZM72.9013 34.2588C72.8908 33.1106 72.67 32.31 71.7553 31.8676C70.3989 31.1934 69.0005 31.0775 67.5601 31.3093C66.6769 31.4567 65.8357 31.7096 65.1313 32.3627C64.6686 32.784 64.4373 33.3107 64.4163 33.9744H66.4561C66.5297 33.5109 66.7715 33.1949 67.1395 33.0263C68.2961 32.5102 69.4316 32.5207 70.5671 33.1001C70.7669 33.2054 70.9667 33.4161 71.0929 33.6373C71.3137 34.0376 71.1454 34.2904 70.7459 34.3958C70.4935 34.4484 70.2412 34.5011 69.9783 34.5011C69.0215 34.5116 67.2972 34.5538 66.5927 34.6591C65.5098 34.8487 64.3217 35.7652 64.3217 37.2189C64.3217 38.8622 65.699 39.7155 66.9607 39.7365C66.9818 39.7365 67.4234 39.7681 67.9175 39.7365C67.9175 39.7365 69.9258 39.7365 71.1454 38.3144L71.4609 39.5153L72.8803 39.5259C72.8908 39.41 72.8908 39.3573 72.8908 39.2941C72.9013 37.6297 72.9223 35.9443 72.9013 34.2588ZM69.4211 37.9458C68.7797 38.167 67.9701 38.2512 67.2341 38.0932C66.2983 37.8931 66.2983 37.0714 66.2983 37.0293C66.2983 36.4288 66.6979 35.86 67.4234 35.8811C67.4339 35.8811 68.0963 35.8495 68.7061 35.8389C69.5157 35.8073 70.3148 35.7968 71.1034 35.4386C71.1034 36.471 70.3358 37.6403 69.4211 37.9458ZM50.7057 28.739C50.7057 29.9504 50.7057 31.1302 50.7057 32.31C50.7057 32.4364 50.7057 32.5734 50.7057 32.6998V34.8803C50.7162 34.8803 50.7162 34.8803 50.7267 34.8803C50.7267 36.4499 50.7267 37.9879 50.7267 39.5153C51.4627 39.5153 51.9043 39.5153 52.5982 39.5153C52.5982 35.9021 52.5982 32.3311 52.5982 28.7284C51.8833 28.739 51.4312 28.739 50.7057 28.739ZM44.5864 35.9548L44.5653 32.7103C44.5653 31.3725 44.5653 30.0452 44.5653 28.739C43.8293 28.739 43.3982 28.739 42.7148 28.739C42.7148 32.3521 42.7148 35.9443 42.7148 39.5259C43.4193 39.5259 43.8714 39.5259 44.5864 39.5259C44.5864 38.3355 44.5864 37.1557 44.5864 35.9548ZM43.9765 33.2791H50.937V35.0067H43.9765V33.2791ZM83.4051 13.4961C83.4051 14.1176 83.4051 14.7181 83.4051 15.308C83.4051 15.8558 83.4051 16.4035 83.4051 16.9618C82.7006 16.2561 81.7543 15.8242 80.7239 15.8242C78.5159 15.8242 76.7285 17.794 76.7285 20.2169C76.7285 22.6397 78.5159 24.6096 80.7239 24.6096C81.6387 24.6096 82.4903 24.262 83.1632 23.6826C83.2789 23.5983 83.3946 23.514 83.5102 23.4087L83.8572 24.262H85.1715C85.1715 20.6488 85.1715 17.0566 85.1715 13.4751C84.488 13.4961 84.0885 13.4961 83.4051 13.4961ZM81.113 22.9557C79.7566 22.9452 78.7893 21.7338 78.8208 20.101C78.8314 18.6368 79.8618 17.5201 81.1866 17.5412C82.5008 17.5517 83.4156 18.721 83.3946 20.3538C83.3735 21.8075 82.3536 22.9873 81.113 22.9557Z" stroke="#3D3E45" stroke-width="0.2068"/>
</g>
<defs>
<clipPath id="clip0_775_28083">
<rect width="92" height="50" fill="white" transform="translate(0.5)"/>
</clipPath>
</defs>
</svg>
