<svg width="121" height="50" viewBox="0 0 121 50" fill="none" xmlns="http://www.w3.org/2000/svg">
<path d="M46.2383 23.0631V22.8625L46.5209 22.7823C46.7767 22.7154 46.9517 22.6017 47.0459 22.4413C47.1536 22.2808 47.2141 22.0668 47.2276 21.7993V15.5205C47.2276 15.2263 47.1805 15.0123 47.0863 14.8786C46.992 14.7314 46.8103 14.6311 46.5411 14.5776L46.2383 14.4974V14.2968L49.6907 13.1333L49.8926 13.3339L50.0541 14.698C50.4983 14.2567 51.003 13.8822 51.5683 13.5746C52.1471 13.267 52.7461 13.1133 53.3652 13.1133C54.0113 13.1133 54.5295 13.247 54.9198 13.5145C55.3102 13.7686 55.6063 14.1698 55.8082 14.7181C56.3331 14.2233 56.8984 13.8354 57.5041 13.5546C58.1232 13.2604 58.7222 13.1133 59.301 13.1133C60.2566 13.1133 60.9565 13.3406 61.4007 13.7953C61.8583 14.25 62.0871 14.9655 62.0871 15.9417V21.8194C62.0871 22.341 62.3294 22.6686 62.814 22.8023L63.036 22.8625V23.0631H58.3722V22.8625L58.5741 22.8023C58.8299 22.7221 59.0048 22.6017 59.0991 22.4413C59.2067 22.2808 59.2606 22.0668 59.2606 21.7993V15.6609C59.2606 15.0992 59.1596 14.7181 58.9577 14.5175C58.7558 14.3035 58.4328 14.1965 57.9886 14.1965C57.6387 14.1965 57.2955 14.2767 56.959 14.4372C56.6359 14.5843 56.2927 14.8117 55.9293 15.1193C55.9966 15.3333 56.037 15.5673 56.0504 15.8214C56.0774 16.0755 56.0908 16.3429 56.0908 16.6238V21.8194C56.1043 22.341 56.3466 22.6686 56.8176 22.8023L56.9993 22.8625V23.0631H52.3154V22.8625L52.598 22.7823C52.8538 22.702 53.0287 22.5884 53.1229 22.4413C53.2306 22.2808 53.2845 22.0668 53.2845 21.7993V15.681C53.2845 15.146 53.1835 14.7649 52.9816 14.5375C52.7932 14.3102 52.4634 14.1965 51.9923 14.1965C51.6828 14.1965 51.3732 14.2767 51.0636 14.4372C50.754 14.5843 50.431 14.805 50.0945 15.0992V21.8194C50.0945 22.341 50.3301 22.6686 50.8011 22.8023L50.9828 22.8625V23.0631H46.2383Z" fill="#3D3E45"/>
<path d="M68.9334 23.364C67.9105 23.364 67.0221 23.1567 66.2684 22.7422C65.5146 22.3142 64.9291 21.7124 64.5119 20.9367C64.1081 20.1611 63.9062 19.2517 63.9062 18.2086C63.9062 17.1654 64.1215 16.2627 64.5523 15.5004C64.9964 14.7381 65.5955 14.1497 66.3492 13.7351C67.1164 13.3205 67.9778 13.1133 68.9334 13.1133C69.889 13.1133 70.7438 13.3205 71.4976 13.7351C72.2513 14.1363 72.8434 14.7181 73.2742 15.4804C73.7183 16.2426 73.9404 17.152 73.9404 18.2086C73.9404 19.2651 73.7319 20.1811 73.3146 20.9568C72.9108 21.7191 72.332 22.3142 71.5782 22.7422C70.8379 23.1567 69.9563 23.364 68.9334 23.364ZM68.9334 22.9628C69.4045 22.9628 69.7814 22.8291 70.064 22.5616C70.3467 22.2942 70.5486 21.8194 70.6697 21.1373C70.8043 20.4553 70.8717 19.4924 70.8717 18.2487C70.8717 16.9916 70.8043 16.022 70.6697 15.3399C70.5486 14.6579 70.3467 14.1831 70.064 13.9157C69.7814 13.6482 69.4045 13.5145 68.9334 13.5145C68.4623 13.5145 68.0787 13.6482 67.7826 13.9157C67.4999 14.1831 67.2913 14.6579 67.1567 15.3399C67.0356 16.022 66.9751 16.9916 66.9751 18.2487C66.9751 19.4924 67.0356 20.4553 67.1567 21.1373C67.2913 21.8194 67.4999 22.2942 67.7826 22.5616C68.0787 22.8291 68.4623 22.9628 68.9334 22.9628Z" fill="#3D3E45"/>
<path d="M79.2249 23.3631C78.4307 23.3631 77.7174 23.1893 77.0848 22.8416C76.4522 22.4805 75.9474 21.9322 75.5706 21.1966C75.2071 20.4477 75.0254 19.4915 75.0254 18.328C75.0254 17.1511 75.2341 16.1816 75.6513 15.4193C76.0686 14.6436 76.6204 14.0686 77.3069 13.6941C77.9933 13.3063 78.7403 13.1124 79.5479 13.1124C80.019 13.1124 80.4699 13.1592 80.9006 13.2528C81.3313 13.3464 81.7149 13.4868 82.0514 13.674V11.0662C82.0514 10.7854 82.0043 10.5781 81.9101 10.4443C81.8293 10.3106 81.6476 10.217 81.365 10.1635L80.9814 10.0833V9.88265L84.6559 9L84.878 9.18054L84.7972 11.989V21.7984C84.7972 22.0659 84.8443 22.2866 84.9385 22.4604C85.0327 22.6209 85.2077 22.7346 85.4635 22.8014L85.6452 22.8616V23.0622L82.1927 23.2829L82.011 22.5607C81.6476 22.8014 81.2304 22.9954 80.7593 23.1425C80.3017 23.2896 79.7902 23.3631 79.2249 23.3631ZM80.3959 22.6209C80.9612 22.6209 81.4794 22.4537 81.9505 22.1194V14.1555C81.4525 13.8345 80.941 13.674 80.4161 13.674C79.77 13.674 79.2181 14.0485 78.7605 14.7974C78.3029 15.533 78.0741 16.6964 78.0741 18.2879C78.0741 19.8793 78.2894 21.0027 78.7201 21.658C79.1508 22.2999 79.7094 22.6209 80.3959 22.6209Z" fill="#3D3E45"/>
<path d="M91.6059 13.1133C92.4808 13.1133 93.2278 13.2938 93.847 13.6549C94.4661 14.0026 94.9372 14.484 95.2602 15.0992C95.5967 15.701 95.765 16.3898 95.765 17.1654C95.765 17.3125 95.7582 17.4663 95.7448 17.6268C95.7313 17.7739 95.7044 17.9076 95.664 18.028H89.6475C89.661 19.4723 89.9167 20.5155 90.4147 21.1574C90.9262 21.786 91.6799 22.1002 92.676 22.1002C93.3489 22.1002 93.8941 21.9933 94.3113 21.7793C94.7286 21.5653 95.1189 21.251 95.4823 20.8364L95.6842 21.017C95.267 21.7525 94.7084 22.3276 94.0085 22.7422C93.322 23.1567 92.4943 23.364 91.5252 23.364C90.5695 23.364 89.7215 23.1634 88.9813 22.7622C88.241 22.3476 87.6622 21.7592 87.245 20.9969C86.8277 20.2346 86.6191 19.3252 86.6191 18.2687C86.6191 17.1721 86.8614 16.2426 87.3459 15.4804C87.8305 14.7047 88.4496 14.1163 89.2034 13.7151C89.9706 13.3139 90.7714 13.1133 91.6059 13.1133ZM91.5453 13.5145C91.155 13.5145 90.8185 13.6348 90.5359 13.8755C90.2667 14.1029 90.0513 14.5175 89.8898 15.1193C89.7417 15.7077 89.661 16.5436 89.6475 17.6268H93.0999C93.2345 16.1691 93.1807 15.1193 92.9384 14.4773C92.6961 13.8354 92.2318 13.5145 91.5453 13.5145Z" fill="#3D3E45"/>
<path d="M96.7715 23.0631V22.8625L97.0744 22.7823C97.3436 22.702 97.5253 22.5817 97.6195 22.4212C97.7272 22.2607 97.781 22.0534 97.781 21.7993V15.5205C97.781 15.2263 97.7272 15.0123 97.6195 14.8786C97.5253 14.7314 97.3436 14.6311 97.0744 14.5776L96.7715 14.4974V14.2968L100.244 13.1333L100.446 13.3339L100.628 15.0591V15.2196C100.817 14.8451 101.059 14.5041 101.355 14.1965C101.665 13.8755 102.001 13.6148 102.364 13.4142C102.741 13.2136 103.111 13.1133 103.475 13.1133C103.986 13.1133 104.377 13.2537 104.646 13.5345C104.915 13.8154 105.05 14.1698 105.05 14.5977C105.05 15.0524 104.915 15.4068 104.646 15.6609C104.39 15.9016 104.081 16.022 103.717 16.022C103.152 16.022 102.654 15.7411 102.223 15.1795L102.183 15.1393C102.048 14.9521 101.893 14.8518 101.718 14.8384C101.543 14.8117 101.382 14.8919 101.234 15.0792C101.099 15.1995 100.985 15.3466 100.891 15.5205C100.81 15.681 100.729 15.8682 100.648 16.0822V21.679C100.648 22.2139 100.884 22.5483 101.355 22.682L102.001 22.8625V23.0631H96.7715Z" fill="#3D3E45"/>
<path d="M105.684 23.0631V22.8625L105.966 22.7823C106.438 22.6486 106.673 22.3209 106.673 21.7993V15.5205C106.673 15.2263 106.626 15.0123 106.532 14.8786C106.437 14.7314 106.256 14.6311 105.987 14.5776L105.684 14.4974V14.2968L109.136 13.1333L109.338 13.3339L109.5 14.5375C109.971 14.1229 110.502 13.7819 111.095 13.5145C111.687 13.247 112.272 13.1133 112.851 13.1133C113.739 13.1133 114.419 13.354 114.89 13.8354C115.375 14.3169 115.617 15.0524 115.617 16.042V21.8194C115.617 22.341 115.873 22.6686 116.384 22.8023L116.566 22.8625V23.0631H111.801V22.8625L112.064 22.7823C112.535 22.6352 112.77 22.3075 112.77 21.7993V15.4001C112.77 14.5442 112.34 14.1163 111.478 14.1163C110.886 14.1163 110.24 14.4105 109.54 14.9989V21.8194C109.54 22.341 109.776 22.6686 110.247 22.8023L110.428 22.8625V23.0631H105.684Z" fill="#3D3E45"/>
<path d="M46.1445 40.8374V40.6839L46.3299 40.6225C46.711 40.5201 46.9016 40.2745 46.9016 39.8856V31.5338C46.9016 31.3086 46.8604 31.1397 46.778 31.0271C46.7059 30.9145 46.5668 30.8378 46.3608 30.7968L46.1445 30.7508V30.5972L48.7712 29.7068L48.9257 29.8603L49.0648 30.3363C49.4047 30.1316 49.7807 29.9729 50.1928 29.8603C50.6151 29.7477 51.0478 29.6914 51.4907 29.6914C52.3766 29.6914 53.0771 30.0292 53.5921 30.7047C54.1175 31.37 54.3801 32.327 54.3801 33.5756C54.3801 34.8039 54.0917 35.7711 53.5149 36.4773C52.9483 37.1835 52.1448 37.5366 51.1044 37.5366C50.2906 37.5366 49.6056 37.4189 49.0494 37.1835V39.8395C49.0494 40.2489 49.2348 40.5048 49.6056 40.6071L49.8992 40.6839V40.8374H46.1445ZM50.3627 37.0914C50.8778 37.0914 51.2847 36.8253 51.5834 36.2931C51.8924 35.7608 52.047 34.8755 52.047 33.6371C52.047 32.3986 51.9027 31.5338 51.6143 31.0425C51.3259 30.541 50.9087 30.2902 50.3627 30.2902C49.9816 30.2902 49.5593 30.413 49.0957 30.6587V36.8457C49.4871 37.0095 49.9095 37.0914 50.3627 37.0914Z" fill="#3D3E45"/>
<path d="M59.0451 29.6914C59.7146 29.6914 60.2864 29.8296 60.7602 30.106C61.2341 30.3721 61.5946 30.7405 61.8418 31.2114C62.0993 31.6719 62.2281 32.199 62.2281 32.7927C62.2281 32.9053 62.223 33.023 62.2127 33.1458C62.2024 33.2584 62.1818 33.3607 62.1508 33.4528H57.5463C57.5566 34.5582 57.7523 35.3565 58.1334 35.8478C58.5249 36.3289 59.1017 36.5694 59.864 36.5694C60.3791 36.5694 60.7963 36.4875 61.1156 36.3238C61.4349 36.16 61.7337 35.9195 62.0118 35.6022L62.1663 35.7404C61.847 36.3033 61.4195 36.7434 60.8838 37.0607C60.3585 37.378 59.725 37.5366 58.9833 37.5366C58.2519 37.5366 57.6029 37.3831 57.0364 37.076C56.4698 36.7587 56.0269 36.3084 55.7075 35.725C55.3882 35.1416 55.2285 34.4456 55.2285 33.6371C55.2285 32.7978 55.414 32.0864 55.7848 31.503C56.1556 30.9094 56.6295 30.4591 57.2063 30.152C57.7935 29.845 58.4064 29.6914 59.0451 29.6914ZM58.9987 29.9985C58.7 29.9985 58.4425 30.0906 58.2261 30.2748C58.0201 30.4488 57.8553 30.7661 57.7317 31.2267C57.6184 31.677 57.5566 32.3167 57.5463 33.1458H60.1885C60.2915 32.0302 60.2503 31.2267 60.0649 30.7354C59.8795 30.2441 59.5241 29.9985 58.9987 29.9985Z" fill="#3D3E45"/>
<path d="M66.2744 37.5373C65.6666 37.5373 65.1207 37.4043 64.6365 37.1381C64.1524 36.8618 63.7661 36.4422 63.4776 35.8792C63.1995 35.3061 63.0605 34.5743 63.0605 33.6838C63.0605 32.7831 63.2201 32.0411 63.5395 31.4577C63.8588 30.8641 64.2811 30.424 64.8065 30.1374C65.3318 29.8406 65.9035 29.6921 66.5216 29.6921C66.8821 29.6921 67.2272 29.728 67.5569 29.7996C67.8865 29.8713 68.1801 29.9787 68.4376 30.122V28.1262C68.4376 27.9112 68.4016 27.7526 68.3294 27.6503C68.2676 27.5479 68.1286 27.4763 67.9123 27.4353L67.6187 27.3739V27.2204L70.431 26.5449L70.6008 26.683L70.5391 28.8324V36.3398C70.5391 36.5445 70.5752 36.7134 70.6473 36.8464C70.7194 36.9693 70.8532 37.0563 71.0489 37.1074L71.188 37.1535V37.307L68.5458 37.4759L68.4067 36.9232C68.1286 37.1074 67.8092 37.2558 67.4487 37.3684C67.0985 37.481 66.707 37.5373 66.2744 37.5373ZM67.1707 36.9693C67.6033 36.9693 67.9998 36.8413 68.3603 36.5855V30.4905C67.9792 30.2448 67.5878 30.122 67.186 30.122C66.6916 30.122 66.2692 30.4086 65.919 30.9818C65.5688 31.5447 65.3937 32.4351 65.3937 33.6531C65.3937 34.8711 65.5585 35.7308 65.8881 36.2323C66.2177 36.7236 66.6453 36.9693 67.1707 36.9693Z" fill="#3D3E45"/>
<path d="M73.7256 28.8922C73.3754 28.8922 73.0767 28.7847 72.8294 28.5698C72.5925 28.3446 72.474 28.0632 72.474 27.7254C72.474 27.3774 72.5925 27.096 72.8294 26.881C73.0767 26.6661 73.3754 26.5586 73.7256 26.5586C74.0759 26.5586 74.3694 26.6661 74.6064 26.881C74.8433 27.096 74.9618 27.3774 74.9618 27.7254C74.9618 28.0632 74.8433 28.3446 74.6064 28.5698C74.3694 28.7847 74.0759 28.8922 73.7256 28.8922ZM71.9023 37.3054V37.1519L72.1187 37.0905C72.3247 37.0291 72.4637 36.937 72.5359 36.8141C72.6183 36.6913 72.6595 36.5276 72.6595 36.3229V31.5175C72.6595 31.3026 72.6183 31.1439 72.5359 31.0416C72.4637 30.929 72.3247 30.8522 72.1187 30.8113L71.9023 30.7652V30.6117L74.73 29.7059L74.8845 29.8594L74.8381 32.0395V36.3382C74.8381 36.5429 74.8742 36.7067 74.9463 36.8295C75.0287 36.9523 75.1678 37.0444 75.3635 37.1058L75.518 37.1519V37.3054H71.9023Z" fill="#3D3E45"/>
<path d="M78.4566 37.5366C77.8592 37.5366 77.3544 37.3677 76.9424 37.03C76.5406 36.6922 76.3398 36.2061 76.3398 35.5715C76.3398 35.0904 76.587 34.6503 77.0814 34.2512C77.5759 33.8418 78.3537 33.5347 79.4146 33.33C79.5794 33.2993 79.7649 33.2686 79.9709 33.2379C80.1769 33.197 80.3932 33.156 80.6199 33.1151V31.9022C80.6199 31.2062 80.5323 30.7201 80.3572 30.4437C80.1924 30.1571 79.9297 30.0139 79.5691 30.0139C79.3219 30.0139 79.1262 30.0957 78.982 30.2595C78.8378 30.413 78.7451 30.6842 78.7039 31.0732L78.673 31.2421C78.6524 31.6822 78.5442 32.0046 78.3485 32.2093C78.1528 32.414 77.9107 32.5163 77.6222 32.5163C77.3544 32.5163 77.1329 32.4344 76.9578 32.2707C76.7827 32.1069 76.6952 31.8869 76.6952 31.6105C76.6952 31.1909 76.8394 30.8378 77.1278 30.5512C77.4265 30.2646 77.818 30.0497 78.3021 29.9064C78.7863 29.7631 79.3117 29.6914 79.8783 29.6914C80.7951 29.6914 81.5006 29.9166 81.995 30.367C82.4998 30.8071 82.7522 31.5286 82.7522 32.5317V35.9246C82.7522 36.3852 82.9685 36.6155 83.4011 36.6155H83.7411L83.8801 36.7383C83.6844 36.9839 83.4681 37.1733 83.2312 37.3063C83.0045 37.4394 82.6801 37.5059 82.2577 37.5059C81.8045 37.5059 81.4439 37.4036 81.1761 37.1989C80.9186 36.9839 80.7486 36.7025 80.6662 36.3545C80.3572 36.682 80.0378 36.9635 79.7082 37.1989C79.3889 37.424 78.9717 37.5366 78.4566 37.5366ZM79.3992 36.6001C79.6052 36.6001 79.7958 36.554 79.9709 36.4619C80.1563 36.3596 80.3726 36.2061 80.6199 36.0014V33.4221C80.5168 33.4426 80.4138 33.4631 80.3108 33.4835C80.2078 33.504 80.0894 33.5245 79.9554 33.5449C79.4816 33.6678 79.1004 33.8776 78.812 34.1744C78.5339 34.461 78.3948 34.8499 78.3948 35.3412C78.3948 35.7608 78.4927 36.0781 78.6884 36.2931C78.8841 36.4978 79.1211 36.6001 79.3992 36.6001Z" fill="#3D3E45"/>
<path d="M87.1345 37.5357C86.4752 37.5357 85.9602 37.372 85.5893 37.0444C85.2288 36.7169 85.0485 36.1949 85.0485 35.4785V30.2279H83.9824V30.0744L84.3532 30.013C84.6725 29.9413 84.9455 29.839 85.1722 29.7059C85.4091 29.5728 85.6409 29.3937 85.8675 29.1686L87.1345 27.7715H87.289L87.2427 29.9208H88.9732V30.2279H87.2272V35.7548C87.2272 36.113 87.3045 36.3843 87.459 36.5685C87.6238 36.7527 87.8298 36.8448 88.077 36.8448C88.2934 36.8448 88.4839 36.7937 88.6488 36.6913C88.8136 36.5787 88.9784 36.4303 89.1432 36.2461L89.2977 36.3996C89.0917 36.7476 88.8084 37.024 88.4479 37.2287C88.0873 37.4334 87.6496 37.5357 87.1345 37.5357Z" fill="#3D3E45"/>
<path d="M89.7812 37.3063V37.1528L90.013 37.0914C90.219 37.03 90.3581 36.9379 90.4302 36.815C90.5126 36.6922 90.5538 36.5336 90.5538 36.3391V31.5338C90.5538 31.3086 90.5126 31.1448 90.4302 31.0425C90.3581 30.9299 90.219 30.8531 90.013 30.8122L89.7812 30.7508V30.5972L92.4389 29.7068L92.5934 29.8603L92.7324 31.1806V31.3035C92.8767 31.0169 93.0621 30.7559 93.2887 30.5205C93.5256 30.2748 93.7831 30.0753 94.0613 29.9217C94.3497 29.7682 94.633 29.6914 94.9111 29.6914C95.3026 29.6914 95.6013 29.7989 95.8073 30.0139C96.0133 30.2288 96.1163 30.5 96.1163 30.8275C96.1163 31.1755 96.0133 31.4468 95.8073 31.6412C95.6116 31.8255 95.3748 31.9176 95.0965 31.9176C94.6639 31.9176 94.2828 31.7026 93.9531 31.2728L93.9222 31.2421C93.8192 31.0988 93.7007 31.022 93.5668 31.0118C93.4329 30.9913 93.3093 31.0527 93.196 31.196C93.093 31.2881 93.0054 31.4007 92.9333 31.5338C92.8715 31.6566 92.8097 31.7999 92.7479 31.9636V36.247C92.7479 36.6564 92.9282 36.9123 93.2887 37.0146L93.7832 37.1528V37.3063H89.7812Z" fill="#3D3E45"/>
<path d="M98.4561 28.8922C98.1059 28.8922 97.8071 28.7847 97.5599 28.5698C97.323 28.3446 97.2045 28.0632 97.2045 27.7254C97.2045 27.3774 97.323 27.096 97.5599 26.881C97.8071 26.6661 98.1059 26.5586 98.4561 26.5586C98.8063 26.5586 99.0999 26.6661 99.3368 26.881C99.5738 27.096 99.6922 27.3774 99.6922 27.7254C99.6922 28.0632 99.5738 28.3446 99.3368 28.5698C99.0999 28.7847 98.8063 28.8922 98.4561 28.8922ZM96.6328 37.3054V37.1519L96.8491 37.0905C97.0552 37.0291 97.1942 36.937 97.2663 36.8141C97.3487 36.6913 97.3899 36.5276 97.3899 36.3229V31.5175C97.3899 31.3026 97.3487 31.1439 97.2663 31.0416C97.1942 30.929 97.0552 30.8522 96.8491 30.8113L96.6328 30.7652V30.6117L99.4605 29.7059L99.615 29.8594L99.5686 32.0395V36.3382C99.5686 36.5429 99.6047 36.7067 99.6768 36.8295C99.7592 36.9523 99.8983 37.0444 100.094 37.1058L100.249 37.1519V37.3054H96.6328Z" fill="#3D3E45"/>
<path d="M104.764 37.5366C104.064 37.5366 103.425 37.3882 102.848 37.0914C102.282 36.7843 101.828 36.3442 101.489 35.7711C101.159 35.1877 100.994 34.4763 100.994 33.6371C100.994 32.808 101.174 32.1018 101.535 31.5184C101.906 30.9248 102.395 30.4744 103.003 30.1674C103.621 29.8501 104.296 29.6914 105.027 29.6914C105.624 29.6914 106.129 29.7887 106.541 29.9831C106.953 30.1776 107.267 30.4335 107.484 30.7508C107.7 31.0578 107.808 31.3802 107.808 31.718C107.808 32.0046 107.721 32.2297 107.546 32.3935C107.37 32.547 107.144 32.6238 106.866 32.6238C106.567 32.6238 106.325 32.5163 106.139 32.3014C105.954 32.0864 105.846 31.805 105.815 31.457C105.805 31.2318 105.81 31.0425 105.83 30.8889C105.851 30.7252 105.851 30.5614 105.83 30.3977C105.789 30.2237 105.722 30.1111 105.63 30.0599C105.547 29.9985 105.429 29.9678 105.274 29.9678C104.646 29.9678 104.157 30.239 103.806 30.7815C103.466 31.3239 103.296 32.1888 103.296 33.3761C103.296 34.4098 103.487 35.203 103.868 35.7557C104.26 36.2982 104.857 36.5694 105.66 36.5694C106.145 36.5694 106.536 36.4824 106.835 36.3084C107.134 36.1344 107.422 35.8734 107.7 35.5254L107.855 35.6482C107.597 36.2521 107.2 36.7178 106.665 37.0453C106.129 37.3729 105.496 37.5366 104.764 37.5366Z" fill="#3D3E45"/>
<path d="M111.241 37.5366C110.736 37.5366 110.283 37.4752 109.881 37.3524C109.479 37.2398 109.108 37.0965 108.768 36.9225L108.784 35.0956H108.938L109.464 36.0167C109.69 36.4261 109.938 36.7332 110.205 36.9379C110.484 37.1323 110.834 37.2296 111.256 37.2296C111.751 37.2296 112.147 37.1221 112.446 36.9072C112.755 36.682 112.909 36.3852 112.909 36.0167C112.909 35.679 112.801 35.4026 112.585 35.1877C112.369 34.9727 111.967 34.7783 111.38 34.6043L110.731 34.4047C110.102 34.2205 109.608 33.9339 109.247 33.5449C108.887 33.156 108.707 32.6801 108.707 32.1172C108.707 31.4416 108.974 30.8685 109.51 30.3977C110.046 29.9269 110.813 29.6914 111.812 29.6914C112.214 29.6914 112.59 29.7375 112.94 29.8296C113.301 29.9115 113.646 30.0394 113.976 30.2134L113.883 31.8715H113.728L113.188 30.9197C112.992 30.5819 112.796 30.3465 112.6 30.2134C112.415 30.0701 112.132 29.9985 111.751 29.9985C111.4 29.9985 111.071 30.0957 110.762 30.2902C110.453 30.4847 110.298 30.761 110.298 31.1192C110.298 31.4672 110.427 31.7436 110.684 31.9483C110.952 32.153 111.344 32.3423 111.859 32.5163L112.554 32.7159C113.296 32.9411 113.826 33.2532 114.146 33.6524C114.465 34.0413 114.625 34.5122 114.625 35.0648C114.625 35.812 114.326 36.4108 113.728 36.8611C113.141 37.3114 112.312 37.5366 111.241 37.5366Z" fill="#3D3E45"/>
<path d="M12.1152 11.1602C12.1152 11.5396 12.1568 11.8948 12.2855 12.2548C12.3741 12.5032 12.5001 12.7363 12.6478 12.9554C13.5285 14.2611 14.9666 14.3125 16.3894 14.3125H18.637C19.6427 14.3125 20.7538 14.4455 21.7215 14.1217C22.6739 13.8032 23.4491 13.0036 23.7096 12.0358C23.7819 11.767 23.862 11.4327 23.793 11.1602C23.0689 11.2199 22.3222 11.1712 21.5955 11.1712H17.4974H13.9282C13.3312 11.1707 12.7084 11.2215 12.1152 11.1602Z" fill="#575861"/>
<path d="M10.6159 19.6814C10.1967 19.8103 9.97363 20.2987 10.1144 20.7037C10.1761 20.8803 10.3106 21.0113 10.4398 21.1418C10.55 21.2523 10.7415 21.5222 10.9245 21.4771C11.061 21.4436 11.1829 21.2817 11.2751 21.1858C11.4655 20.9882 11.6459 20.7697 11.6643 20.4852C11.6991 19.9361 11.1386 19.5206 10.6159 19.6814Z" fill="#575861"/>
<path fill-rule="evenodd" clip-rule="evenodd" d="M30.0485 14.3119C29.4156 14.3141 28.7836 14.3164 28.153 14.2669C28.2798 14.433 28.4128 14.5941 28.5459 14.7552C28.7332 14.9821 28.9205 15.2088 29.0901 15.449C29.9217 16.6243 30.5893 17.9049 31.0745 19.2584C32.741 23.9055 31.7896 29.2234 28.8301 33.138C27.8381 34.4496 26.6162 35.584 25.2441 36.4947C24.9276 36.7048 24.6128 36.9133 24.2748 37.0894C24.2419 37.1064 24.2075 37.1269 24.1721 37.1481C24.0671 37.2107 23.9526 37.2791 23.8386 37.2806C23.701 37.2829 23.6421 37.1318 23.5905 36.9995C23.571 36.9494 23.5525 36.902 23.5312 36.8667C23.2807 36.4517 23.0001 36.054 22.6763 35.6914C21.7672 34.6743 20.521 34.0288 19.2069 33.7024C18.1588 33.4421 17.0584 33.4606 15.975 33.4788C15.6994 33.4834 15.4248 33.4881 15.1525 33.4881H8.67504H6.38367C6.28652 33.4881 6.18026 33.4946 6.07073 33.5013C5.81877 33.5169 5.54946 33.5334 5.3337 33.4739C5.10464 33.4106 4.90444 33.0911 4.74861 32.8424C4.70461 32.7721 4.66415 32.7076 4.62757 32.656C3.79223 31.4781 3.8803 29.7369 4.62388 28.5401C4.80792 28.2436 5.0215 27.9517 5.28202 27.7159C5.76877 27.2752 6.36046 26.9289 7.00068 26.7659C7.4597 26.6492 7.9218 26.6527 8.38959 26.6563C8.46997 26.6569 8.55053 26.6575 8.63127 26.6575H10.9669H14.9769C15.1972 26.6575 15.4187 26.6605 15.6407 26.6635C16.3319 26.6729 17.0282 26.6823 17.7092 26.6014C19.3645 26.4044 20.9893 25.6677 22.158 24.4683C22.6067 24.0077 23.0096 23.4926 23.3308 22.9362C23.7585 22.1958 24.0691 21.3721 24.212 20.528C24.3792 19.5382 24.3565 18.5067 24.3342 17.4894C24.3266 17.1426 24.3191 16.7974 24.3191 16.4561V14.7485C24.3191 14.6815 24.3149 14.6086 24.3106 14.5334C24.2995 14.3379 24.2874 14.1265 24.3449 13.9604C24.409 13.7759 24.5666 13.6153 24.7139 13.4652C24.7679 13.4102 24.8204 13.3567 24.8665 13.3039C25.2784 12.8317 25.7022 12.3674 26.1244 11.9047L26.1664 11.8587C26.218 11.8022 26.272 11.7328 26.3287 11.6599C26.476 11.4705 26.6417 11.2574 26.8325 11.1844C27.016 11.1142 27.271 11.1311 27.5009 11.1464C27.592 11.1524 27.6792 11.1582 27.7564 11.1582H29.8716H37.0542C37.0542 11.5375 37.021 11.8923 36.8913 12.2528C36.8027 12.4996 36.674 12.738 36.5237 12.9533C36.384 13.1535 36.2273 13.3453 36.0406 13.5035C35.0879 14.311 33.9816 14.311 32.7982 14.311H32.78H30.4443C30.3124 14.311 30.1804 14.3114 30.0485 14.3119ZM10.7914 29.5263C9.81002 29.6578 9.93342 31.17 10.9238 31.0595C11.9279 30.9473 11.7834 29.3932 10.7914 29.5263Z" fill="#3D3E45"/>
<path d="M5.2832 33.4885C5.89494 34.3777 6.77773 35.1322 7.61887 35.8003C10.5452 38.1257 14.4592 39.3073 18.195 38.9541C19.3747 38.8425 20.5513 38.6109 21.6761 38.2384C22.4202 37.9916 23.1142 37.64 23.8351 37.3413C23.6901 37.2014 23.6542 37.0374 23.5567 36.8671C23.4137 36.6177 23.2487 36.3725 23.0783 36.1404C22.5199 35.3806 21.7647 34.7545 20.9273 34.3211C19.0087 33.3282 16.8956 33.488 14.802 33.488L5.2832 33.4885ZM25.51 39.005H27.6252C29.0048 39.005 30.3554 38.9384 31.2234 37.6914C31.3668 37.4849 31.4987 37.2701 31.5883 37.0348C31.726 36.6748 31.795 36.2798 31.8114 35.8962H29.3877C29.0892 35.8962 28.6198 35.8077 28.3424 35.9224C28.0297 36.0524 27.7666 36.4878 27.5382 36.7278C27.1306 37.1569 26.7466 37.6086 26.3427 38.0414C26.0595 38.3458 25.7194 38.6455 25.51 39.005Z" fill="#575861"/>
</svg>
