<svg width="89" height="50" viewBox="0 0 89 50" fill="none" xmlns="http://www.w3.org/2000/svg">
<g clip-path="url(#clip0_775_28017)">
<path d="M15.5372 23.9606C15.996 22.7507 16.6514 21.7229 17.4904 20.8773C18.3294 20.0316 19.3519 19.3681 20.5317 18.8998C21.7115 18.4315 23.0355 18.1973 24.5168 18.1973C25.985 18.1973 27.3221 18.4315 28.515 18.8998C29.7079 19.3681 30.7304 20.0316 31.5694 20.8773C32.4083 21.7229 33.0638 22.7507 33.5226 23.9606C33.9814 25.1705 34.2042 26.5105 34.2042 28.0066C34.2042 29.4897 33.9814 30.8297 33.5226 32.0266C33.0638 33.2235 32.4083 34.2512 31.5694 35.0969C30.7304 35.9425 29.7079 36.593 28.515 37.0483C27.3221 37.5037 25.985 37.7248 24.5168 37.7248C23.0486 37.7248 21.7246 37.4906 20.5317 37.0483C19.3388 36.606 18.3425 35.9425 17.4904 35.0969C16.6514 34.2512 15.996 33.2235 15.5372 32.0266C15.0784 30.8297 14.8555 29.4897 14.8555 28.0066C14.8555 26.5105 15.0784 25.1705 15.5372 23.9606ZM20.2039 30.1662C20.3481 30.8687 20.5972 31.5062 20.9512 32.0656C21.3051 32.625 21.7639 33.0804 22.3407 33.4056C22.9175 33.7439 23.6385 33.913 24.5168 33.913C25.382 33.913 26.1161 33.7439 26.706 33.4056C27.2959 33.0673 27.7678 32.625 28.1217 32.0656C28.4757 31.5062 28.7247 30.8687 28.8689 30.1662C29.0131 29.4637 29.0918 28.7351 29.0918 27.9936C29.0918 27.252 29.0131 26.5235 28.8689 25.8079C28.7247 25.0924 28.4757 24.4549 28.1217 23.9085C27.7678 23.3621 27.2959 22.9068 26.706 22.5685C26.1161 22.2173 25.382 22.0481 24.5168 22.0481C23.6516 22.0481 22.9306 22.2173 22.3407 22.5685C21.7639 22.9198 21.292 23.3621 20.9512 23.9085C20.5972 24.4549 20.3481 25.0924 20.2039 25.8079C20.0597 26.5235 19.9811 27.252 19.9811 27.9936C19.9942 28.7351 20.0597 29.4637 20.2039 30.1662Z" fill="#3D3E45"/>
<path d="M42.4226 18.6929V22.1405H42.5012C42.7372 21.5681 43.0649 21.0347 43.4844 20.5403C43.8908 20.0459 44.3627 19.6296 44.9002 19.2784C45.4245 18.9271 46.0013 18.6669 46.6043 18.4718C47.2073 18.2766 47.8366 18.1855 48.492 18.1855C48.8328 18.1855 49.1999 18.2506 49.6194 18.3677V23.1032C49.3834 23.0512 49.0819 23.0121 48.7542 22.9731C48.4134 22.9341 48.0856 22.9211 47.771 22.9211C46.8272 22.9211 46.0406 23.0772 45.3852 23.3894C44.7298 23.7016 44.2054 24.131 43.8121 24.6644C43.4189 25.1978 43.1305 25.8352 42.9601 26.5508C42.7896 27.2663 42.711 28.0469 42.711 28.8795V37.2447H37.5723V18.6929H42.4226Z" fill="#3D3E45"/>
<path d="M57.4335 18.6923V21.2031H57.5121C58.1807 20.2404 59.0066 19.4989 59.9504 18.9785C60.9074 18.4581 61.9954 18.1849 63.2276 18.1849C64.4074 18.1849 65.4824 18.406 66.4655 18.8614C67.4487 19.3167 68.1828 20.1233 68.694 21.2682C69.2446 20.4486 70.0049 19.733 70.9488 19.1086C71.9057 18.4841 73.0331 18.1719 74.3309 18.1719C75.314 18.1719 76.2316 18.289 77.0837 18.5361C77.9358 18.7833 78.6568 19.1606 79.2598 19.681C79.8628 20.2144 80.3347 20.8909 80.6756 21.7495C81.0164 22.5952 81.1868 23.6229 81.1868 24.8198V37.2441H76.0481V26.7192C76.0481 26.0948 76.0219 25.5093 75.9695 24.9629C75.917 24.4165 75.7859 23.9352 75.5762 23.5319C75.3533 23.1286 75.0387 22.8033 74.6193 22.5561C74.1998 22.322 73.623 22.1919 72.902 22.1919C72.181 22.1919 71.5911 22.335 71.1454 22.6082C70.6997 22.8814 70.3458 23.2457 70.0967 23.688C69.8476 24.1303 69.6772 24.6377 69.5854 25.1971C69.5068 25.7565 69.4544 26.3289 69.4544 26.9014V37.2441H64.3157V26.8363C64.3157 26.2899 64.3026 25.7435 64.2763 25.1971C64.2501 24.6637 64.1453 24.1563 63.9748 23.701C63.7913 23.2457 63.4898 22.8814 63.0703 22.6082C62.6508 22.335 62.0216 22.1919 61.2089 22.1919C60.9729 22.1919 60.6452 22.2439 60.2519 22.348C59.8586 22.4521 59.4654 22.6602 59.0983 22.9594C58.7182 23.2587 58.4036 23.688 58.1414 24.2474C57.8792 24.8068 57.7481 25.5484 57.7481 26.459V37.2311H52.6094V18.6923H57.4335Z" fill="#3D3E45"/>
<path d="M82.1309 34.4337V33.7832H85.0149V34.4337H83.9531V37.2828H83.1796V34.4337H82.1309Z" fill="#3D3E45"/>
<path d="M86.5216 33.7832L87.3476 36.19H87.3606L88.1476 33.7832H89.2356V37.2828H88.5146V34.7979H88.5016L87.6366 37.2828H87.0336L86.1676 34.8239H86.1546V37.2828H85.4336V33.7832H86.5216Z" fill="#3D3E45"/>
<path d="M12.0511 9.02602C12.3264 9.03903 12.7197 9.07806 13.2047 9.11709V13.5404C12.9032 13.5014 12.3789 13.4753 11.6579 13.4493C10.9369 13.4363 10.4387 13.5924 10.1635 13.9307C9.88823 14.2689 9.75713 14.6332 9.75713 15.0495C9.75713 15.4528 9.75713 16.0382 9.75713 16.8058H13.3489V20.6307H9.74403V37.3871H4.30383V20.6307H1.23633V16.7928H4.23823V15.4658C4.23823 13.2412 4.61843 11.706 5.36563 10.8734C6.15213 9.62446 8.06603 9 11.1073 9C11.4481 9 11.7627 9.01301 12.0511 9.02602Z" fill="#3D3E45"/>
</g>
<defs>
<clipPath id="clip0_775_28017">
<rect width="88" height="50" fill="white" transform="translate(0.902344)"/>
</clipPath>
</defs>
</svg>
