<svg width="119" height="33" viewBox="0 0 119 33" fill="none" xmlns="http://www.w3.org/2000/svg">
<path d="M16.3902 6.65454C16.3902 6.96118 16.1875 7.24423 15.8582 7.24423H14.8955C14.4648 7.24423 14.2621 6.93759 14.2621 6.65454V0.922703C14.2621 0.616061 14.4648 0.333008 14.7942 0.333008H15.7569C16.1875 0.333008 16.3902 0.639649 16.3902 0.922703V6.65454Z" fill="#2B2B2B"/>
<path d="M30.476 30.4309H14.2622C14.2622 23.732 14.2622 16.8208 14.2622 10.0039H30.476V13.7544H18.2903V18.4955H30.1467V22.0573H18.2903V26.7041H30.476V30.4309Z" fill="#2B2B2B"/>
<path d="M37.1389 10.0986V30.5257H33.4401V10.0986H37.1389Z" fill="#2B2B2B"/>
<path d="M52.6181 16.1132H56.3169V30.5254H52.7194L52.5167 28.4496C51.6807 30.1244 49.2233 30.9264 47.6526 30.9264C43.0924 30.9264 39.6977 28.2609 39.6977 23.2367C39.6977 18.3069 43.1938 15.6415 47.7539 15.7358C49.7553 15.7358 51.6807 16.6322 52.6181 18.0946V16.1132ZM43.3965 23.3311C43.3965 25.9965 45.3978 27.6712 47.9566 27.6712C53.9861 27.6712 53.9861 18.8966 47.9566 18.8966C45.4232 18.8966 43.3965 20.5713 43.3965 23.3311Z" fill="#2B2B2B"/>
<path d="M64.8038 11.9854V16.1132H69.0346V19.1796H64.8038V25.4068C64.8038 26.7985 65.5384 27.4825 66.8052 27.4825C67.3372 27.4825 68.0719 27.2938 68.6039 26.9872L69.6679 30.0536C68.6039 30.5489 67.6665 30.6433 66.6025 30.6433C63.309 30.7376 61.0796 28.9686 61.0796 25.4068V19.0853H58.2169V16.1132H61.0796V12.3628L64.8038 11.9854Z" fill="#2B2B2B"/>
<path d="M75.9255 11.9858C75.9255 14.7455 71.4667 14.7455 71.4667 11.9858C71.4667 9.226 75.9255 9.32035 75.9255 11.9858ZM71.6947 16.1136V30.6201H75.5201V16.1136H71.6947Z" fill="#2B2B2B"/>
<path d="M94.1661 23.331C94.1661 27.4824 91.202 30.8319 86.1098 30.8319C81.119 30.8319 78.1549 27.4824 78.1549 23.331C78.1549 19.1795 81.119 15.8301 86.1098 15.8301C91.0753 15.8301 94.1661 19.1795 94.1661 23.331ZM82.0817 23.331C82.0817 25.5011 83.4497 27.5768 86.2111 27.5768C88.9726 27.5768 90.3406 25.5011 90.3406 23.331C90.3406 21.1609 88.7445 19.0852 86.2111 19.0852C83.4497 19.0852 82.0817 21.1609 82.0817 23.331Z" fill="#2B2B2B"/>
<path d="M108.049 30.4309V22.93C108.049 20.7599 106.783 19.0852 104.35 19.0852C102.02 19.0852 100.525 20.8543 100.525 23.1187V30.4309H96.6995V16.0188H100.094L100.424 18.0002C102.02 16.5141 103.489 15.8301 105.414 15.8301C109.012 15.8301 111.875 18.4011 111.875 22.93V30.5253L108.049 30.4309Z" fill="#2B2B2B"/>
<path d="M4.30578 12.1738C3.97643 12.1738 3.67242 11.9851 3.67242 11.6784V10.7821C3.67242 10.3811 4.00177 10.1924 4.30578 10.1924H10.3353C10.766 10.1924 11.07 10.3811 11.07 10.6877V11.5841C11.07 11.9851 10.7407 12.1738 10.4366 12.1738H4.30578Z" fill="#2B2B2B"/>
<path d="M19.4556 9.01402C19.1263 9.32066 18.8223 9.32066 18.4929 9.01402L17.6569 8.23563C17.3275 7.92898 17.3275 7.64593 17.6569 7.45723L21.7864 3.51807C22.1157 3.21143 22.4197 3.21143 22.7491 3.51807L23.5851 4.29646C23.9144 4.60311 23.9144 4.88616 23.5851 5.1928L19.4556 9.01402Z" fill="#2B2B2B"/>
<path d="M8.86592 19.8636C8.53658 20.1703 8.23257 20.1703 7.90323 19.8636L7.0672 19.0852C6.73785 18.7786 6.73785 18.4955 7.0672 18.3068L11.1967 14.3677C11.526 14.061 11.83 14.061 12.1594 14.3677L12.9954 15.1461C13.3247 15.4527 13.3247 15.7358 12.9954 16.0424L8.86592 19.8636Z" fill="#2B2B2B"/>
<path d="M7.0419 5.16839C6.71256 4.86174 6.71256 4.57869 7.0419 4.27205L7.87793 3.49365C8.20727 3.18701 8.51128 3.18701 8.71395 3.49365L12.9448 7.33846C13.2741 7.6451 13.2741 7.92816 12.9448 8.2348L12.1087 9.0132C11.7794 9.31984 11.4754 9.31984 11.146 9.0132L7.0419 5.16839Z" fill="#2B2B2B"/>
</svg>
