<svg width="121" height="50" viewBox="0 0 121 50" fill="none" xmlns="http://www.w3.org/2000/svg">
<path fill-rule="evenodd" clip-rule="evenodd" d="M2.5 32.6554V22.0013H4.69165C4.7114 22.3519 4.75747 22.7025 4.82987 23.0531C4.90226 23.3674 5.0306 23.5246 5.21489 23.5246C5.29387 23.5246 5.35968 23.508 5.41233 23.4747C5.46498 23.4415 5.54396 23.3674 5.64927 23.2526C6.10998 22.7267 6.61676 22.3292 7.16962 22.0602C7.72245 21.7912 8.35756 21.6567 9.07496 21.6567C9.88452 21.6567 10.5525 21.7958 11.079 22.0738C11.6056 22.3519 12.0367 22.769 12.3723 23.3251C12.471 23.4762 12.5517 23.579 12.6142 23.6334C12.6767 23.6878 12.7507 23.715 12.8363 23.715C12.968 23.715 13.1325 23.5972 13.33 23.3614C13.817 22.7569 14.3386 22.3217 14.8947 22.0557C15.4508 21.7897 16.1008 21.6567 16.8445 21.6567C18.1016 21.6567 19.0871 22.036 19.8012 22.7947C20.5154 23.5533 20.8724 24.6097 20.8724 25.9637V32.6554H17.8712V26.408C17.8712 25.6766 17.7034 25.1069 17.3677 24.6988C17.0321 24.2908 16.5417 24.0868 15.8967 24.0868C15.0214 24.0868 14.3402 24.4343 13.8531 25.1295C13.4056 25.7582 13.1818 26.6226 13.1818 27.7228V32.6554H10.1905V26.408C10.1905 25.6766 10.0211 25.1069 9.68209 24.6988C9.34317 24.2908 8.85117 24.0868 8.20618 24.0868C7.34402 24.0868 6.66283 24.4343 6.16263 25.1295C5.72167 25.7521 5.50118 26.6166 5.50118 27.7228V32.6554H2.5ZM29.0937 33C27.8431 33 26.7309 32.7567 25.7568 32.2701C24.7827 31.7834 24.0176 31.1125 23.4615 30.2571C22.9053 29.4018 22.6273 28.424 22.6273 27.3238C22.6273 26.2237 22.9053 25.2474 23.4615 24.3951C24.0176 23.5427 24.7827 22.8733 25.7568 22.3866C26.7309 21.9 27.8431 21.6567 29.0937 21.6567C30.3441 21.6567 31.4547 21.9 32.4256 22.3866C33.3963 22.8733 34.1598 23.5427 34.7159 24.3951C35.2721 25.2474 35.5501 26.2237 35.5501 27.3238C35.5501 28.424 35.2721 29.4018 34.7159 30.2571C34.1598 31.1125 33.3963 31.7834 32.4256 32.2701C31.4547 32.7567 30.3441 33 29.0937 33ZM29.0937 30.6425C30.1138 30.6425 30.9349 30.3357 31.5568 29.7221C32.1788 29.1086 32.4897 28.3091 32.4897 27.3238C32.4897 26.3445 32.1788 25.5481 31.5568 24.9346C30.9349 24.321 30.1138 24.0142 29.0937 24.0142C28.0735 24.0142 27.2509 24.321 26.6256 24.9346C26.0003 25.5481 25.6877 26.3445 25.6877 27.3238C25.6877 28.3091 26.0003 29.1086 26.6256 29.7221C27.2509 30.3357 28.0735 30.6425 29.0937 30.6425ZM37.4334 32.6554V22.0013H39.625L39.635 22.1067C39.6463 22.2169 39.6611 22.3411 39.6797 22.4795L39.6892 22.5499C39.7189 22.7645 39.7468 22.9382 39.7732 23.0712C39.8389 23.3735 39.964 23.5246 40.1483 23.5246C40.2799 23.5246 40.4346 23.4218 40.6123 23.2163C41.0401 22.7146 41.5485 22.3292 42.1376 22.0602C42.7266 21.7912 43.4292 21.6567 44.2453 21.6567C45.6208 21.6567 46.687 22.0376 47.4439 22.7992C48.2008 23.5608 48.5792 24.6369 48.5792 26.0272V32.6554H45.588V26.4896C45.588 25.728 45.402 25.1386 45.0302 24.7215C44.6583 24.3044 44.1203 24.0958 43.416 24.0958C42.4749 24.0958 41.741 24.4223 41.2145 25.0751C40.6945 25.7159 40.4346 26.6196 40.4346 27.7862V32.6554H37.4334ZM55.3196 33C53.9178 33 52.8352 32.6177 52.0717 31.8529C51.3082 31.0883 50.9265 30.0138 50.9265 28.6295V22.0013H53.9178V28.1671C53.9178 28.9408 54.1086 29.5332 54.4904 29.9443C54.8721 30.3553 55.4249 30.5609 56.149 30.5609C57.0965 30.5609 57.8073 30.2616 58.2814 29.6632C58.5182 29.373 58.7008 29.0149 58.8294 28.5887C58.9575 28.1625 59.022 27.6654 59.022 27.0971V22.0013H62.0133V32.6554H59.8311C59.8245 32.5164 59.8085 32.3517 59.782 32.1612C59.7555 31.9708 59.7262 31.8091 59.6931 31.6761C59.6341 31.3739 59.5121 31.2228 59.3278 31.2228C59.2555 31.2228 59.1898 31.2424 59.1302 31.2817C59.0712 31.321 58.979 31.4041 58.8537 31.5311C58.4326 32.0026 57.9359 32.3653 57.3631 32.6191C56.7908 32.873 56.1095 33 55.3196 33ZM64.627 32.6554V22.0013H66.8185C66.8384 22.3519 66.8842 22.7025 66.9565 23.0531C67.0294 23.3674 67.1574 23.5246 67.3417 23.5246C67.4206 23.5246 67.4863 23.508 67.5393 23.4747C67.5917 23.4415 67.6707 23.3674 67.7761 23.2526C68.2369 22.7267 68.7435 22.3292 69.2965 22.0602C69.8495 21.7912 70.4847 21.6567 71.2016 21.6567C72.0112 21.6567 72.6796 21.7958 73.2061 22.0738C73.7326 22.3519 74.1636 22.769 74.4992 23.3251L74.5472 23.3967C74.6244 23.5091 74.689 23.5881 74.7409 23.6334C74.8038 23.6878 74.8777 23.715 74.9633 23.715C75.0946 23.715 75.2591 23.5972 75.4567 23.3614C75.944 22.7569 76.4655 22.3217 77.0218 22.0557C77.5776 21.7897 78.2277 21.6567 78.9711 21.6567C80.2283 21.6567 81.214 22.036 81.9281 22.7947C82.6422 23.5533 82.9993 24.6097 82.9993 25.9637V32.6554H79.9981V26.408C79.9981 25.6766 79.8304 25.1069 79.4948 24.6988C79.1587 24.2908 78.6686 24.0868 78.0235 24.0868C77.1482 24.0868 76.4672 24.4343 75.9799 25.1295C75.5323 25.7582 75.3088 26.6226 75.3088 27.7228V32.6554H72.3175V26.408C72.3175 25.6766 72.1481 25.1069 71.8093 24.6988C71.4698 24.2908 70.9781 24.0868 70.333 24.0868C69.4709 24.0868 68.7899 24.4343 68.2893 25.1295C67.8484 25.7521 67.6282 26.6166 67.6282 27.7228V32.6554H64.627ZM90.9542 33C89.7494 33 88.6832 32.7642 87.7555 32.2927C86.8272 31.8212 86.0987 31.1608 85.5689 30.3115C85.0391 29.4622 84.7742 28.4754 84.7742 27.351C84.7742 26.2388 85.0418 25.2549 85.5783 24.3996C86.1147 23.5442 86.8454 22.8733 87.7704 22.3866C88.6948 21.9 89.7395 21.6567 90.9045 21.6567C92.1485 21.6567 93.218 21.891 94.1132 22.3594C95.0084 22.8279 95.696 23.4687 96.1767 24.2817C96.6568 25.0948 96.8969 26.0181 96.8969 27.0518C96.8969 27.2332 96.8886 27.4402 96.8726 27.6729L96.8638 27.7846C96.8489 27.963 96.8301 28.1026 96.8081 28.2034H87.8244C87.8901 29.0134 88.2064 29.6602 88.772 30.1438C89.3383 30.6273 90.069 30.8692 90.9636 30.8692C91.6683 30.8692 92.2605 30.7332 92.7407 30.4611C93.2214 30.1891 93.5437 29.8143 93.7081 29.3368H96.69C96.4068 30.4551 95.7584 31.3452 94.7451 32.0071C93.7313 32.669 92.4675 33 90.9542 33ZM90.9641 23.7513C90.0949 23.7513 89.3791 23.9901 88.8167 24.4676C88.2538 24.9452 87.9266 25.5738 87.8344 26.3536H93.9554C93.909 25.5617 93.6115 24.9301 93.0619 24.4585C92.5122 23.987 91.8129 23.7513 90.9641 23.7513ZM98.8098 32.6554V22.0013H101.002C101.015 22.1524 101.036 22.3353 101.066 22.5499L101.092 22.732C101.112 22.8651 101.132 22.9781 101.15 23.0712C101.215 23.3735 101.341 23.5246 101.525 23.5246C101.656 23.5246 101.811 23.4218 101.989 23.2163C102.417 22.7146 102.925 22.3292 103.514 22.0602C104.103 21.7912 104.806 21.6567 105.622 21.6567C106.998 21.6567 108.064 22.0376 108.82 22.7992C109.578 23.5608 109.956 24.6369 109.956 26.0272V32.6554H106.964V26.4896C106.964 25.728 106.778 25.1386 106.406 24.7215C106.035 24.3044 105.497 24.0958 104.793 24.0958C103.851 24.0958 103.118 24.4223 102.591 25.0751C102.071 25.7159 101.811 26.6196 101.811 27.7862V32.6554H98.8098ZM117.446 32.7914C116.058 32.7914 115.025 32.4967 114.346 31.9074C113.669 31.318 113.33 30.3432 113.33 28.9831V24.2409H111.128V22.0013H112.441C112.889 22.0013 113.218 21.9288 113.429 21.7837C113.639 21.6386 113.787 21.418 113.873 21.1218L113.902 21.0183C113.964 20.785 114.025 20.4916 114.085 20.1379C114.154 19.7299 114.209 19.3506 114.248 19H116.262V22.0013H119.312V24.2409H116.262V28.7111C116.262 29.3881 116.407 29.8732 116.696 30.1664C116.986 30.4596 117.463 30.6062 118.128 30.6062C118.569 30.6062 119.026 30.5488 119.5 30.4339V32.5194C119.257 32.598 118.944 32.663 118.562 32.7144C118.18 32.7657 117.808 32.7914 117.446 32.7914Z" fill="#3D3E45"/>
</svg>
