<svg width="103" height="50" viewBox="0 0 103 50" fill="none" xmlns="http://www.w3.org/2000/svg">
<g clip-path="url(#clip0_775_28050)">
<path fill-rule="evenodd" clip-rule="evenodd" d="M20.0693 35.0763V34.9521C21.8111 34.2382 22.2777 33.6484 22.2777 31.4446C22.2777 30.8548 22.2465 30.1409 22.1843 29.2718L21.4379 17.1661L13.8488 35.0763H12.2936L5.26438 16.9799H5.17108L4.39348 28.9303C4.33128 29.7684 4.30018 30.4513 4.30018 31.0721C4.30018 33.3691 4.82888 34.3003 6.66398 34.9521V35.0763H0.0390625V34.9521C2.27848 34.2071 2.46508 32.8414 2.77608 28.9303L3.46038 19.5562C3.52258 18.6871 3.58478 17.9731 3.58478 17.2903C3.58478 15.552 3.11828 14.8691 1.37648 14.1242V14H8.09468L14.4086 30.203L21.2202 14H27.4407V14.1242C25.7301 14.8691 25.2324 15.583 25.2324 17.4144C25.2324 18.0352 25.2635 18.7491 25.3257 19.5251L25.9789 28.9614C26.2899 33.307 26.4143 34.083 28.5604 34.9831V35.0763H20.0693Z" fill="#3D3E45"/>
<path fill-rule="evenodd" clip-rule="evenodd" d="M38.3267 27.2846C38.0156 27.2226 37.7357 27.1915 37.4247 27.1915C35.4963 27.1915 33.4435 28.2779 33.4435 30.7611C33.4435 32.5615 34.8742 33.5237 36.3983 33.5237C37.0825 33.5237 37.7357 33.3375 38.3267 32.996V27.2846ZM44.7028 34.2376C44.1118 34.6101 41.9968 35.324 40.7527 35.324C39.5708 35.324 38.5133 34.6722 38.3578 33.3375C37.3936 34.2066 35.6829 35.4172 33.7234 35.4172C31.5151 35.4172 29.7734 33.9583 29.7734 31.7234C29.7734 29.3023 32.1372 26.9742 38.3267 26.3534V24.491C38.3267 22.0078 37.0203 20.1764 34.6876 20.1764C33.7545 20.2075 32.8525 20.4868 32.075 21.0145C33.1014 21.2318 33.91 21.9457 33.91 22.908C33.9411 23.8702 33.1636 24.6773 32.1683 24.7083C32.1372 24.7083 32.1061 24.7083 32.075 24.7083C31.0797 24.7083 30.2399 23.9013 30.2088 22.908C30.2088 20.8904 33.6301 19.1211 36.7715 19.1211C39.9129 19.1211 41.9657 20.6731 41.9657 23.9633V31.1957C41.9657 33.6789 43.0543 33.9272 44.7028 34.0824V34.2376Z" fill="#3D3E45"/>
<path fill-rule="evenodd" clip-rule="evenodd" d="M54.8421 35.0759V34.9518C56.5528 34.3309 56.8949 33.3687 56.8949 30.9165V24.2739C56.8949 22.2253 55.6197 21.1699 53.9712 21.1699C52.7893 21.232 51.6696 21.5424 50.6432 22.1322V30.9476C50.6432 33.3997 51.0164 34.362 52.7271 34.9828V35.107H44.9203V34.9828C46.662 34.362 47.0042 33.3997 47.0042 30.9476V24.7706C47.0042 22.1011 46.6931 21.4182 44.5781 20.6112V20.5181C46.5065 20.3939 48.9637 19.68 50.4255 19.1523H50.5499V21.6666C51.7007 20.5802 53.9401 19.1523 55.9929 19.1523C58.3256 19.1523 60.5028 20.487 60.5028 24.4291V30.9165C60.5028 33.3687 60.8761 34.3309 62.5556 34.9518V35.0759H54.8421Z" fill="#3D3E45"/>
<path fill-rule="evenodd" clip-rule="evenodd" d="M74.0023 32.8722C73.3492 33.7413 71.7318 35.3244 69.6168 35.3244C67.3152 35.3244 65.5423 34.1138 65.5423 30.6683V21.0769H63.334V20.9217L64.6715 20.2078C66.662 19.1214 67.8128 17.4452 69.057 15.707H69.2125V19.4939H73.2248V21.139H69.2125V30.4821C69.2125 32.1893 70.1456 33.2757 71.7318 33.2757C72.4783 33.2757 73.2247 33.0895 73.8779 32.6859L74.0023 32.8722Z" fill="#3D3E45"/>
<path fill-rule="evenodd" clip-rule="evenodd" d="M81.592 21.2629C81.5609 20.1144 82.494 19.1521 83.6759 19.1211C84.8578 19.1521 85.7909 20.0833 85.7598 21.2629C85.7598 22.4113 84.8578 23.3736 83.707 23.3736H83.6759C82.5251 23.3736 81.592 22.4734 81.592 21.3249C81.592 21.3249 81.592 21.2939 81.592 21.2629ZM74.5627 35.0757V34.9516C76.2734 34.3308 76.6155 33.3685 76.6155 30.9163V24.7704C76.6155 22.1009 76.3045 21.4181 74.1895 20.611V20.5179C76.1801 20.3937 78.6683 19.6798 80.1302 19.1521H80.2546V30.9474C80.2546 33.3996 80.6278 34.3308 82.6806 34.9826V35.1068L74.5627 35.0757Z" fill="#3D3E45"/>
<path fill-rule="evenodd" clip-rule="evenodd" d="M94.7802 27.2846C94.4692 27.2226 94.1892 27.1915 93.8782 27.1915C91.9802 27.1915 89.8968 28.2779 89.8968 30.7611C89.8968 32.5615 91.3272 33.5237 92.8512 33.5237C93.5362 33.5237 94.1892 33.3375 94.7802 32.996V27.2846ZM101.156 34.2376C100.534 34.6101 98.4502 35.324 97.2062 35.324C96.0242 35.324 94.9662 34.6722 94.8112 33.3375C93.8472 34.2066 92.1362 35.4172 90.1767 35.4172C87.9684 35.4172 86.2266 33.9583 86.2266 31.7234C86.2266 29.3023 88.5904 26.9742 94.7802 26.3534V24.491C94.7802 22.0078 93.4732 20.1764 91.1412 20.1764C90.2078 20.2075 89.3058 20.4868 88.5282 21.0145C89.5546 21.2318 90.3633 21.9457 90.3633 22.908C90.3944 23.8702 89.6168 24.6773 88.6215 24.7083C88.5904 24.7083 88.5593 24.7083 88.5282 24.7083C87.5329 24.7083 86.6932 23.9013 86.6621 22.908C86.6621 20.8904 90.0834 19.1211 93.2252 19.1211C96.3662 19.1211 98.4192 20.6731 98.4192 23.9633V31.1957C98.4192 33.6789 99.5072 33.9272 101.156 34.0824V34.2376Z" fill="#3D3E45"/>
</g>
<defs>
<clipPath id="clip0_775_28050">
<rect width="102" height="50" fill="white" transform="translate(0.0976562)"/>
</clipPath>
</defs>
</svg>
