<svg width="111" height="50" viewBox="0 0 111 50" fill="none" xmlns="http://www.w3.org/2000/svg">
<g clip-path="url(#clip0_775_28110)">
<path d="M50.834 18.0859H54.1968C54.7162 21.5319 55.2335 24.9669 55.749 28.3911L55.8213 28.3845C56.3448 24.9533 56.8689 21.5185 57.3933 18.0801H60.7643V35.8804H58.1695V26.1069L58.0879 26.0987C57.9599 26.8642 57.829 27.6289 57.7072 28.396C57.3134 30.7827 56.9173 33.1687 56.5364 35.5579C56.4945 35.8181 56.4245 35.9238 56.1701 35.9066C55.8274 35.8845 55.4847 35.9009 55.1038 35.9009C54.5631 32.5775 54.0238 29.2649 53.4861 25.9633L53.4243 25.9707V35.8738H50.834V18.0859Z" fill="#3D3E45"/>
<path d="M107.814 27.9517V18.0822H110.41V35.8734H107.802C106.883 32.5505 105.963 29.2245 105.042 25.8956L104.982 25.9087V35.8669H102.385V18.0625C103.216 18.0625 104.026 18.0526 104.837 18.0773C104.918 18.0773 105.032 18.2791 105.065 18.4054C105.779 20.9522 106.487 23.5011 107.19 26.0523C107.368 26.6939 107.546 27.3355 107.723 27.9771L107.814 27.9517Z" fill="#3D3E45"/>
<path d="M70.8359 35.8884V18.1103C70.8722 18.0902 70.9112 18.0761 70.9516 18.0684C72.5161 18.0914 74.082 18.0783 75.644 18.1579C76.5825 18.2055 77.4637 18.5181 78.0814 19.3746C78.5185 19.9834 78.6907 20.7022 78.7668 21.4439C78.8223 21.9707 78.85 22.5005 78.8499 23.0307C78.8582 25.6685 78.8811 28.308 78.8384 30.945C78.8236 31.8563 78.7133 32.763 78.5094 33.6477C78.2527 34.7577 77.4873 35.4034 76.4629 35.6528C75.96 35.7824 75.4463 35.8577 74.9296 35.8777C73.5762 35.9081 72.2213 35.8884 70.8359 35.8884ZM73.7765 20.4692V33.5148C74.0051 33.5148 74.2145 33.5148 74.4224 33.5148C74.5825 33.5164 74.7424 33.5074 74.9014 33.4877C75.4301 33.4056 75.7347 33.0774 75.8048 32.4982C75.8391 32.1823 75.8544 31.8644 75.8505 31.5464C75.8536 28.4981 75.8536 25.4503 75.8505 22.403C75.854 22.085 75.8385 21.7671 75.804 21.4513C75.7279 20.8548 75.4407 20.5291 74.9023 20.4749C74.5382 20.4388 74.1681 20.4692 73.7765 20.4692Z" fill="#3D3E45"/>
<path d="M22.6621 35.8747V18.1155C22.6934 18.0941 22.728 18.0789 22.7643 18.0703C24.3911 18.0933 26.0187 18.0703 27.6425 18.1524C29.1301 18.227 30.0318 18.9868 30.3959 20.3554C30.5195 20.7866 30.5871 21.2342 30.5969 21.6854C30.5969 22.7692 30.5969 23.8596 30.4866 24.9336C30.3761 26.0076 29.8232 26.8289 28.8581 27.2654C28.8018 27.2908 28.7485 27.3245 28.6944 27.3548C28.6763 27.3726 28.6594 27.3918 28.6442 27.4123C28.6789 27.4345 28.7147 27.4548 28.7514 27.473C29.9268 27.9653 30.5101 28.9597 30.5909 30.2536C30.6732 31.5745 30.6297 32.9037 30.6579 34.2287C30.6694 34.7662 30.7257 35.3028 30.7637 35.8755C30.695 35.8873 30.6255 35.8942 30.5558 35.8961C29.7546 35.8961 28.9564 35.887 28.1521 35.9034C27.9054 35.9083 27.7712 35.8099 27.7492 35.5605C27.7073 35.1002 27.66 34.6383 27.6547 34.1762C27.6418 32.9964 27.6547 31.8158 27.6487 30.636C27.6516 30.3838 27.6404 30.1318 27.6152 29.8811C27.5336 29.1878 27.1071 28.7595 26.462 28.7209C26.1817 28.7045 25.8991 28.7209 25.5778 28.7209V35.8747H22.6621ZM25.5884 26.3276C25.9121 26.3276 26.2175 26.3465 26.5199 26.3235C27.149 26.2751 27.5657 25.919 27.5923 25.2413C27.6425 23.9614 27.6258 22.6765 27.5984 21.3949C27.5892 21.0044 27.4148 20.6081 27.0066 20.5326C26.545 20.4505 26.0682 20.4505 25.5884 20.4202V26.3276Z" fill="#3D3E45"/>
<path d="M9.07031 18.0801H11.976V25.663H14.0393V18.0933H16.9594V35.8804H14.0652V28.3049H11.992V35.8804H9.07031V18.0801Z" fill="#3D3E45"/>
<path d="M101.055 26.9987C101.055 28.6954 101.096 30.3938 101.039 32.0856C101.005 33.1448 100.712 34.1647 99.9937 34.9491C98.8517 36.1986 97.4177 36.2683 95.9327 35.9877C94.732 35.7613 93.8851 35.0032 93.47 33.7816C93.2521 33.144 93.0822 32.4475 93.0738 31.7747C93.0327 28.5786 93.0327 25.3826 93.0738 22.1865C93.0822 21.5138 93.2521 20.8164 93.4684 20.1788C93.8835 18.9572 94.7282 18.1966 95.9287 17.9685C97.4127 17.6871 98.8477 17.7552 99.9917 19.0031C100.711 19.7866 101.005 20.8082 101.04 21.8657C101.097 23.5764 101.055 25.288 101.055 26.9987ZM98.0937 26.9839H98.1137C98.1137 25.4077 98.1187 23.8308 98.1137 22.2546C98.1177 21.8968 98.0877 21.5395 98.0257 21.188C97.9207 20.6408 97.5917 20.3881 97.0717 20.3872C96.5527 20.3864 96.2177 20.6523 96.1067 21.1815C96.0547 21.4397 96.0297 21.7033 96.0307 21.9675C96.0247 25.28 96.0247 28.5917 96.0307 31.9026C96.0307 32.206 96.0597 32.5086 96.1187 32.8051C96.1487 32.9898 96.2317 33.1597 96.3567 33.2904C96.4817 33.4211 96.6417 33.506 96.8137 33.5329C97.5677 33.6929 98.0807 33.2704 98.0927 32.3842C98.1107 30.5866 98.0937 28.7856 98.0937 26.9839Z" fill="#3D3E45"/>
<path d="M66.7928 32.8437H64.8185C64.7302 33.8596 64.6441 34.8565 64.5565 35.8796H61.5664C62.2976 29.9368 63.0256 24.0187 63.7553 18.0859H67.8347C68.5629 24.0081 69.2909 29.9254 70.023 35.8746H67.0525C66.9681 34.8726 66.8817 33.8623 66.7928 32.8437ZM65.8353 21.2234H65.7752C65.5284 24.2044 65.2817 27.1893 65.0348 30.178H66.5795C66.3297 27.1727 66.0822 24.1976 65.8353 21.2234Z" fill="#3D3E45"/>
<path d="M84.0513 29.7103C84.7208 29.7103 85.3583 29.7103 85.9958 29.7103C86.3255 29.7103 86.7947 29.6004 86.9501 29.7842C87.1276 29.9959 87.037 30.4775 87.0468 30.8426C87.0621 31.3989 87.0408 31.9576 87.0765 32.5123C87.126 33.2663 87.5047 33.6108 88.1901 33.5789C88.6882 33.5576 89.0325 33.3279 89.0576 32.7936C89.1047 31.8728 89.0851 30.9495 88.999 30.0319C88.9411 29.4346 88.5115 29.0137 88.0796 28.6371C87.3317 27.9881 86.5686 27.3556 85.8526 26.668C84.081 24.9647 83.7405 22.8191 84.356 20.4627C84.781 18.8357 85.9683 17.9472 87.7377 17.8561C88.3397 17.8327 88.9418 17.8995 89.5268 18.0546C90.6967 18.3549 91.4515 19.1844 91.8209 20.4102C92.1339 21.4498 92.0889 22.5229 92.0745 23.6248H89.1041C89.1041 23.126 89.1177 22.6403 89.0995 22.1546C89.0858 21.7862 89.0728 21.4071 88.9837 21.0551C88.8512 20.5333 88.5153 20.3413 87.9533 20.3749C87.4681 20.4037 87.1717 20.617 87.139 21.1618C87.0939 21.9106 87.1125 22.6623 87.1946 23.4074C87.2525 23.9334 87.6074 24.3198 87.9982 24.6504C88.7445 25.2806 89.4818 25.923 90.2161 26.5687C91.6205 27.7994 92.1918 29.4232 92.1331 31.3414C92.1027 32.326 92.0052 33.2967 91.5779 34.1934C91.4057 34.5696 91.1664 34.9054 90.8737 35.182C90.5809 35.4585 90.2405 35.6701 89.8718 35.8048C88.8416 36.196 87.7242 36.2344 86.6729 35.9148C85.6576 35.6153 84.9501 34.9302 84.5319 33.8898C83.9965 32.5673 84.0285 31.1675 84.0513 29.7103Z" fill="#3D3E45"/>
<path d="M37.9141 18.081H40.8891C41.3364 20.5862 41.7833 23.0895 42.2296 25.5908H42.2913L43.1291 20.8206C43.2754 19.9878 43.4155 19.1542 43.5777 18.3247C43.5968 18.2246 43.7301 18.0785 43.8162 18.0785C44.7301 18.0605 45.6387 18.0679 46.584 18.0679C46.5558 18.2205 46.5398 18.346 46.5079 18.4674C45.6151 22.0611 44.7232 25.6556 43.8322 29.251C43.7645 29.5318 43.7306 29.8207 43.7308 30.1108C43.7217 32.0201 43.7262 33.9293 43.7262 35.8713H40.7886V35.4209C40.7886 33.7636 40.8046 32.1054 40.7795 30.448C40.7738 29.9073 40.7075 29.3693 40.5821 28.8457C39.7314 25.3767 38.8555 21.9143 37.9887 18.4494C37.9606 18.3329 37.9416 18.2172 37.9141 18.081Z" fill="#3D3E45"/>
<path d="M8.13069 20.6922H5.79319V35.8792H2.85329V20.7004H0.492188V18.0938H8.13069V20.6922Z" fill="#3D3E45"/>
<path d="M36.3148 35.8868H33.3931V20.6957H31.0176V18.0898H38.6424V20.6719H36.3148V35.8868Z" fill="#3D3E45"/>
<path d="M83.0459 35.8844H80.1348V18.0652C81.0602 18.0652 81.9796 18.0595 82.8997 18.08C82.9613 18.08 83.0687 18.2818 83.071 18.3918C83.0854 19.1605 83.0801 19.9293 83.0786 20.6981C83.0679 24.7546 83.0571 28.811 83.0459 32.8675C83.0397 33.8585 83.0459 34.8506 83.0459 35.8844Z" fill="#3D3E45"/>
<path d="M21.2617 35.8797H18.3477V18.0918H21.2617V35.8797Z" fill="#3D3E45"/>
</g>
<defs>
<clipPath id="clip0_775_28110">
<rect width="110" height="50" fill="white" transform="translate(0.5)"/>
</clipPath>
</defs>
</svg>
