<svg width="121" height="50" viewBox="0 0 121 50" fill="none" xmlns="http://www.w3.org/2000/svg">
<g clip-path="url(#clip0_775_28102)">
<mask id="mask0_775_28102" style="mask-type:luminance" maskUnits="userSpaceOnUse" x="0" y="0" width="121" height="50">
<path d="M120.5 0H0.5V50H120.5V0Z" fill="white"/>
</mask>
<g mask="url(#mask0_775_28102)">
<path d="M47.7375 19.4219C49.4037 19.5902 49.8868 20.023 49.8868 21.2011V32.3336L40.5887 19.0853H36.8211V19.4219C38.4634 19.5181 38.9707 19.9749 38.9707 21.1771V33.9926C38.9707 35.1708 38.4634 35.6036 36.7969 35.7719V36.1085H41.8204V35.7719C40.1539 35.6036 39.6468 35.1708 39.6468 33.9926V21.5618L50.0318 36.1085H50.5631V21.2011C50.5631 20.023 51.0945 19.5902 52.7607 19.4219V19.0853H47.7375V19.4219ZM59.3565 36.4692C62.81 36.4692 65.1769 33.8002 65.1769 29.8089C65.1769 26.1783 62.9068 23.7017 59.5738 23.7017C56.1445 23.7017 53.7777 26.3947 53.7777 30.3379C53.7777 33.9926 56.0478 36.4692 59.3565 36.4692ZM59.9121 35.7958C57.497 35.7958 55.8787 32.3336 55.8787 28.8712C55.8787 26.2504 57.1347 24.375 59.0184 24.375C61.4335 24.375 63.0758 27.8373 63.0758 31.3237C63.0758 33.9204 61.7958 35.7958 59.9121 35.7958ZM79.0739 34.5696C78.7598 35.1227 78.4218 35.3632 78.0835 35.3632C77.6729 35.3632 77.3591 35.0025 77.3591 34.4013V23.7017H77.0208L73.6881 24.8318V25.1684C74.8957 24.952 75.3786 25.1925 75.3786 26.4908V33.079C74.2677 34.3291 73.4225 34.9064 72.1906 34.9064C70.6692 34.9064 69.7032 34.0167 69.7032 32.2374V23.7017H69.365L66.0322 24.8318V25.1684C67.2397 24.952 67.6987 25.1925 67.6987 26.4908V32.4778C67.6987 34.9064 68.9304 36.4692 71.2005 36.4692C72.722 36.4692 74.0021 35.4834 75.3786 33.6799V34.4013C75.3786 35.7958 76.3447 36.4692 77.2624 36.4692C77.7937 36.4692 78.7116 36.1806 79.3637 34.6898L79.0739 34.5696ZM87.306 23.7017C85.9295 23.7017 84.6494 24.7837 84.1665 26.8515V23.7017H83.8282L80.4713 24.8318V25.1684C81.6789 24.952 82.162 25.1925 82.162 26.4908V34.3052C82.162 35.3632 81.3891 35.6036 80.423 35.7719V36.1085H86.5091V35.7719C84.8909 35.6036 84.1665 35.3632 84.1665 34.3052V28.6789C84.1665 26.7313 85.2532 25.2646 86.4849 25.2646C87.4027 25.2646 87.3785 26.0581 88.2479 26.0581C88.8035 26.0581 89.1658 25.6012 89.1658 25.0001C89.1658 24.2067 88.4654 23.7017 87.306 23.7017ZM92.5843 21.8744C93.4297 21.8744 94.0575 21.2492 94.0575 20.4317C94.0575 19.6142 93.4297 18.9891 92.5843 18.9891C91.7149 18.9891 91.0628 19.6142 91.0628 20.4317C91.0628 21.2492 91.7149 21.8744 92.5843 21.8744ZM93.5987 23.7017H93.2606L89.9279 24.8318V25.1684C91.1353 24.952 91.5942 25.1925 91.5942 26.4908V34.233C91.5942 35.2188 91.1836 35.6036 89.9279 35.7719V36.1085H95.2652V35.7719C94.0092 35.6036 93.5987 35.2188 93.5987 34.233V23.7017ZM101.361 36.445C103.97 36.445 105.515 34.8822 105.515 32.9346C105.515 28.1499 98.5362 29.5204 98.5362 26.3706C98.5362 25.1684 99.5263 24.375 100.83 24.375C102.545 24.375 103.97 25.5291 104.791 27.4286H105.129L104.525 23.7017H104.187C104.163 25.6012 103.076 23.7017 100.733 23.7017C98.5602 23.7017 96.918 25.0242 96.918 27.0439C96.918 31.468 103.897 30.1215 103.897 33.608C103.897 34.9303 102.81 35.7719 101.337 35.7719C99.6471 35.7719 97.9566 34.5696 97.1353 32.4057H96.7972L97.4253 36.4692H97.7633C97.9081 34.5215 98.8743 36.445 101.361 36.445ZM118.354 27.7652C118.354 25.2646 117.098 23.7017 114.852 23.7017C113.33 23.7017 111.978 24.7356 110.674 26.5149V18.7246H110.336L107.003 19.8547V20.1913C108.21 19.9989 108.669 20.2394 108.669 21.5137V34.233C108.669 35.2188 108.259 35.6036 107.003 35.7719V36.1085H112.34V35.7719C111.084 35.6036 110.674 35.2188 110.674 34.233V27.116C111.785 25.8417 112.823 25.1203 114.055 25.1203C115.528 25.1203 116.349 26.1061 116.349 27.8613V34.233C116.349 35.2188 115.939 35.6036 114.683 35.7719V36.1085H120.02V35.7719C118.764 35.6036 118.354 35.2188 118.354 34.233V27.7652Z" fill="#3D3E45"/>
<path fill-rule="evenodd" clip-rule="evenodd" d="M27.4768 26.478C27.4768 33.9455 21.3963 39.999 13.8957 39.999C6.39496 39.999 0.314453 33.9455 0.314453 26.478C0.314453 19.0106 6.39496 12.957 13.8957 12.957C21.3963 12.957 27.4768 19.0106 27.4768 26.478ZM14.3839 26.9644C14.3839 29.9729 11.9342 32.4117 8.91237 32.4117C5.89051 32.4117 3.44081 29.9729 3.44081 26.9644C3.44081 23.9559 5.89051 21.5171 8.91237 21.5171C11.9342 21.5171 14.3839 23.9559 14.3839 26.9644ZM18.4877 25.9917C20.7541 25.9917 22.5914 24.1626 22.5914 21.9062C22.5914 19.6499 20.7541 17.8207 18.4877 17.8207C16.2213 17.8207 14.384 19.6499 14.384 21.9062C14.384 24.1626 16.2213 25.9917 18.4877 25.9917ZM21.8097 30.6608C21.8097 32.7023 20.1474 34.3572 18.0969 34.3572C16.0463 34.3572 14.384 32.7023 14.384 30.6608C14.384 28.6194 16.0463 26.9644 18.0969 26.9644C20.1474 26.9644 21.8097 28.6194 21.8097 30.6608Z" fill="#3D3E45"/>
</g>
</g>
<defs>
<clipPath id="clip0_775_28102">
<rect width="120" height="50" fill="white" transform="translate(0.5)"/>
</clipPath>
</defs>
</svg>
