<svg width="84" height="50" viewBox="0 0 84 50" fill="none" xmlns="http://www.w3.org/2000/svg">
<g clip-path="url(#clip0_775_27974)">
<path d="M52.5444 33.9285V24.653C52.5444 21.3164 50.642 19.4805 47.0276 19.4805C43.1351 19.4805 40.3547 21.4761 39.8133 25.4991H43.1351C43.4278 21.7794 44.8472 19.9435 47.0715 19.9435C48.9738 19.9435 50.2323 21.2046 50.2323 23.3918C50.2323 26.026 48.4323 27.0158 46.3691 27.7502C43.3692 28.8358 39.5645 29.2668 39.5645 33.4017C39.5645 36.0039 41.1157 37.9037 43.7497 37.9037C45.5203 37.9037 47.8763 37.0576 49.8079 34.4234C49.9689 36.6106 50.8469 37.9037 52.5736 37.9037C53.4809 37.9037 54.476 37.5844 55.3101 36.9937V36.3551C54.9881 36.5308 54.5637 36.6425 54.1833 36.6425C52.998 36.6265 52.5444 35.5409 52.5444 33.9285ZM49.5884 33.9285C48.8128 35.2695 47.2032 36.2115 45.7545 36.2115C43.8521 36.2115 42.7839 34.6309 42.7839 32.3161C42.7839 29.3945 44.5838 29.0114 46.5593 28.3408C47.7153 27.9577 48.7543 27.5746 49.5884 26.6806V33.9285Z" fill="#3D3E45"/>
<path d="M82.4253 36.6265C81.2249 36.6265 80.7863 35.5409 80.7863 33.9126V24.653C80.7863 21.3164 78.8839 19.4805 75.2693 19.4805C71.3766 19.4805 68.5965 21.4761 68.0548 25.4991H71.3766C71.6694 21.7794 73.0888 19.9435 75.3132 19.9435C77.2157 19.9435 78.474 21.2046 78.474 23.3918C78.474 26.026 76.674 27.0158 74.6106 27.7502C71.6109 28.8358 67.8066 29.2668 67.8066 33.4017C67.8066 36.0039 69.3577 37.9037 71.9915 37.9037C73.7621 37.9037 76.1178 37.0576 78.0495 34.4234C78.2105 36.6106 79.0888 37.9037 80.8156 37.9037C81.7226 37.9037 82.7173 37.5844 83.5523 36.9937V36.3551C83.2293 36.5308 82.8053 36.6265 82.4253 36.6265ZM77.8153 33.9285C77.04 35.2695 75.4304 36.2115 73.9817 36.2115C72.0793 36.2115 71.0113 34.6309 71.0113 32.3161C71.0113 29.3945 72.8106 29.0114 74.7862 28.3408C75.9427 27.9577 76.9815 27.5746 77.8153 26.6806V33.9285Z" fill="#3D3E45"/>
<path d="M28.4564 33.847V12.1191L23.0859 13.3963V13.8593H23.2468C24.6224 13.8593 25.5004 14.6894 25.5004 16.3019V35.3158L25.2077 37.503H30.3001V37.1038C28.6905 36.7207 28.4564 35.7309 28.4564 33.847Z" fill="#3D3E45"/>
<path d="M36.4622 33.847V12.1191L31.0918 13.3963V13.8593H31.2527C32.6282 13.8593 33.5063 14.6894 33.5063 16.3019V35.3158L33.2136 37.503H38.306V37.1038C36.6817 36.7207 36.4622 35.7309 36.4622 33.847Z" fill="#3D3E45"/>
<path d="M60.0223 25.3555V19.4805L55.0469 20.6619V21.1408H55.1494C56.4371 21.1408 57.242 21.9071 57.242 23.4238V35.3334L56.9493 37.5206H62.0418V37.1215C60.432 36.7383 60.1979 35.7485 60.1979 33.8487V25.7226C61.2368 23.3439 63.1098 22.6096 64.7048 22.6096C65.3197 22.6096 65.9632 22.7213 66.6365 22.9288V19.688C66.212 19.5763 65.7735 19.4805 65.3489 19.4805C63.3148 19.4805 61.1783 21.3802 60.0223 25.3555Z" fill="#3D3E45"/>
<path d="M20.2184 33.847V12.1191L14.8479 13.3963V13.8593H15.0089C15.1699 13.8593 15.3016 13.9072 15.4625 13.9391L16.0771 14.0987C16.121 14.1147 16.165 14.1626 16.2088 14.1786L4.58994 33.0968C2.93634 35.7468 2.67294 36.5611 0.902344 36.9282V37.3593H6.53624V36.9282C5.70214 36.8165 3.49244 36.7367 4.95574 33.7992L6.65324 31.0053H17.2478V35.3477L16.9551 37.5349H22.0476V37.1358C20.4379 36.7207 20.2184 35.7309 20.2184 33.847ZM7.04834 30.3667L16.6771 14.5777C17.0429 14.9768 17.2624 15.5515 17.2624 16.3178V30.3667H7.04834Z" fill="#3D3E45"/>
</g>
<defs>
<clipPath id="clip0_775_27974">
<rect width="83" height="50" fill="white" transform="translate(0.902344)"/>
</clipPath>
</defs>
</svg>
