<svg width="159" height="28" viewBox="0 0 159 28" fill="none" xmlns="http://www.w3.org/2000/svg">
<g clip-path="url(#clip0_775_28032)">
<path d="M28.2715 13.9405C28.2715 17.4584 26.9418 20.6565 24.7704 23.0804C23.2892 24.7299 21.4208 26.0092 19.3168 26.7835C19.2663 26.8003 19.2326 26.8171 19.1821 26.834C17.7514 27.3389 16.2029 27.6251 14.6038 27.6251C14.4523 27.6251 14.284 27.6251 14.1325 27.6251C13.1057 27.5914 12.1126 27.4399 11.1532 27.1874C8.07286 26.3963 5.41338 24.5448 3.5955 22.0705C1.89545 19.7812 0.902344 16.9703 0.902344 13.9405C0.902344 6.3828 7.02928 0.255859 14.5869 0.255859C22.1446 0.255859 28.2715 6.3828 28.2715 13.9405Z" fill="#575861"/>
<path d="M20.9999 10.9614C20.9663 10.9951 20.9326 11.0456 20.9494 11.0961C21.1683 13.1496 18.4246 14.3784 18.4246 16.0953C18.4246 18.9904 19.3672 20.6568 19.3672 24.7639C19.3672 25.4877 19.2999 26.1778 19.1821 26.8342C17.7513 27.3392 16.2028 27.6254 14.6037 27.6254C13.4086 27.6254 12.264 27.4739 11.1531 27.1877C11.3887 26.5986 11.5739 25.9926 11.7085 25.4035C11.86 24.7134 11.9442 24.0401 11.9442 23.3668C11.9442 19.933 10.2441 16.6507 10.2441 11.9377C10.2441 8.97523 13.1056 9.56437 15.5127 9.56437C16.1523 9.56437 17.3137 9.48023 17.3137 8.36929C17.3137 7.46034 18.6434 5.50781 20.5455 5.50781C22.7 5.50781 23.0872 9.31189 20.9999 10.9614Z" fill="#F8F7F3"/>
<path d="M21.3025 7.35855C20.747 7.5437 19.6361 6.53378 19.2658 6.06246C19.1984 5.97828 19.0806 5.94464 18.9628 5.97828C17.936 6.61791 17.2964 7.7457 17.2964 8.36848C17.2964 9.47939 16.135 9.56356 15.4953 9.56356C13.0883 9.56356 10.2269 8.95758 10.2269 11.9369C10.2269 16.6499 11.9269 19.949 11.9269 23.366C11.9269 24.0224 11.8428 24.7126 11.6913 25.4027C11.5566 25.9918 11.3714 26.581 11.1358 27.1869C8.05549 26.3958 5.39601 24.5443 3.57812 22.0699C7.16338 20.252 6.59109 14.6469 7.88718 10.2705C7.97136 10.0012 7.88718 9.73187 7.68519 9.54672C7.38222 9.26059 7.19707 8.83976 7.2644 8.36848C7.34853 7.79619 7.80301 7.32487 8.3753 7.24069C8.54365 7.20705 8.69512 7.22389 8.86347 7.24069C9.13275 7.29122 9.38523 7.20705 9.55358 7.00505C10.5972 5.77629 12.1289 4.90102 14.4686 4.64854C16.1182 4.46339 17.4647 4.96836 18.34 5.45648C18.3568 5.47332 18.3905 5.49016 18.4073 5.49016C18.5588 5.57434 18.7271 5.64167 18.8955 5.67531C19.1984 5.75949 19.5014 5.70896 19.7707 5.55749C19.9559 5.49016 20.141 5.38918 20.4272 5.37234C20.7302 5.3555 20.9995 5.45648 21.1846 5.54065C21.454 5.64167 21.6223 5.89415 21.6391 6.19712C21.656 6.60107 21.6223 7.25754 21.3025 7.35855Z" fill="#3D3E45"/>
<path d="M15.3453 8.7063C15.7636 8.7063 16.1028 8.36717 16.1028 7.94885C16.1028 7.53054 15.7636 7.19141 15.3453 7.19141C14.927 7.19141 14.5879 7.53054 14.5879 7.94885C14.5879 8.36717 14.927 8.7063 15.3453 8.7063Z" fill="#F8F7F3"/>
<path d="M18.7453 25.1511C18.8632 25.6897 19.0651 26.2283 19.3008 26.7838C19.2503 26.8006 19.2167 26.8175 19.1661 26.8343C17.7354 27.3393 16.1868 27.6254 14.5878 27.6254C14.4363 27.6254 14.2679 27.6254 14.1165 27.6254C13.7461 26.767 13.5273 25.8075 13.5273 24.7303C13.5273 21.9361 14.167 20.8083 14.167 18.8221C14.167 17.6607 12.2986 16.8191 12.4501 15.422C12.4501 15.3884 12.4332 15.3547 12.4164 15.3379C11.0025 14.227 11.255 11.6348 12.7194 11.6348C14.0155 11.6348 14.9244 12.9477 14.9244 13.5705C14.9244 14.3279 15.7155 14.3953 16.1532 14.3953C17.7859 14.3953 19.7384 13.9913 19.7384 16.0112C19.7384 19.2261 18.577 21.4648 18.577 23.7877C18.577 24.2253 18.6443 24.6966 18.7453 25.1511Z" fill="#575861"/>
<path d="M24.7542 23.0808C23.273 24.7303 21.4046 26.0096 19.3005 26.7839C19.0649 26.2453 18.8629 25.6898 18.7451 25.1512C18.6441 24.6798 18.5768 24.2254 18.5768 23.7709C18.5768 21.4312 19.7382 19.2094 19.7382 15.9944C19.7382 13.9745 17.7856 14.3785 16.1529 14.3785C15.7153 14.3785 14.9242 14.3112 14.9242 13.5538C14.9242 13.1161 14.4865 12.3587 13.7964 11.921C13.7291 11.9042 13.6449 11.921 13.5944 11.9883C13.3419 12.3081 12.5845 12.9983 12.2142 12.8636C12.0122 12.7963 11.9785 12.3418 11.9785 12.0389C11.9785 11.8369 12.1132 11.6685 12.2815 11.6012C12.4161 11.5507 12.5845 11.4834 12.8033 11.4834C12.9884 11.4834 13.1399 11.5507 13.2578 11.6012C13.4429 11.7022 13.6618 11.7359 13.8637 11.6854C13.9816 11.6517 14.0825 11.618 14.2004 11.5507C14.2172 11.5339 14.2341 11.5339 14.2509 11.5339C14.84 11.1972 15.7658 10.8606 16.8767 10.9952C18.4589 11.1636 19.5025 11.7695 20.2095 12.5943C20.3273 12.729 20.5125 12.7963 20.6808 12.7626C20.7818 12.7458 20.8996 12.7458 21.0006 12.7626C21.3877 12.83 21.6907 13.1498 21.7581 13.5369C21.8086 13.8567 21.6907 14.1429 21.4719 14.3448C21.3372 14.4627 21.2867 14.6647 21.3372 14.833C22.2798 18.0143 21.7749 22.1213 24.7542 23.0808Z" fill="#3D3E45"/>
<path d="M16.2706 13.7893C16.5495 13.7893 16.7756 13.5631 16.7756 13.2843C16.7756 13.0054 16.5495 12.7793 16.2706 12.7793C15.9917 12.7793 15.7656 13.0054 15.7656 13.2843C15.7656 13.5631 15.9917 13.7893 16.2706 13.7893Z" fill="#F8F7F3"/>
<path d="M91.7561 18.6265C91.5281 18.5505 91.3302 18.6113 91.1478 18.7937C90.9198 19.113 90.5702 19.3714 90.1141 19.569C89.658 19.7818 89.1717 19.873 88.6548 19.873C87.4386 19.873 86.4962 19.341 85.8272 18.2617L90.7676 15.4797C91.4061 15.1453 91.7406 14.6284 91.7406 13.9443C91.7406 13.0626 91.3302 12.2873 90.4943 11.588C89.6734 10.8887 88.5026 10.5391 86.9976 10.5391C85.3254 10.5391 83.8812 11.1167 82.6805 12.2721C81.4795 13.4274 80.8867 14.8868 80.8867 16.6806C80.8867 18.5505 81.4644 20.0707 82.6043 21.226C83.7445 22.3814 85.2193 22.959 87.0282 22.959C88.5026 22.959 89.7036 22.5334 90.631 21.6669C91.5583 20.8004 92.0449 19.9643 92.0751 19.1281C92.0751 18.8697 91.9838 18.7025 91.7561 18.6265ZM84.8848 14.37C84.8848 13.6251 85.0365 13.0018 85.3409 12.5001C85.6448 11.9985 86.0552 11.7552 86.5415 11.7552C87.1041 11.7552 87.5296 12.0441 87.8034 12.6217C88.0771 13.1994 88.2138 13.7619 88.2138 14.3091C88.2138 14.8564 88.0012 15.2821 87.5753 15.5709L85.2646 16.9695C85.0063 16.2246 84.8848 15.3581 84.8848 14.37Z" fill="#3D3E45"/>
<path d="M146.012 18.6265C145.784 18.5505 145.586 18.6113 145.404 18.7937C145.176 19.113 144.826 19.3714 144.37 19.569C143.914 19.7818 143.428 19.873 142.911 19.873C141.694 19.873 140.752 19.341 140.083 18.2617L145.024 15.4797C145.662 15.1453 145.996 14.6284 145.996 13.9443C145.996 13.0626 145.586 12.2873 144.75 11.588C143.929 10.8887 142.758 10.5391 141.253 10.5391C139.581 10.5391 138.137 11.1167 136.936 12.2721C135.735 13.4274 135.143 14.8868 135.143 16.6806C135.143 18.5505 135.72 20.0707 136.86 21.226C138 22.3814 139.475 22.959 141.284 22.959C142.758 22.959 143.96 22.5334 144.887 21.6669C145.814 20.8004 146.301 19.9643 146.331 19.1281C146.331 18.8697 146.24 18.7025 146.012 18.6265ZM139.141 14.37C139.141 13.6251 139.293 13.0018 139.597 12.5001C139.901 11.9985 140.311 11.7552 140.798 11.7552C141.36 11.7552 141.786 12.0441 142.059 12.6217C142.333 13.1994 142.47 13.7619 142.47 14.3091C142.47 14.8564 142.257 15.2821 141.831 15.5709L139.52 16.9695C139.262 16.2246 139.141 15.3581 139.141 14.37Z" fill="#3D3E45"/>
<path d="M134.488 18.6885C134.381 18.6125 134.244 18.5821 134.108 18.5973C133.956 18.6277 133.819 18.7037 133.712 18.8557C133.332 19.4638 132.785 19.7679 132.071 19.7679C131.751 19.7679 131.493 19.6462 131.28 19.403C131.067 19.1598 130.961 18.8406 130.961 18.4149V12.775C130.961 12.6078 131.098 12.4709 131.265 12.4709H133.53C133.697 12.4709 133.834 12.4101 133.94 12.3037C134.047 12.1973 134.108 12.0605 134.108 11.8933V11.3612C134.108 11.194 134.047 11.0572 133.94 10.9507C133.834 10.8443 133.697 10.7835 133.53 10.7835H131.25C131.082 10.7835 130.946 10.6467 130.946 10.4795V8.27522C130.946 7.84955 130.718 7.63672 130.277 7.63672H129.699C129.334 7.63672 129.106 7.84955 129.03 8.27522C128.863 9.0353 128.513 9.64337 127.966 10.0994C127.419 10.5555 126.765 10.7835 126.005 10.7835H125.534H122.144C121.977 10.7835 121.84 10.6467 121.84 10.4795V8.27522C121.84 7.84955 121.612 7.63672 121.171 7.63672H120.608C120.244 7.63672 120.015 7.84955 119.94 8.27522C119.772 9.0353 119.423 9.64337 118.875 10.0994C118.328 10.5555 117.675 10.7835 116.914 10.7835H116.443C116.124 10.7835 115.865 11.042 115.865 11.3612V11.9085C115.865 12.0757 115.926 12.2125 116.033 12.3189C116.139 12.4253 116.276 12.4861 116.443 12.4861H117.386V18.3693C117.386 19.8439 117.75 20.984 118.465 21.7745C119.18 22.565 120.168 22.9603 121.429 22.9603C122.706 22.9603 123.71 22.565 124.455 21.7745C125.184 20.984 125.564 20.0719 125.564 19.023C125.564 18.871 125.503 18.7645 125.397 18.6733C125.29 18.5973 125.154 18.5669 125.017 18.5821C124.865 18.6125 124.728 18.6885 124.622 18.8406C124.242 19.4486 123.694 19.7526 122.98 19.7526C122.661 19.7526 122.402 19.631 122.189 19.3878C121.977 19.1446 121.87 18.8253 121.87 18.3997V12.775C121.87 12.6078 122.007 12.4709 122.174 12.4709H125.564H126.507V18.3541C126.507 19.8286 126.872 20.9688 127.586 21.7593C128.3 22.5498 129.288 22.945 130.55 22.945C131.827 22.945 132.831 22.5498 133.576 21.7593C134.305 20.9688 134.685 20.0567 134.685 19.0078C134.655 18.8862 134.594 18.7797 134.488 18.6885Z" fill="#3D3E45"/>
<path d="M47.0017 17.4408H46.6521C46.4086 17.4408 46.1503 17.6232 45.8766 17.988C45.6183 18.3529 45.3752 18.7633 45.1622 19.2042C44.9493 19.645 44.6604 20.0555 44.2651 20.4203C43.8698 20.7852 43.4443 20.9676 42.9882 20.9676H40.4041C40.0088 20.9676 39.7045 20.8156 39.4919 20.4963C39.279 20.1771 39.1878 19.7971 39.1878 19.3562V7.78753C39.1878 7.37712 39.3702 6.96666 39.7502 6.55621C40.1304 6.14576 40.3128 5.8417 40.3128 5.64408V5.53765C40.3128 5.21841 40.1153 5.06641 39.72 5.06641H34.2472C33.852 5.06641 33.6543 5.21841 33.6543 5.53765V5.64408C33.6543 5.8417 33.8215 6.14576 34.156 6.55621C34.4904 6.96666 34.6576 7.37712 34.6576 7.78753V20.0099C34.6576 20.4203 34.4904 20.8308 34.156 21.2413C33.8215 21.6517 33.6543 21.9557 33.6543 22.1533V22.2598C33.6543 22.579 33.852 22.731 34.2472 22.731H45.968C46.4543 22.731 46.7431 22.4726 46.8345 21.9405L47.488 18.064C47.5794 17.6536 47.4122 17.4408 47.0017 17.4408Z" fill="#3D3E45"/>
<path d="M53.5692 19.9806V11.1939C53.5692 10.9355 53.4627 10.7379 53.2653 10.6162C53.0674 10.4946 52.7941 10.5098 52.4444 10.6619L48.7046 12.5013C48.3244 12.6837 48.127 12.8813 48.127 13.079V13.1854C48.127 13.3374 48.2942 13.611 48.6287 14.0215C48.9629 14.4319 49.1301 14.8424 49.1301 15.2832V19.9958C49.1301 20.4063 48.9629 20.8167 48.6287 21.2424C48.2942 21.6528 48.127 21.9569 48.127 22.1545V22.2609C48.127 22.5801 48.3244 22.7322 48.7197 22.7322H54.0559C54.4663 22.7322 54.6789 22.5801 54.6789 22.2609V22.1545C54.6789 21.9569 54.4965 21.6528 54.1167 21.2424C53.7516 20.8167 53.5692 20.3911 53.5692 19.9806Z" fill="#3D3E45"/>
<path d="M49.3264 8.62331C49.8584 9.09455 50.5425 9.33778 51.3939 9.33778C52.2148 9.33778 52.8989 9.09455 53.4309 8.62331C53.9629 8.15204 54.2211 7.55918 54.2211 6.84467C54.2211 6.13017 53.9629 5.53731 53.4309 5.06603C52.8989 4.59479 52.2148 4.35156 51.3939 4.35156C50.5425 4.35156 49.8584 4.59479 49.3264 5.06603C48.7944 5.53731 48.5357 6.13017 48.5357 6.84467C48.5206 7.55918 48.7944 8.13682 49.3264 8.62331Z" fill="#3D3E45"/>
<path d="M73.3763 18.6885C73.2698 18.6125 73.1327 18.5821 72.996 18.5973C72.8439 18.6277 72.7072 18.7037 72.6007 18.8557C72.2209 19.4638 71.6734 19.7679 70.9591 19.7679C70.6396 19.7679 70.3814 19.6462 70.1684 19.403C69.9559 19.1598 69.8494 18.8406 69.8494 18.4149V12.775C69.8494 12.6078 69.9861 12.4709 70.1533 12.4709H72.4184C72.5856 12.4709 72.7223 12.4101 72.8288 12.3037C72.9352 12.1973 72.996 12.0605 72.996 11.8933V11.3612C72.996 11.194 72.9352 11.0572 72.8288 10.9507C72.7223 10.8443 72.5856 10.7835 72.4184 10.7835H70.1382C69.971 10.7835 69.8339 10.6467 69.8339 10.4795V8.27522C69.8339 7.84955 69.6059 7.63672 69.1652 7.63672H68.5876C68.2228 7.63672 67.9948 7.84955 67.9185 8.27522C67.7513 9.0353 67.4016 9.64337 66.8545 10.0994C66.3071 10.5555 65.6535 10.7835 64.8935 10.7835H64.4223H61.0321C60.8648 10.7835 60.7281 10.6467 60.7281 10.4795V8.27522C60.7281 7.84955 60.5001 7.63672 60.0591 7.63672H59.4969C59.1318 7.63672 58.9037 7.84955 58.8278 8.27522C58.6606 9.0353 58.311 9.64337 57.7639 10.0994C57.2164 10.5555 56.5628 10.7835 55.8028 10.7835H55.3316C55.0122 10.7835 54.7539 11.042 54.7539 11.3612V11.9085C54.7539 12.0757 54.8147 12.2125 54.9212 12.3189C55.0273 12.4253 55.1643 12.4861 55.3316 12.4861H56.274V18.3693C56.274 19.8439 56.6387 20.984 57.3534 21.7745C58.0678 22.565 59.0559 22.9603 60.3177 22.9603C61.5947 22.9603 62.5978 22.565 63.3428 21.7745C64.0726 20.984 64.4525 20.0719 64.4525 19.023C64.4525 18.871 64.3917 18.7645 64.2852 18.6733C64.1791 18.5973 64.042 18.5669 63.9054 18.5821C63.7532 18.6125 63.6165 18.6885 63.51 18.8406C63.1298 19.4486 62.5827 19.7526 61.8684 19.7526C61.549 19.7526 61.2907 19.631 61.0778 19.3878C60.8648 19.1446 60.7583 18.8253 60.7583 18.3997V12.775C60.7583 12.6078 60.8954 12.4709 61.0627 12.4709H64.4525H65.3952V18.3541C65.3952 19.8286 65.76 20.9688 66.4743 21.7593C67.1891 22.5498 68.1772 22.945 69.439 22.945C70.7159 22.945 71.7191 22.5498 72.464 21.7593C73.1939 20.9688 73.5737 20.0567 73.5737 19.0078C73.5435 18.8862 73.4823 18.7797 73.3763 18.6885Z" fill="#3D3E45"/>
<path d="M79.5946 20.0096V4.54924C79.5946 4.30601 79.4881 4.10838 79.2906 3.98676C79.0777 3.86515 78.804 3.88035 78.4543 4.01717L74.6998 5.87181C74.3347 6.06943 74.1523 6.26705 74.1523 6.44945V6.55589C74.1523 6.72311 74.3196 7.01195 74.6386 7.40719C74.9581 7.81764 75.1253 8.2281 75.1253 8.66894V20.0248C75.1253 20.4352 74.9581 20.8457 74.6386 21.2561C74.3196 21.6666 74.1523 21.9706 74.1523 22.1682V22.2747C74.1523 22.5939 74.3498 22.7459 74.73 22.7459H80.0964C80.4917 22.7459 80.6892 22.5939 80.6892 22.2747V22.1682C80.6892 21.9706 80.5068 21.6666 80.1421 21.2561C79.777 20.8305 79.5946 20.42 79.5946 20.0096Z" fill="#3D3E45"/>
<path d="M107.713 4.91782C105.128 4.50737 102.909 5.00904 101.039 6.4228C99.1841 7.8366 98.0287 9.88883 97.6032 12.5948C97.1928 15.1639 97.7097 17.4138 99.1384 19.3596C100.567 21.3055 102.483 22.4608 104.87 22.8409C107.302 23.2361 109.491 22.7345 111.407 21.3663C113.322 19.9981 114.493 18.0067 114.918 15.3919C115.328 12.7924 114.827 10.4969 113.413 8.49028C112.015 6.48363 110.114 5.29788 107.713 4.91782ZM109.81 18.1283C109.628 19.2228 109.248 20.0437 108.655 20.591C108.062 21.1383 107.332 21.3359 106.451 21.1991C105.523 21.0471 104.703 20.3326 103.988 19.0708C103.273 17.7938 102.787 16.3041 102.529 14.571C102.27 12.838 102.255 11.2114 102.513 9.6456C102.696 8.50546 103.076 7.65416 103.654 7.10688C104.231 6.55963 104.961 6.36202 105.827 6.49881C106.755 6.65086 107.575 7.39572 108.29 8.74869C109.005 10.1017 109.491 11.6523 109.75 13.4005C110.023 15.1487 110.038 16.7297 109.81 18.1283Z" fill="#3D3E45"/>
<path d="M157.186 11.2384C156.76 10.7823 156.197 10.5391 155.483 10.5391C153.765 10.5391 152.625 11.36 152.047 13.0018V11.1927C152.047 10.9039 151.986 10.7215 151.85 10.6151C151.713 10.5087 151.485 10.5239 151.151 10.6455L147.654 12.2873C147.274 12.4849 147.076 12.7282 147.076 13.0018V13.0778C147.076 13.2754 147.183 13.4578 147.38 13.6251C147.578 13.7923 147.775 13.9899 147.973 14.2179C148.171 14.446 148.277 14.7348 148.277 15.0693V20.0099C148.277 20.4203 148.11 20.8308 147.775 21.2412C147.441 21.6517 147.274 21.9557 147.274 22.1533V22.2598C147.274 22.579 147.471 22.731 147.867 22.731H153.203C153.598 22.731 153.795 22.579 153.795 22.2598V22.1533C153.795 21.9557 153.583 21.6517 153.142 21.2412C152.701 20.8308 152.488 20.4203 152.488 20.0099V15.3885C152.488 13.7923 152.792 13.0018 153.4 13.0018C153.659 13.0018 153.856 13.1234 153.993 13.3666C154.13 13.6099 154.206 13.8835 154.251 14.1723C154.297 14.4764 154.449 14.7348 154.708 14.978C154.966 15.2213 155.361 15.3429 155.878 15.3429C157.155 15.3429 157.793 14.5676 157.793 13.0018C157.809 12.2873 157.611 11.6944 157.186 11.2384Z" fill="#3D3E45"/>
</g>
<defs>
<clipPath id="clip0_775_28032">
<rect width="157.196" height="27.49" fill="white" transform="translate(0.902344 0.255859)"/>
</clipPath>
</defs>
</svg>
