<svg width="82" height="50" viewBox="0 0 82 50" fill="none" xmlns="http://www.w3.org/2000/svg">
<path fill-rule="evenodd" clip-rule="evenodd" d="M67.0908 16.6123C68.0922 16.6123 68.9036 15.8039 68.9036 14.8061C68.9036 13.8084 68.0922 13 67.0908 13C66.0901 13 65.278 13.8084 65.278 14.8061C65.278 15.8039 66.0894 16.6123 67.0908 16.6123ZM69.5228 31.069C69.25 30.9011 68.9107 30.6923 68.6734 30.2326C68.4182 29.7239 68.3671 28.91 68.3679 27.6376V19.1931C68.3679 18.7353 68.1378 18.5319 67.8315 18.5319C67.6783 18.5319 67.5251 18.5827 67.346 18.6594C66.5802 18.9904 65.8655 19.1939 64.9206 19.3973C64.308 19.5241 64.2059 19.7276 64.2059 19.9819C64.2059 20.2362 64.4611 20.363 64.8185 20.4905C65.2018 20.6181 65.5081 20.7707 65.6612 21.025C65.9165 21.432 65.9165 22.0165 65.9165 23.1106V27.6384C65.9165 28.8842 65.8655 29.7239 65.6102 30.2326C65.4041 30.6432 65.0745 30.8532 64.7984 31.0291C64.5274 31.2017 64.308 31.3415 64.308 31.6059C64.308 31.962 64.6151 32.0895 64.9975 32.0895H69.261C69.6435 32.0895 69.9757 31.962 69.9757 31.6059C69.9757 31.3477 69.7785 31.2264 69.5228 31.069ZM45.3152 27.6126C45.3152 28.9352 45.3922 29.9016 45.6985 30.3852C45.9062 30.7013 46.2013 30.8896 46.4527 31.05C46.7272 31.2251 46.9497 31.3671 46.9497 31.606C46.9497 31.962 46.6183 32.0896 46.2349 32.0896H41.9465C41.5632 32.0896 41.2317 31.962 41.2317 31.606C41.2317 31.3545 41.4438 31.2213 41.7076 31.0555C41.9775 30.8859 42.3015 30.6824 42.5081 30.2835C42.7634 29.7999 42.8403 28.8843 42.8403 27.6126V23.6451C42.8403 21.407 41.6661 20.4656 40.1596 20.4656C39.3938 20.4656 38.5769 20.7449 37.9643 21.3562C36.9943 22.3226 36.7642 23.696 36.7642 27.6134C36.7642 28.9109 36.8411 29.8515 37.1215 30.3351C37.3383 30.7035 37.6505 30.9069 37.9087 31.0752C38.1679 31.244 38.3727 31.3775 38.3727 31.6068C38.3727 31.9628 38.0664 32.0904 37.6831 32.0904H33.4449C33.0615 32.0904 32.7552 31.9628 32.7552 31.6068C32.7552 31.3446 32.977 31.205 33.2481 31.0343C33.5288 30.8576 33.8625 30.6475 34.0575 30.2334C34.2876 29.7248 34.3638 28.86 34.3638 27.6134V17.1844C34.3638 16.3705 34.3379 15.9127 34.1086 15.5817C33.9138 15.2907 33.5683 15.1672 33.26 15.0571C32.9216 14.9362 32.628 14.8313 32.628 14.5386C32.628 14.2584 32.756 14.0808 33.3428 13.9532C34.2876 13.7497 35.0534 13.4954 35.7171 13.1902C35.8962 13.1135 36.0494 13.0627 36.2026 13.0627C36.5348 13.0627 36.7642 13.2912 36.7642 13.7748V20.7442C36.7642 20.8209 36.79 20.8717 36.8411 20.8717C36.8858 20.8717 36.9113 20.8328 36.9511 20.7716L36.9692 20.7442C37.7609 19.5743 39.1904 18.5311 41.1052 18.5311C42.5607 18.5311 43.76 19.1415 44.4496 20.108C45.0112 20.8709 45.3175 21.7865 45.3175 23.5676V27.6126H45.3152ZM77.9663 24.9167C77.9663 24.8658 77.9406 24.8149 77.8893 24.8149C77.8458 24.8149 77.8209 24.8336 77.7517 24.8857C77.7396 24.895 77.726 24.9052 77.711 24.9167C77.2575 25.2649 76.6016 25.5476 75.9049 25.8477C75.2275 26.1397 74.5109 26.4482 73.907 26.8496C72.9878 27.4599 72.6306 28.2488 72.6306 28.9609C72.6306 29.9782 73.3201 30.8938 74.6728 30.8938C75.6689 30.8938 76.8169 30.3343 77.4294 29.0877C77.9399 28.0195 77.9649 26.9004 77.9649 25.3486V24.9167H77.9663ZM81.5658 30.5377C81.7946 30.5377 82 30.6903 82 30.9447C82 31.4283 81.2085 32.3689 80.0848 32.3689C79.2427 32.3689 78.2979 31.8603 78.1453 30.3593C78.1453 30.3084 78.1453 30.2318 78.0939 30.2318C78.0547 30.2318 78.0455 30.2466 78.0205 30.2885C78.0127 30.301 78.0034 30.3159 77.992 30.3335C77.0729 31.7069 75.4899 32.3681 73.907 32.3681C71.4306 32.3681 69.9238 30.8422 69.9238 29.0869C69.9238 28.0696 70.4344 27.0014 71.5068 26.3143C72.319 25.7693 73.2267 25.4532 74.1308 25.1385C74.7041 24.9389 75.276 24.7397 75.8208 24.4832C76.8418 24.0253 77.9649 23.2874 77.9649 21.914C77.9649 20.6933 77.1221 19.8286 75.7438 19.8286C74.2121 19.8286 73.4207 20.8208 72.7832 21.7106C72.647 21.8996 72.5422 22.0707 72.4509 22.2202L72.4502 22.221C72.1971 22.6336 72.0459 22.8804 71.6338 22.8804C71.0213 22.8804 70.919 22.2951 70.919 21.6339C70.919 20.9726 71.0469 20.1588 71.3535 19.7769C72.0431 18.8863 74.1102 18.5303 75.5655 18.5303C78.8334 18.5303 80.519 20.3614 80.519 22.8797C80.519 23.8651 80.4998 24.9386 80.4805 26.0188V26.0201V26.0214C80.4613 27.115 80.442 28.2156 80.442 29.2387C80.442 30.1292 80.7479 30.5362 81.2584 30.5362H81.5658V30.5377ZM49.5016 23.8226C49.3485 23.8226 49.2974 23.7976 49.2974 23.67C49.2974 23.645 49.2974 23.5941 49.3226 23.3899C49.6289 21.5079 50.9311 19.7784 52.9733 19.7784C54.7861 19.7784 55.8071 21.1776 55.8071 22.3475C55.8071 23.5174 55.1434 23.8226 53.6629 23.8226H49.5016ZM52.795 32.3688C56.1905 32.3688 58.1305 30.054 58.1305 29.342C58.1305 28.9859 57.8752 28.8082 57.5697 28.809C57.3666 28.809 57.1186 28.9988 56.7871 29.2524C56.1175 29.7648 55.1067 30.5385 53.4336 30.5385C50.7269 30.5385 49.1953 28.1477 49.1953 25.4769V25.3493C49.1953 25.1717 49.2982 25.095 49.4765 25.095H56.3947C57.6459 25.0692 58.4117 24.8407 58.4117 23.2889C58.4117 21.5086 56.88 18.5326 53.2035 18.5326C49.2463 18.5326 46.5916 22.119 46.5916 25.8322C46.5916 29.3169 48.889 32.3688 52.795 32.3688ZM62.419 30.2325C62.6562 30.6922 62.9955 30.901 63.2683 31.069C63.524 31.2263 63.7213 31.3476 63.7213 31.6059C63.7213 31.9619 63.389 32.0895 63.0065 32.0895H58.7432C58.3598 32.0895 58.0535 31.9619 58.0535 31.6059C58.0535 31.3414 58.2729 31.2017 58.5439 31.029C58.82 30.8532 59.1497 30.6431 59.3558 30.2325C59.611 29.7238 59.6621 28.8841 59.6621 27.6383V17.6671C59.6621 16.5731 59.6621 15.9885 59.4068 15.5816C59.2536 15.3272 58.9474 15.1746 58.564 15.0471C58.2067 14.9195 57.9514 14.7928 57.9514 14.5384C57.9514 14.2841 58.0535 14.0806 58.6662 13.9531C59.611 13.7496 60.3258 13.5462 61.0916 13.2151C61.2707 13.1384 61.4231 13.0876 61.577 13.0876C61.8833 13.0876 62.1126 13.291 62.1126 13.7488V27.6368C62.1126 28.91 62.1637 29.7238 62.419 30.2325ZM9.40725 30.9956C5.77691 30.9956 2.83309 27.4139 2.83309 22.9964C2.83309 18.5789 5.77613 14.9971 9.40725 14.9971C13.0383 14.9971 15.9814 18.5789 15.9814 22.9964C15.9814 27.4139 13.0383 30.9956 9.40725 30.9956ZM9.40725 13.623C4.21232 13.623 0 17.8198 0 22.9964C0 28.1729 4.21232 32.369 9.40725 32.369C14.6021 32.369 18.8144 28.1722 18.8144 22.9964C18.8144 17.8206 14.6029 13.623 9.40725 13.623ZM23.1556 25.7305C23.1556 28.694 24.7783 31.0972 26.7804 31.0972C28.7825 31.0972 30.406 28.6948 30.4052 25.7305C30.4052 22.7669 28.7825 20.3638 26.7804 20.3638C24.7783 20.3638 23.1556 22.7662 23.1556 25.7305ZM23.4871 20.6681C24.5089 19.4224 26.0146 18.5318 27.6742 18.5318C30.5592 18.5318 32.9077 20.8975 32.9069 24.8157C32.9069 28.3254 30.8137 32.3696 26.8055 32.3696C25.1669 32.3696 24.0797 31.7459 23.5669 31.4517C23.4086 31.3608 23.3051 31.3015 23.2569 31.3015C23.2059 31.3015 23.1548 31.3523 23.1548 31.429V32.6247C23.1548 33.8205 23.231 34.6594 23.4611 35.143C23.6713 35.5879 24.01 35.7838 24.2892 35.9454C24.5527 36.0978 24.7634 36.2197 24.7634 36.4913C24.7634 36.8474 24.4571 37 24.0738 37H19.8364C19.453 37 19.1216 36.8724 19.1216 36.5164C19.1216 36.2527 19.3598 36.1077 19.6436 35.9349C19.9621 35.741 20.3381 35.5121 20.5 35.0412C20.6791 34.5584 20.7302 33.7188 20.7302 32.5488V22.8577C20.7302 21.9164 20.7302 21.4335 20.4749 21.0266C20.2701 20.7148 19.9348 20.5952 19.6377 20.4893C19.3047 20.3705 19.0195 20.2688 19.0195 19.9325C19.0195 19.7033 19.1475 19.5256 19.7343 19.3981C20.6783 19.1946 21.3679 18.9904 22.1337 18.6601C22.3121 18.5835 22.4911 18.5326 22.6443 18.5326C22.9506 18.5326 23.1548 18.736 23.1548 19.1938V20.5923C23.1548 20.7198 23.2059 20.7957 23.2829 20.7957C23.3339 20.7957 23.385 20.7957 23.4871 20.6681Z" fill="#3D3E45"/>
</svg>
