<svg width="260" height="60" viewBox="0 0 260 60" fill="none" xmlns="http://www.w3.org/2000/svg">
<path d="M191.872 30.4628C191.828 26.8063 191.872 23.1078 191.872 19.5353C191.916 13.4411 191.916 7.13681 191.741 0.874501V0.328125H184.791V24.7889C177.842 18.4005 168.62 17.1397 160.928 21.7208C153.935 25.8817 148.821 34.9599 153.06 45.9295C155.552 52.0657 160.928 56.2266 167.79 57.3613C169.057 57.5715 170.325 57.6976 171.592 57.6976C177.667 57.6976 183.437 55.3019 187.326 51.057C192.047 46.2237 191.959 38.7846 191.872 32.2281C191.872 31.6397 191.872 31.0512 191.872 30.4628ZM184.529 38.6164C184.267 47.1483 177.58 50.9729 171.505 50.9729C171.461 50.9729 171.461 50.9729 171.461 50.9729C167.352 50.7628 163.987 49.2918 161.671 46.644C159.66 44.3324 158.567 41.2222 158.655 37.944C158.917 29.3701 165.648 25.5034 171.854 25.5034H171.898C178.148 25.8817 184.791 30.1266 184.529 38.6164Z" fill="black"/>
<path d="M236.976 38.0689C236.889 32.9414 235.14 28.4443 231.95 25.082C229.109 22.0979 225.132 20.0385 220.761 19.282C212.675 17.895 202.142 20.9631 198.121 30.924C193.881 42.1877 199.345 51.266 206.687 55.2167C209.572 56.7718 212.85 57.6123 216.041 57.6123C217.046 57.6123 218.095 57.5283 219.1 57.3602C223.296 56.6877 227.098 54.5863 230.245 51.266V56.7297H236.845L236.889 56.2254C237.151 51.8964 237.063 47.3573 237.02 42.9863C236.976 41.3892 236.976 39.708 236.976 38.0689ZM229.721 38.195C229.764 46.8529 223.077 50.9297 216.871 51.0138C207.999 50.8457 203.934 44.3732 203.89 38.4051C203.846 29.8312 210.402 25.7124 216.565 25.5443C222.859 25.5863 229.677 29.5791 229.721 38.195Z" fill="black"/>
<path d="M265.782 19.7893C265.171 19.7893 264.559 19.7893 263.99 19.7893C262.723 19.7473 261.499 19.7473 260.275 19.8314C241.831 21.3864 242.399 36.0965 242.924 49.1255C243.011 51.6472 243.099 54.0008 243.099 56.2704V56.8168H249.917L249.961 56.3124C250.092 53.4124 250.004 50.4704 249.917 47.6125C249.698 40.2574 249.48 33.3226 253.457 29.54C255.948 27.1864 260.013 26.1357 265.826 26.3879L266.394 26.4299V19.7893H265.782Z" fill="black"/>
<path d="M147.86 28.7835C147.773 28.6153 147.423 27.9009 146.724 26.8081L146.331 26.2617L146.287 26.3038C139.949 17.94 130.378 17.8139 123.996 20.3777C116.435 23.4038 109.792 31.1791 111.846 41.8544C111.496 42.0646 110.972 42.3588 110.054 42.9052C106.426 45.0907 98.865 49.5878 95.2374 50.8907C90.5171 52.3617 85.6656 51.395 82.2128 48.3689C78.454 45.0486 77.0554 39.795 78.4103 34.3313C79.6778 29.4559 83.4803 26.0516 88.6377 25.211C93.8825 24.3284 99.0836 26.4298 101.968 30.5487L102.362 31.095L106.732 26.8501L106.426 26.4719C102.362 21.1342 95.7619 18.4023 88.6377 19.1168C81.4698 19.8733 75.3508 24.0762 72.641 30.0443C69.0571 38.4081 70.849 47.066 77.3176 52.6979C81.0327 55.9341 85.6656 57.5733 90.4734 57.5733C93.664 57.5733 96.942 56.8588 100.001 55.3457L100.045 55.3878L113.9 47.8226C117.047 53.4965 123.035 57.1109 130.159 57.4892C137.283 57.8675 143.708 54.8414 147.292 49.4196L147.554 49.0414L143.227 44.9646L142.834 45.511C140.212 49.3356 136.234 51.437 131.601 51.437C126.444 51.437 122.117 48.8733 119.975 44.5023L148.166 29.1617L147.86 28.7835ZM138.944 27.1023L118.533 38.1979C118.489 32.8603 121.068 28.5733 125.57 26.3458C127.449 25.4211 129.503 24.9588 131.558 24.9588C134.136 24.9588 136.715 25.6733 138.944 27.1023Z" fill="black"/>
<path d="M24.3009 16.4691C22.946 15.1241 21.4163 13.9053 19.7991 12.7705C21.3289 9.36617 23.689 6.29806 26.8359 3.81836C29.9828 6.29806 32.3867 9.36617 33.9164 12.7705C32.2556 13.8633 30.7695 15.0821 29.4146 16.4691C29.0213 16.1749 28.6716 15.8807 28.2782 15.5864L26.8796 14.6198L25.481 15.5864C25.0439 15.8386 24.6943 16.1749 24.3009 16.4691ZM13.0246 13.6951C10.6644 16.8473 9.26582 20.4198 8.78505 24.0763C11.1889 24.9589 13.418 26.1357 15.4722 27.4806C16.7834 24.4545 18.7065 21.6806 21.1103 19.243C18.8813 16.9734 16.1278 15.0821 13.0246 13.6951ZM23.9513 36.2226C24.5632 35.8864 25.1751 35.5922 25.787 35.298L26.8359 34.8357L27.8849 35.298C28.4968 35.5922 29.1087 35.8864 29.7206 36.2226C31.0755 34.0792 32.6489 32.1038 34.572 30.3806C33.1297 26.3458 30.5073 22.6473 26.8359 19.7893C23.2083 22.6473 20.5422 26.3038 19.1435 30.3386C21.0229 32.0618 22.6401 34.0371 23.9513 36.2226ZM44.8868 24.0763C44.406 20.4198 43.0074 16.8473 40.6472 13.6951C37.5004 15.0821 34.7905 16.9734 32.5615 19.243C34.9654 21.6806 36.8885 24.4966 38.1997 27.4806C40.2539 26.1357 42.4829 25.0009 44.8868 24.0763ZM33.3919 38.5342C35.4461 40.0052 37.2381 41.7284 38.8116 43.6618C42.3518 41.6023 46.2417 40.2574 50.3501 39.5849C50.525 35.4241 49.4323 31.3053 47.1595 27.5647C41.1717 29.6661 36.3203 33.5328 33.3919 38.5342ZM20.3236 38.5342C17.3516 33.5328 12.5001 29.6661 6.55601 27.5647C4.23955 31.3053 3.19059 35.4241 3.32171 39.5429C7.43014 40.2154 11.3637 41.5603 14.8603 43.6197C16.4337 41.7284 18.2694 40.0052 20.3236 38.5342ZM29.065 64.8443C42.0896 63.8776 52.5355 54.6733 53.6718 43.1574C48.5582 43.5357 43.7067 45.2168 39.5983 48.0328L37.6315 49.3777L36.3203 47.4864C33.9601 44.082 30.6821 41.2661 26.8359 39.2907C22.9897 41.2661 19.7117 44.082 17.3516 47.4864L16.0404 49.3777L14.0736 48.0328C9.92142 45.2168 5.11368 43.5357 0 43.1574C1.13637 54.7154 11.5823 63.8776 24.6069 64.8443H29.065Z" fill="black"/>
</svg>
