<svg width="166" height="20" viewBox="0 0 166 20" fill="none" xmlns="http://www.w3.org/2000/svg">
<g clip-path="url(#clip0_3521_6356)">
<path d="M95.4291 5.04031C94.4983 5.05103 93.5821 5.27393 92.7504 5.69199C92.3324 5.88889 91.9468 6.14802 91.6066 6.46053V0.674017C91.6066 0.554819 91.5592 0.440502 91.4749 0.356217C91.3906 0.271929 91.2762 0.224579 91.1571 0.224579H88.1819C88.0628 0.224579 87.9484 0.271929 87.8641 0.356217C87.7798 0.440502 87.7324 0.554819 87.7324 0.674017V19.2628C87.7324 19.382 87.7798 19.4963 87.8641 19.5806C87.9484 19.6649 88.0628 19.7122 88.1819 19.7122H91.1571C91.2762 19.7122 91.3906 19.6649 91.4749 19.5806C91.5592 19.4963 91.6066 19.382 91.6066 19.2628V12.0156C91.6066 9.68301 93.3864 8.85604 94.9099 8.85604C96.4335 8.85604 97.4628 10.0201 97.4628 11.7549V19.2628C97.4628 19.382 97.5102 19.4963 97.5944 19.5806C97.6787 19.6649 97.7931 19.7122 97.9122 19.7122H100.885C101.004 19.7122 101.119 19.6649 101.203 19.5806C101.287 19.4963 101.335 19.382 101.335 19.2628V11.5819C101.335 7.48525 99.1279 5.04031 95.4291 5.04031Z" fill="#171729"/>
<path d="M110.26 5.04102C108.175 5.04102 106.409 5.7354 105.013 7.09944C103.618 8.46349 102.883 10.2612 102.883 12.477C102.883 14.6927 103.597 16.5219 105.011 17.9084C105.701 18.5911 106.521 19.128 107.423 19.4874C108.325 19.8468 109.29 20.0213 110.26 20.0006C113.24 20.0006 115.721 18.614 116.899 16.2905C116.926 16.2356 116.942 16.1757 116.946 16.1144C116.95 16.0531 116.941 15.9916 116.919 15.9339C116.898 15.8763 116.866 15.8235 116.823 15.7789C116.781 15.7343 116.73 15.6989 116.674 15.6747L114.254 14.6073C114.151 14.5623 114.036 14.5569 113.93 14.5922C113.824 14.6275 113.735 14.701 113.681 14.7983C113.094 15.85 111.838 16.5039 110.406 16.5039C108.588 16.5039 107.233 15.5466 106.822 14.032H116.988C117.097 14.0332 117.203 13.9949 117.285 13.9242C117.368 13.8536 117.422 13.7553 117.438 13.6478C117.472 13.2615 117.483 12.8736 117.472 12.486C117.472 10.2747 116.786 8.46798 115.438 7.11967C114.09 5.77135 112.359 5.04102 110.26 5.04102ZM106.822 10.9601C107.227 9.47248 108.526 8.53765 110.26 8.53765C111.948 8.53765 113.182 9.45225 113.559 10.9601H106.822Z" fill="#171729"/>
<path d="M133.084 5.3272H130.138C130.019 5.3272 129.904 5.37455 129.82 5.45884C129.736 5.54313 129.688 5.65744 129.688 5.77664V6.4845C128.542 5.53309 127.095 5.02086 125.605 5.03956C124.648 5.02962 123.699 5.20938 122.812 5.56848C121.925 5.92758 121.117 6.45888 120.437 7.13169C119.025 8.51147 118.309 10.3205 118.309 12.5047C118.309 14.689 119.025 16.5272 120.439 17.9115C121.12 18.5833 121.927 19.1136 122.814 19.4719C123.702 19.8302 124.651 20.0094 125.607 19.9991C127.098 20.0015 128.542 19.4833 129.691 18.5339V19.262C129.691 19.3812 129.738 19.4955 129.822 19.5798C129.907 19.6641 130.021 19.7115 130.14 19.7115H133.086C133.205 19.7115 133.32 19.6641 133.404 19.5798C133.488 19.4955 133.536 19.3812 133.536 19.262V5.77888C133.536 5.71949 133.524 5.66061 133.502 5.60567C133.479 5.55075 133.446 5.50084 133.404 5.45884C133.362 5.41682 133.312 5.38356 133.257 5.36097C133.202 5.33839 133.143 5.3269 133.084 5.3272ZM129.664 12.4755C129.664 14.6755 128.14 16.2126 125.956 16.2126C125.47 16.2225 124.987 16.1345 124.535 15.9538C124.084 15.7732 123.674 15.5035 123.329 15.1609C122.981 14.8078 122.708 14.3878 122.527 13.9261C122.347 13.4645 122.261 12.971 122.277 12.4755C122.256 11.9895 122.339 11.5047 122.52 11.053C122.7 10.6013 122.974 10.1931 123.324 9.85529C123.671 9.51565 124.083 9.24947 124.535 9.07264C124.987 8.89578 125.47 8.81194 125.956 8.82607C126.915 8.81873 127.841 9.18084 128.54 9.83731C129.286 10.48 129.664 11.3654 129.664 12.4755Z" fill="#171729"/>
<path d="M139.473 0.21875H136.5C136.252 0.21875 136.051 0.41997 136.051 0.668188V19.2614C136.051 19.5097 136.252 19.7109 136.5 19.7109H139.473C139.722 19.7109 139.923 19.5097 139.923 19.2614V0.668188C139.923 0.41997 139.722 0.21875 139.473 0.21875Z" fill="#171729"/>
<path d="M149.96 5.32798H147.551V0.674048C147.551 0.55485 147.503 0.440533 147.419 0.356248C147.335 0.27196 147.22 0.224609 147.101 0.224609H144.126C144.007 0.224609 143.893 0.27196 143.808 0.356248C143.724 0.440533 143.677 0.55485 143.677 0.674048V5.32798H141.701C141.582 5.32798 141.468 5.37533 141.384 5.45962C141.299 5.54391 141.252 5.65823 141.252 5.77742V8.2336C141.252 8.35279 141.299 8.4671 141.384 8.5514C141.468 8.63569 141.582 8.68304 141.701 8.68304H143.677V19.2628C143.677 19.382 143.724 19.4963 143.808 19.5806C143.893 19.6649 144.007 19.7122 144.126 19.7122H147.101C147.22 19.7122 147.335 19.6649 147.419 19.5806C147.503 19.4963 147.551 19.382 147.551 19.2628V8.68304H149.96C150.079 8.68304 150.193 8.63569 150.278 8.5514C150.362 8.4671 150.409 8.35279 150.409 8.2336V5.77742C150.409 5.65823 150.362 5.54391 150.278 5.45962C150.193 5.37533 150.079 5.32798 149.96 5.32798Z" fill="#171729"/>
<path d="M159.167 5.04034C158.237 5.05142 157.322 5.27427 156.491 5.69202C156.072 5.88836 155.685 6.14753 155.345 6.46056V0.674048C155.345 0.55485 155.297 0.440533 155.213 0.356248C155.129 0.27196 155.014 0.224609 154.895 0.224609H151.922C151.803 0.224609 151.689 0.27196 151.604 0.356248C151.52 0.440533 151.473 0.55485 151.473 0.674048V19.2628C151.473 19.382 151.52 19.4963 151.604 19.5806C151.689 19.6649 151.803 19.7122 151.922 19.7122H154.895C155.014 19.7122 155.129 19.6649 155.213 19.5806C155.297 19.4963 155.345 19.382 155.345 19.2628V12.0156C155.345 9.68304 157.124 8.85607 158.648 8.85607C160.172 8.85607 161.201 10.0201 161.201 11.7549V19.2628C161.201 19.382 161.248 19.4963 161.332 19.5806C161.417 19.6649 161.531 19.7122 161.65 19.7122H164.625C164.745 19.7122 164.859 19.6649 164.943 19.5806C165.027 19.4963 165.075 19.382 165.075 19.2628V11.5819C165.075 7.48528 162.866 5.04034 159.167 5.04034Z" fill="#171729"/>
<path d="M13.2854 16.8295L10.9461 15.0093C10.8552 14.9386 10.7407 14.9055 10.6261 14.9168C10.5115 14.9281 10.4057 14.9829 10.3303 15.0699C9.99867 15.4565 9.58375 15.7629 9.1167 15.966C8.64964 16.1692 8.14261 16.2639 7.63371 16.243C6.63058 16.254 5.66288 15.8726 4.93708 15.1801C4.19775 14.4924 3.8382 13.607 3.8382 12.4834C3.8382 11.3598 4.2 10.5261 4.94382 9.86095C5.67031 9.17282 6.64014 8.80104 7.64045 8.82724C8.78427 8.82724 9.66292 9.20028 10.3371 9.97106C10.4132 10.0587 10.5203 10.1135 10.6359 10.124C10.7515 10.1345 10.8667 10.0998 10.9573 10.0272L13.2584 8.18005C13.3054 8.14241 13.3444 8.09569 13.373 8.0427C13.4016 7.98969 13.4192 7.93149 13.4249 7.87156C13.4305 7.8116 13.4241 7.75113 13.4059 7.69372C13.3877 7.6363 13.3582 7.58313 13.3191 7.53736C11.9101 5.88118 9.99775 5.04073 7.64045 5.04073C5.63575 4.9992 3.69297 5.73619 2.22022 7.09691C0.748315 8.47893 0 10.2879 0 12.4767C0 14.6654 0.757303 16.5216 2.24719 17.9194C3.70807 19.2846 5.64119 20.0305 7.64045 20.0003C10.0292 20.0003 11.9528 19.1486 13.3551 17.4722C13.3938 17.426 13.4228 17.3725 13.4405 17.3148C13.4581 17.2571 13.4639 17.1965 13.4576 17.1365C13.4513 17.0766 13.4331 17.0185 13.4038 16.9657C13.3747 16.913 13.3351 16.8667 13.2876 16.8295H13.2854Z" fill="#171729"/>
<path d="M28.4061 5.3272H25.4623C25.3432 5.3272 25.2288 5.37455 25.1446 5.45884C25.0603 5.54314 25.0129 5.65745 25.0129 5.77664V6.48451C23.8659 5.53293 22.4177 5.02073 20.9275 5.03956C19.9705 5.02988 19.0211 5.20977 18.134 5.56884C17.2469 5.92792 16.4397 6.45909 15.7589 7.1317C14.3477 8.51147 13.6309 10.3205 13.6309 12.5047C13.6309 14.689 14.3477 16.5272 15.7634 17.9115C16.4445 18.5835 17.2518 19.1139 18.1389 19.4723C19.026 19.8306 19.9753 20.0097 20.932 19.9991C22.4228 20.0011 23.8677 19.4829 25.0174 18.5339V19.262C25.0174 19.3812 25.0648 19.4955 25.1491 19.5798C25.2333 19.6641 25.3477 19.7115 25.4668 19.7115H28.4106C28.5297 19.7115 28.6441 19.6641 28.7284 19.5798C28.8127 19.4955 28.8601 19.3812 28.8601 19.262V5.77889C28.8603 5.71929 28.8488 5.66024 28.8261 5.60516C28.8034 5.55008 28.77 5.50006 28.7277 5.45804C28.6855 5.41599 28.6351 5.38278 28.5801 5.36033C28.5248 5.33786 28.4657 5.3266 28.4061 5.3272ZM24.9837 12.4755C24.9837 14.6755 23.4578 16.2126 21.2758 16.2126C20.7843 16.2247 20.2956 16.1358 19.8399 15.9515C19.3841 15.7673 18.971 15.4915 18.626 15.1412C18.281 14.791 18.0115 14.3737 17.8342 13.9152C17.6568 13.4567 17.5754 12.9667 17.5949 12.4755C17.5758 11.9889 17.66 11.5038 17.8421 11.0522C18.0241 10.6005 18.2998 10.1926 18.6511 9.85529C18.9984 9.51561 19.4107 9.24938 19.8632 9.07255C20.3157 8.89572 20.7992 8.8119 21.2848 8.82608C22.2449 8.81792 23.1713 9.1801 23.8713 9.83732C24.6084 10.48 24.9837 11.3654 24.9837 12.4755Z" fill="#171729"/>
<path d="M39.1622 5.04102C37.8015 5.04054 36.4898 5.54778 35.4835 6.46349V5.77809C35.4835 5.6589 35.4361 5.54459 35.3518 5.4603C35.2676 5.376 35.1532 5.32866 35.0341 5.32866H32.0588C31.9397 5.32866 31.8253 5.376 31.7411 5.4603C31.6568 5.54459 31.6094 5.6589 31.6094 5.77809V19.2612C31.6094 19.3804 31.6568 19.4947 31.7411 19.579C31.8253 19.6633 31.9397 19.7107 32.0588 19.7107H35.0341C35.1532 19.7107 35.2676 19.6633 35.3518 19.579C35.4361 19.4947 35.4835 19.3804 35.4835 19.2612V12.0163C35.4835 10.0073 36.5824 8.85675 38.497 8.85675C40.0094 8.85675 40.8768 9.91293 40.8768 11.7556V19.2635C40.8768 19.3827 40.9242 19.497 41.0085 19.5813C41.0927 19.6656 41.2071 19.7129 41.3262 19.7129H44.3015C44.4206 19.7129 44.535 19.6656 44.6193 19.5813C44.7035 19.497 44.7509 19.3827 44.7509 19.2635V11.4096C44.7509 7.36236 42.7127 5.04102 39.1622 5.04102Z" fill="#171729"/>
<path d="M61.0074 0.224609H58.0613C57.9422 0.224609 57.8278 0.27196 57.7435 0.356248C57.6593 0.440533 57.6119 0.55485 57.6119 0.674048V6.46056C56.6119 5.56169 55.1399 5.04034 53.4995 5.04034C52.5501 5.02411 51.6074 5.20146 50.7289 5.56155C49.8503 5.92162 49.0543 6.4569 48.3894 7.13472C47.0006 8.52573 46.3242 10.2808 46.3242 12.528C46.3242 14.7212 47.0276 16.537 48.4186 17.9212C49.0795 18.5952 49.871 19.1271 50.7447 19.4845C51.6184 19.842 52.5557 20.0173 53.4995 19.9999C55.1085 19.9999 56.6029 19.4538 57.6119 18.5482V19.2628C57.6119 19.382 57.6593 19.4963 57.7435 19.5806C57.8278 19.6649 57.9422 19.7122 58.0613 19.7122H61.0074C61.1265 19.7122 61.2408 19.6649 61.3251 19.5806C61.4094 19.4963 61.4568 19.382 61.4568 19.2628V0.674048C61.4568 0.55485 61.4094 0.440533 61.3251 0.356248C61.2408 0.27196 61.1265 0.224609 61.0074 0.224609ZM57.5557 12.4763C57.5557 14.6763 56.0411 16.2134 53.8748 16.2134C53.3997 16.2263 52.9269 16.1424 52.4853 15.9666C52.0435 15.7908 51.6424 15.5269 51.3062 15.1909C50.6186 14.501 50.2838 13.6179 50.2838 12.4763C50.2838 10.328 51.7602 8.82686 53.8793 8.82686C54.8402 8.81836 55.7674 9.18054 56.468 9.83809C57.1894 10.4651 57.5557 11.3505 57.5557 12.4763Z" fill="#171729"/>
<path d="M67.3952 5.328H64.4514C64.2031 5.328 64.002 5.52922 64.002 5.77744V19.2606C64.002 19.5088 64.2031 19.71 64.4514 19.71H67.3952C67.6435 19.71 67.8447 19.5088 67.8447 19.2606V5.77744C67.8447 5.52922 67.6435 5.328 67.3952 5.328Z" fill="#171729"/>
<path d="M84.1519 0.224609H81.2081C81.089 0.224609 80.9746 0.27196 80.8903 0.356248C80.8061 0.440533 80.7586 0.55485 80.7586 0.674048V6.46057C79.7586 5.56169 78.2867 5.04034 76.6463 5.04034C75.6968 5.0236 74.7539 5.2007 73.8753 5.56081C72.9966 5.92092 72.2007 6.45648 71.5362 7.13472C70.1452 8.52573 69.4688 10.2808 69.4688 12.528C69.4688 14.7212 70.1744 16.537 71.5654 17.9212C72.2261 18.5954 73.0177 19.1275 73.8912 19.4849C74.7649 19.8423 75.7025 20.0176 76.6463 19.9999C78.2553 19.9999 79.7474 19.4538 80.7586 18.5482V19.2628C80.7586 19.382 80.8061 19.4963 80.8903 19.5806C80.9746 19.6649 81.089 19.7123 81.2081 19.7123H84.1519C84.271 19.7123 84.3854 19.6649 84.4696 19.5806C84.5539 19.4963 84.6013 19.382 84.6013 19.2628V0.674048C84.6013 0.55485 84.5539 0.440533 84.4696 0.356248C84.3854 0.27196 84.271 0.224609 84.1519 0.224609ZM80.7002 12.4763C80.7002 14.6763 79.1878 16.2134 77.0216 16.2134C76.546 16.2263 76.073 16.1423 75.631 15.9665C75.189 15.7907 74.7874 15.5268 74.4508 15.1909C73.7631 14.501 73.4283 13.6179 73.4283 12.4763C73.4283 10.328 74.907 8.82686 77.0238 8.82686C77.984 8.81825 78.9105 9.18048 79.6103 9.83809C80.3362 10.4651 80.7002 11.3505 80.7002 12.4763Z" fill="#171729"/>
<path d="M64.8314 4.04569C65.2658 4.04569 65.618 3.69355 65.618 3.25917C65.618 2.82479 65.2658 2.47266 64.8314 2.47266C64.3971 2.47266 64.0449 2.82479 64.0449 3.25917C64.0449 3.69355 64.3971 4.04569 64.8314 4.04569Z" fill="#171729"/>
<path d="M67.0795 4.04569C67.5139 4.04569 67.866 3.69355 67.866 3.25917C67.866 2.82479 67.5139 2.47266 67.0795 2.47266C66.6451 2.47266 66.293 2.82479 66.293 3.25917C66.293 3.69355 66.6451 4.04569 67.0795 4.04569Z" fill="#171729"/>
<path d="M64.8314 1.79764C65.2658 1.79764 65.618 1.44551 65.618 1.01113C65.618 0.576744 65.2658 0.224609 64.8314 0.224609C64.3971 0.224609 64.0449 0.576744 64.0449 1.01113C64.0449 1.44551 64.3971 1.79764 64.8314 1.79764Z" fill="#171729"/>
<path d="M67.0795 1.79764C67.5139 1.79764 67.866 1.44551 67.866 1.01113C67.866 0.576744 67.5139 0.224609 67.0795 0.224609C66.6451 0.224609 66.293 0.576744 66.293 1.01113C66.293 1.44551 66.6451 1.79764 67.0795 1.79764Z" fill="#171729"/>
</g>
<defs>
<clipPath id="clip0_3521_6356">
<rect width="165.169" height="20" fill="white"/>
</clipPath>
</defs>
</svg>
