<svg width="140" height="11" viewBox="0 0 140 11" fill="none" xmlns="http://www.w3.org/2000/svg">
<g clip-path="url(#clip0_3833_10722)">
<g filter="url(#filter0_b_3833_10722)">
<rect y="-160.219" width="336.25" height="209.427" fill="white"/>
<mask id="mask0_3833_10722" style="mask-type:alpha" maskUnits="userSpaceOnUse" x="0" y="-161" width="337" height="211">
<rect y="-160.219" width="336.25" height="209.427" fill="#D9D9D9"/>
</mask>
<g mask="url(#mask0_3833_10722)">
<g filter="url(#filter1_f_3833_10722)">
<path d="M290.743 -118.192C263.538 -110.445 225.736 -123.242 210.235 -130.608C179.026 -141.42 139.643 -136.59 52.0255 -95.5055C-35.5925 -54.4213 -189.378 -56.8046 -150.749 -135.592C-112.121 -214.38 71.8498 -220.392 200.408 -206.396C328.967 -192.4 324.749 -127.876 290.743 -118.192Z" fill="#503FF0"/>
<path d="M-118.369 92.7148C-99.8082 80.6102 -54.315 85.4753 -33.8885 89.4209C3.87667 93.6651 36.0842 82.0185 82.3709 28.1843C128.658 -25.65 272.191 -51.5765 302.521 28.0012C332.852 107.579 168.557 146.752 38.5302 157.378C-91.4963 168.003 -141.57 107.846 -118.369 92.7148Z" fill="#503FF0"/>
<path d="M-64.9397 -17.5669C-53.8701 -21.738 -65.2566 -38.6562 -3.63796 -35.006C10.0219 -31.7248 9.86502 -24.9564 44.7296 -44.9966C79.5941 -65.0368 134.095 -60.3328 121.684 -26.6529C109.273 7.0271 85.4816 16.7913 30.703 15.7806C-24.0757 14.7698 -78.7766 -12.3531 -64.9397 -17.5669Z" fill="#9BD4F3"/>
<path d="M428.486 -51.6044C425.598 -40.3822 333.296 -3.40681 324.639 -8.9627C305.813 -17.423 284.381 -52.1738 206.688 -27.4846C128.995 -2.79533 59.8347 -47.8619 139.694 -66.1311C186.508 -76.8406 185.279 -81.3933 268.956 -62.1881C349.05 -43.8052 434.663 -75.6039 428.486 -51.6044Z" fill="#F8DAB6"/>
</g>
</g>
</g>
</g>
<defs>
<filter id="filter0_b_3833_10722" x="-3.60299" y="-163.822" width="343.456" height="216.633" filterUnits="userSpaceOnUse" color-interpolation-filters="sRGB">
<feFlood flood-opacity="0" result="BackgroundImageFix"/>
<feGaussianBlur in="BackgroundImageFix" stdDeviation="1.80149"/>
<feComposite in2="SourceAlpha" operator="in" result="effect1_backgroundBlur_3833_10722"/>
<feBlend mode="normal" in="SourceGraphic" in2="effect1_backgroundBlur_3833_10722" result="shape"/>
</filter>
<filter id="filter1_f_3833_10722" x="-236.858" y="-292.328" width="745.66" height="530.956" filterUnits="userSpaceOnUse" color-interpolation-filters="sRGB">
<feFlood flood-opacity="0" result="BackgroundImageFix"/>
<feBlend mode="normal" in="SourceGraphic" in2="BackgroundImageFix" result="shape"/>
<feGaussianBlur stdDeviation="40" result="effect1_foregroundBlur_3833_10722"/>
</filter>
<clipPath id="clip0_3833_10722">
<rect width="140" height="10" fill="white" transform="translate(0 0.20752)"/>
</clipPath>
</defs>
</svg>
