<svg width="256" height="256" viewBox="0 0 256 256" fill="none" xmlns="http://www.w3.org/2000/svg">
<rect width="256" height="256" fill="#171729"/>
<g clip-path="url(#clip0_4665_38842)">
<path d="M140.429 123.04C139.498 123.051 138.582 123.274 137.75 123.692C137.332 123.889 136.947 124.148 136.607 124.461V118.674C136.607 118.555 136.559 118.441 136.475 118.356C136.391 118.272 136.276 118.225 136.157 118.225H133.182C133.063 118.225 132.948 118.272 132.864 118.356C132.78 118.441 132.732 118.555 132.732 118.674V137.263C132.732 137.382 132.78 137.496 132.864 137.581C132.948 137.665 133.063 137.712 133.182 137.712H136.157C136.276 137.712 136.391 137.665 136.475 137.581C136.559 137.496 136.607 137.382 136.607 137.263V130.016C136.607 127.683 138.386 126.856 139.91 126.856C141.434 126.856 142.463 128.02 142.463 129.755V137.263C142.463 137.382 142.51 137.496 142.594 137.581C142.679 137.665 142.793 137.712 142.912 137.712H145.885C146.004 137.712 146.119 137.665 146.203 137.581C146.287 137.496 146.335 137.382 146.335 137.263V129.582C146.335 125.485 144.128 123.04 140.429 123.04Z" fill="white"/>
<path d="M155.26 123.041C153.175 123.041 151.409 123.735 150.013 125.099C148.618 126.463 147.883 128.261 147.883 130.477C147.883 132.693 148.597 134.522 150.011 135.908C150.701 136.591 151.521 137.128 152.423 137.487C153.325 137.847 154.29 138.021 155.26 138.001C158.24 138.001 160.721 136.614 161.899 134.29C161.926 134.236 161.942 134.176 161.946 134.114C161.95 134.053 161.941 133.992 161.919 133.934C161.898 133.876 161.866 133.823 161.823 133.779C161.781 133.734 161.73 133.699 161.674 133.675L159.254 132.607C159.151 132.562 159.036 132.557 158.93 132.592C158.824 132.628 158.735 132.701 158.681 132.798C158.094 133.85 156.838 134.504 155.406 134.504C153.588 134.504 152.233 133.547 151.822 132.032H161.988C162.097 132.033 162.203 131.995 162.285 131.924C162.368 131.854 162.422 131.755 162.438 131.648C162.472 131.261 162.483 130.874 162.472 130.486C162.472 128.275 161.786 126.468 160.438 125.12C159.09 123.771 157.359 123.041 155.26 123.041ZM151.822 128.96C152.227 127.472 153.526 126.538 155.26 126.538C156.948 126.538 158.182 127.452 158.559 128.96H151.822Z" fill="white"/>
<path d="M178.084 123.327H175.138C175.019 123.327 174.904 123.375 174.82 123.459C174.736 123.543 174.688 123.657 174.688 123.777V124.485C173.542 123.533 172.095 123.021 170.605 123.04C169.648 123.03 168.699 123.209 167.812 123.568C166.925 123.928 166.117 124.459 165.437 125.132C164.025 126.511 163.309 128.32 163.309 130.505C163.309 132.689 164.025 134.527 165.439 135.911C166.12 136.583 166.927 137.114 167.814 137.472C168.702 137.83 169.651 138.009 170.607 137.999C172.098 138.002 173.542 137.483 174.691 136.534V137.262C174.691 137.381 174.738 137.496 174.822 137.58C174.907 137.664 175.021 137.711 175.14 137.711H178.086C178.205 137.711 178.32 137.664 178.404 137.58C178.488 137.496 178.536 137.381 178.536 137.262V123.779C178.536 123.719 178.524 123.661 178.502 123.606C178.479 123.551 178.446 123.501 178.404 123.459C178.362 123.417 178.312 123.384 178.257 123.361C178.202 123.338 178.143 123.327 178.084 123.327ZM174.664 130.476C174.664 132.676 173.14 134.213 170.956 134.213C170.47 134.223 169.987 134.135 169.535 133.954C169.084 133.773 168.674 133.504 168.329 133.161C167.981 132.808 167.708 132.388 167.527 131.926C167.347 131.465 167.261 130.971 167.277 130.476C167.256 129.99 167.339 129.505 167.52 129.053C167.7 128.601 167.974 128.193 168.324 127.855C168.671 127.516 169.083 127.249 169.535 127.073C169.987 126.896 170.47 126.812 170.956 126.826C171.915 126.819 172.841 127.181 173.54 127.837C174.286 128.48 174.664 129.365 174.664 130.476Z" fill="white"/>
<path d="M184.473 118.219H181.5C181.252 118.219 181.051 118.42 181.051 118.668V137.261C181.051 137.51 181.252 137.711 181.5 137.711H184.473C184.722 137.711 184.923 137.51 184.923 137.261V118.668C184.923 118.42 184.722 118.219 184.473 118.219Z" fill="white"/>
<path d="M194.96 123.328H192.551V118.674C192.551 118.555 192.503 118.441 192.419 118.356C192.335 118.272 192.22 118.225 192.101 118.225H189.126C189.007 118.225 188.893 118.272 188.808 118.356C188.724 118.441 188.677 118.555 188.677 118.674V123.328H186.701C186.582 123.328 186.468 123.375 186.384 123.46C186.299 123.544 186.252 123.658 186.252 123.777V126.234C186.252 126.353 186.299 126.467 186.384 126.551C186.468 126.636 186.582 126.683 186.701 126.683H188.677V137.263C188.677 137.382 188.724 137.496 188.808 137.581C188.893 137.665 189.007 137.712 189.126 137.712H192.101C192.22 137.712 192.335 137.665 192.419 137.581C192.503 137.496 192.551 137.382 192.551 137.263V126.683H194.96C195.079 126.683 195.193 126.636 195.278 126.551C195.362 126.467 195.409 126.353 195.409 126.234V123.777C195.409 123.658 195.362 123.544 195.278 123.46C195.193 123.375 195.079 123.328 194.96 123.328Z" fill="white"/>
<path d="M204.167 123.04C203.237 123.051 202.322 123.274 201.491 123.692C201.072 123.888 200.685 124.148 200.345 124.461V118.674C200.345 118.555 200.297 118.441 200.213 118.356C200.129 118.272 200.014 118.225 199.895 118.225H196.922C196.803 118.225 196.689 118.272 196.604 118.356C196.52 118.441 196.473 118.555 196.473 118.674V137.263C196.473 137.382 196.52 137.496 196.604 137.581C196.689 137.665 196.803 137.712 196.922 137.712H199.895C200.014 137.712 200.129 137.665 200.213 137.581C200.297 137.496 200.345 137.382 200.345 137.263V130.016C200.345 127.683 202.124 126.856 203.648 126.856C205.172 126.856 206.201 128.02 206.201 129.755V137.263C206.201 137.382 206.248 137.496 206.332 137.581C206.417 137.665 206.531 137.712 206.65 137.712H209.625C209.745 137.712 209.859 137.665 209.943 137.581C210.027 137.496 210.075 137.382 210.075 137.263V129.582C210.075 125.485 207.866 123.04 204.167 123.04Z" fill="white"/>
<path d="M58.2854 134.829L55.9461 133.009C55.8552 132.939 55.7407 132.905 55.6261 132.917C55.5115 132.928 55.4057 132.983 55.3303 133.07C54.9987 133.457 54.5838 133.763 54.1167 133.966C53.6496 134.169 53.1426 134.264 52.6337 134.243C51.6306 134.254 50.6629 133.873 49.9371 133.18C49.1978 132.492 48.8382 131.607 48.8382 130.483C48.8382 129.36 49.2 128.526 49.9438 127.861C50.6703 127.173 51.6401 126.801 52.6404 126.827C53.7843 126.827 54.6629 127.2 55.3371 127.971C55.4132 128.059 55.5203 128.114 55.6359 128.124C55.7515 128.134 55.8667 128.1 55.9573 128.027L58.2584 126.18C58.3054 126.142 58.3444 126.096 58.373 126.043C58.4016 125.99 58.4192 125.931 58.4249 125.872C58.4305 125.812 58.4241 125.751 58.4059 125.694C58.3877 125.636 58.3582 125.583 58.3191 125.537C56.9101 123.881 54.9978 123.041 52.6404 123.041C50.6358 122.999 48.693 123.736 47.2202 125.097C45.7483 126.479 45 128.288 45 130.477C45 132.665 45.7573 134.522 47.2472 135.919C48.7081 137.285 50.6412 138.03 52.6404 138C55.0292 138 56.9528 137.149 58.3551 135.472C58.3938 135.426 58.4228 135.372 58.4405 135.315C58.4581 135.257 58.4639 135.197 58.4576 135.137C58.4513 135.077 58.4331 135.018 58.4038 134.966C58.3747 134.913 58.3351 134.867 58.2876 134.829H58.2854Z" fill="white"/>
<path d="M73.4061 123.327H70.4623C70.3432 123.327 70.2288 123.375 70.1446 123.459C70.0603 123.543 70.0129 123.657 70.0129 123.777V124.485C68.8659 123.533 67.4177 123.021 65.9275 123.04C64.9705 123.03 64.0211 123.21 63.134 123.569C62.2469 123.928 61.4397 124.459 60.7589 125.132C59.3477 126.511 58.6309 128.32 58.6309 130.505C58.6309 132.689 59.3477 134.527 60.7634 135.911C61.4445 136.583 62.2518 137.114 63.1389 137.472C64.026 137.831 64.9753 138.01 65.932 137.999C67.4228 138.001 68.8677 137.483 70.0174 136.534V137.262C70.0174 137.381 70.0648 137.496 70.1491 137.58C70.2333 137.664 70.3477 137.711 70.4668 137.711H73.4106C73.5297 137.711 73.6441 137.664 73.7284 137.58C73.8127 137.496 73.8601 137.381 73.8601 137.262V123.779C73.8603 123.719 73.8488 123.66 73.8261 123.605C73.8034 123.55 73.77 123.5 73.7277 123.458C73.6855 123.416 73.6351 123.383 73.5801 123.36C73.5248 123.338 73.4657 123.327 73.4061 123.327ZM69.9837 130.476C69.9837 132.676 68.4578 134.213 66.2758 134.213C65.7843 134.225 65.2956 134.136 64.8399 133.952C64.3841 133.767 63.971 133.491 63.626 133.141C63.281 132.791 63.0115 132.374 62.8342 131.915C62.6568 131.457 62.5754 130.967 62.5949 130.476C62.5758 129.989 62.66 129.504 62.8421 129.052C63.0241 128.601 63.2998 128.193 63.6511 127.855C63.9984 127.516 64.4107 127.249 64.8632 127.073C65.3157 126.896 65.7992 126.812 66.2848 126.826C67.2449 126.818 68.1713 127.18 68.8713 127.837C69.6084 128.48 69.9837 129.365 69.9837 130.476Z" fill="white"/>
<path d="M84.1622 123.041C82.8015 123.041 81.4898 123.548 80.4835 124.463V123.778C80.4835 123.659 80.4361 123.545 80.3518 123.46C80.2676 123.376 80.1532 123.329 80.0341 123.329H77.0588C76.9397 123.329 76.8253 123.376 76.7411 123.46C76.6568 123.545 76.6094 123.659 76.6094 123.778V137.261C76.6094 137.38 76.6568 137.495 76.7411 137.579C76.8253 137.663 76.9397 137.711 77.0588 137.711H80.0341C80.1532 137.711 80.2676 137.663 80.3518 137.579C80.4361 137.495 80.4835 137.38 80.4835 137.261V130.016C80.4835 128.007 81.5824 126.857 83.497 126.857C85.0094 126.857 85.8768 127.913 85.8768 129.756V137.263C85.8768 137.383 85.9242 137.497 86.0085 137.581C86.0927 137.666 86.2071 137.713 86.3262 137.713H89.3015C89.4206 137.713 89.535 137.666 89.6193 137.581C89.7035 137.497 89.7509 137.383 89.7509 137.263V129.41C89.7509 125.362 87.7127 123.041 84.1622 123.041Z" fill="white"/>
<path d="M106.007 118.225H103.061C102.942 118.225 102.828 118.272 102.744 118.356C102.659 118.441 102.612 118.555 102.612 118.674V124.461C101.612 123.562 100.14 123.04 98.4995 123.04C97.5501 123.024 96.6074 123.201 95.7289 123.562C94.8503 123.922 94.0543 124.457 93.3894 125.135C92.0006 126.526 91.3242 128.281 91.3242 130.528C91.3242 132.721 92.0276 134.537 93.4186 135.921C94.0795 136.595 94.871 137.127 95.7447 137.485C96.6184 137.842 97.5557 138.017 98.4995 138C100.108 138 101.603 137.454 102.612 136.548V137.263C102.612 137.382 102.659 137.496 102.744 137.581C102.828 137.665 102.942 137.712 103.061 137.712H106.007C106.126 137.712 106.241 137.665 106.325 137.581C106.409 137.496 106.457 137.382 106.457 137.263V118.674C106.457 118.555 106.409 118.441 106.325 118.356C106.241 118.272 106.126 118.225 106.007 118.225ZM102.556 130.476C102.556 132.676 101.041 134.213 98.8748 134.213C98.3997 134.226 97.9269 134.142 97.4853 133.967C97.0435 133.791 96.6424 133.527 96.3062 133.191C95.6186 132.501 95.2838 131.618 95.2838 130.476C95.2838 128.328 96.7602 126.827 98.8793 126.827C99.8402 126.818 100.767 127.181 101.468 127.838C102.189 128.465 102.556 129.35 102.556 130.476Z" fill="white"/>
<path d="M112.395 123.328H109.451C109.203 123.328 109.002 123.529 109.002 123.777V137.261C109.002 137.509 109.203 137.71 109.451 137.71H112.395C112.644 137.71 112.845 137.509 112.845 137.261V123.777C112.845 123.529 112.644 123.328 112.395 123.328Z" fill="white"/>
<path d="M129.152 118.225H126.208C126.089 118.225 125.975 118.272 125.89 118.356C125.806 118.441 125.759 118.555 125.759 118.674V124.461C124.759 123.562 123.287 123.04 121.646 123.04C120.697 123.024 119.754 123.201 118.875 123.561C117.997 123.921 117.201 124.456 116.536 125.135C115.145 126.526 114.469 128.281 114.469 130.528C114.469 132.721 115.174 134.537 116.565 135.921C117.226 136.595 118.018 137.127 118.891 137.485C119.765 137.842 120.702 138.018 121.646 138C123.255 138 124.747 137.454 125.759 136.548V137.263C125.759 137.382 125.806 137.496 125.89 137.581C125.975 137.665 126.089 137.712 126.208 137.712H129.152C129.271 137.712 129.385 137.665 129.47 137.581C129.554 137.496 129.601 137.382 129.601 137.263V118.674C129.601 118.555 129.554 118.441 129.47 118.356C129.385 118.272 129.271 118.225 129.152 118.225ZM125.7 130.476C125.7 132.676 124.188 134.213 122.022 134.213C121.546 134.226 121.073 134.142 120.631 133.966C120.189 133.791 119.787 133.527 119.451 133.191C118.763 132.501 118.428 131.618 118.428 130.476C118.428 128.328 119.907 126.827 122.024 126.827C122.984 126.818 123.911 127.18 124.61 127.838C125.336 128.465 125.7 129.35 125.7 130.476Z" fill="white"/>
<path d="M109.831 122.046C110.266 122.046 110.618 121.694 110.618 121.259C110.618 120.825 110.266 120.473 109.831 120.473C109.397 120.473 109.045 120.825 109.045 121.259C109.045 121.694 109.397 122.046 109.831 122.046Z" fill="white"/>
<path d="M112.079 122.046C112.514 122.046 112.866 121.694 112.866 121.259C112.866 120.825 112.514 120.473 112.079 120.473C111.645 120.473 111.293 120.825 111.293 121.259C111.293 121.694 111.645 122.046 112.079 122.046Z" fill="white"/>
<path d="M109.831 119.798C110.266 119.798 110.618 119.446 110.618 119.011C110.618 118.577 110.266 118.225 109.831 118.225C109.397 118.225 109.045 118.577 109.045 119.011C109.045 119.446 109.397 119.798 109.831 119.798Z" fill="white"/>
<path d="M112.079 119.798C112.514 119.798 112.866 119.446 112.866 119.011C112.866 118.577 112.514 118.225 112.079 118.225C111.645 118.225 111.293 118.577 111.293 119.011C111.293 119.446 111.645 119.798 112.079 119.798Z" fill="white"/>
</g>
<defs>
<clipPath id="clip0_4665_38842">
<rect width="165.169" height="20" fill="white" transform="translate(45 118)"/>
</clipPath>
</defs>
</svg>
