<svg width="439" height="57" viewBox="0 0 439 57" fill="none" xmlns="http://www.w3.org/2000/svg">
<path d="M27.4101 30.5952C26.8056 28.5958 25.8292 27.0381 24.4808 25.9222C23.1091 24.7133 21.4468 24.1088 19.494 24.1088C16.5414 24.1088 14.263 25.2015 12.6589 27.3868C11.1942 29.27 10.4619 32.0133 10.4619 35.6169C10.4619 39.1506 11.1942 41.8591 12.6589 43.7422C14.2863 45.9741 16.5646 47.09 19.494 47.09C21.6793 47.09 23.423 46.5321 24.7249 45.4161C25.3526 44.8349 25.8408 44.2188 26.1896 43.5679C26.5615 42.9169 26.8986 42.1265 27.2009 41.1965L37.2792 43.2889C36.7444 45.265 35.9191 47.09 34.8032 48.7639C33.6872 50.4378 32.3853 51.8328 30.8974 52.9487C29.1538 54.2506 27.445 55.1224 25.7711 55.5642C24.0972 56.0524 22.0048 56.2965 19.494 56.2965C16.1927 56.2965 13.3563 55.785 10.985 54.7621C8.61361 53.7159 6.55611 52.0769 4.81246 49.845C1.60415 45.8462 0 41.1035 0 35.6169C0 29.9674 1.60415 25.2363 4.81246 21.4236C6.6956 19.1917 8.82285 17.5527 11.1942 16.5065C13.5656 15.4371 16.3786 14.9023 19.6335 14.9023C21.8421 14.9023 23.6787 15.0883 25.1434 15.4603C26.6545 15.809 28.2354 16.4949 29.8861 17.5178C31.7692 18.6337 33.3501 20.0752 34.6288 21.8421C35.9075 23.6089 36.7909 25.6548 37.2792 27.9797L27.4101 30.5952Z" fill="#171729"/>
<path d="M67.0982 55.2154V50.4378C65.1453 52.6465 63.1576 54.1809 61.1349 55.0411C59.1356 55.878 56.6131 56.2965 53.5675 56.2965C49.592 56.2965 46.4418 55.2038 44.117 53.0184C41.7921 50.8331 40.6297 47.8805 40.6297 44.1607C40.6297 38.7438 42.9313 34.9891 47.5345 32.8968C49.4176 32.0366 51.696 31.3391 54.3696 30.8044C57.0664 30.2697 60.1934 29.7814 63.7504 29.3397L65.9125 29.0607C65.5871 27.5263 64.7966 26.329 63.5412 25.4688C62.2858 24.6086 60.5654 24.1785 58.38 24.1785C56.4736 24.1785 54.6835 24.504 53.0096 25.155C51.3589 25.8059 49.871 26.7243 48.5458 27.9099L42.8964 21.3538C45.0818 19.2615 47.488 17.6689 50.1151 16.5762C52.7422 15.4603 55.7296 14.9023 59.0774 14.9023C61.1931 14.9023 63.2506 15.3092 65.25 16.1229C67.2726 16.9133 69.0511 17.9363 70.5855 19.1917C74.0263 22.0745 75.7467 26.2825 75.7467 31.8157V55.2154H67.0982ZM65.9125 36.7677C64.7734 37.0001 63.3784 37.2791 61.7278 37.6046C60.1004 37.9301 58.2056 38.3253 56.0435 38.7903C54.3464 39.1855 52.9747 39.7551 51.9285 40.4991C50.8823 41.243 50.3592 42.2311 50.3592 43.4633C50.3592 44.8349 50.8939 45.9509 51.9634 46.8111C53.0328 47.6713 54.3696 48.1014 55.9738 48.1014C57.8104 48.1014 59.4727 47.6945 60.9606 46.8808C62.4717 46.0439 63.6923 44.9512 64.6222 43.6028C64.9012 43.1378 65.1221 42.6728 65.2848 42.2078C65.4708 41.7196 65.6103 41.2081 65.7033 40.6734C65.7963 40.1155 65.8544 39.5226 65.8777 38.8949C65.9009 38.2439 65.9125 37.5349 65.9125 36.7677Z" fill="#171729"/>
<path d="M120.553 36.2446V55.2154H110.544V36.6979C110.544 31.6995 109.673 28.2587 107.929 26.3755C106.557 24.8644 104.616 24.1088 102.105 24.1088C100.176 24.1088 98.5016 24.6203 97.0835 25.6432C95.6188 26.7359 94.654 28.4098 94.189 30.6649C93.8868 32.0133 93.7357 34.5009 93.7357 38.1277V55.2154H83.7969V15.9834H92.5151V20.0635L93.0033 19.4707C94.3518 17.8433 96.0954 16.6576 98.2343 15.9137C100.327 15.1929 102.512 14.8326 104.79 14.8326C109.533 14.8326 113.358 16.2624 116.264 19.122C117.566 20.4239 118.53 21.9815 119.158 23.7949C119.786 25.6083 120.169 27.4566 120.309 29.3397C120.402 30.2697 120.46 31.3042 120.483 32.4434C120.53 33.5826 120.553 34.8497 120.553 36.2446Z" fill="#171729"/>
<path d="M164.535 2.90605V55.2154H155.817V52.8092C152.795 55.1341 149.017 56.2965 144.483 56.2965C141.903 56.2965 139.392 55.7502 136.951 54.6575C134.533 53.588 132.545 52.0536 130.988 50.0542C127.919 46.3345 126.384 41.522 126.384 35.6169C126.384 32.827 126.768 30.1883 127.535 27.7007C128.302 25.2131 129.453 23.0277 130.988 21.1446C132.615 19.0987 134.649 17.5527 137.09 16.5065C139.555 15.4371 142.193 14.9023 145.006 14.9023C148.424 14.9023 151.621 15.7974 154.597 17.5876V2.90605H164.535ZM155.817 35.6169C155.817 33.7337 155.585 32.0017 155.12 30.4208C154.678 28.8399 153.992 27.5147 153.062 26.4453C151.504 24.6086 149.296 23.6903 146.436 23.6903C142.995 23.6903 140.508 24.8527 138.973 27.1776C137.555 29.2235 136.846 32.0366 136.846 35.6169C136.846 39.3134 137.509 42.1148 138.834 44.0212C139.601 45.2302 140.612 46.1136 141.868 46.6716C143.147 47.2295 144.553 47.5085 146.088 47.5085C149.04 47.5085 151.365 46.5902 153.062 44.7536C153.992 43.7074 154.678 42.3822 155.12 40.778C155.585 39.1739 155.817 37.4535 155.817 35.6169Z" fill="#171729"/>
<path d="M183.202 18.5073V55.3278H173.333V18.5073H183.202Z" fill="#171729"/>
<path d="M227.985 2.90605V55.2154H219.267V52.8092C216.244 55.1341 212.466 56.2965 207.933 56.2965C205.352 56.2965 202.842 55.7502 200.4 54.6575C197.983 53.588 195.995 52.0536 194.437 50.0542C191.368 46.3345 189.834 41.522 189.834 35.6169C189.834 32.827 190.218 30.1883 190.985 27.7007C191.752 25.2131 192.903 23.0277 194.437 21.1446C196.065 19.0987 198.099 17.5527 200.54 16.5065C203.004 15.4371 205.643 14.9023 208.456 14.9023C211.874 14.9023 215.07 15.7974 218.046 17.5876V2.90605H227.985ZM219.267 35.6169C219.267 33.7337 219.034 32.0017 218.569 30.4208C218.128 28.8399 217.442 27.5147 216.512 26.4453C214.954 24.6086 212.745 23.6903 209.886 23.6903C206.445 23.6903 203.958 24.8527 202.423 27.1776C201.005 29.2235 200.296 32.0366 200.296 35.6169C200.296 39.3134 200.958 42.1148 202.284 44.0212C203.051 45.2302 204.062 46.1136 205.318 46.6716C206.596 47.2295 208.003 47.5085 209.537 47.5085C212.49 47.5085 214.815 46.5902 216.512 44.7536C217.442 43.7074 218.128 42.3822 218.569 40.778C219.034 39.1739 219.267 37.4535 219.267 35.6169Z" fill="#171729"/>
<path d="M270.435 36.1748V55.2154H265.064V36.3143C265.064 34.5707 264.994 32.9898 264.855 31.5716C264.715 30.1302 264.471 28.8283 264.123 27.6658C263.774 26.5034 263.309 25.4805 262.728 24.597C262.146 23.6903 261.402 22.8999 260.496 22.2257C258.496 20.8307 256.195 20.1333 253.591 20.1333C250.499 20.1333 248.035 20.9819 246.198 22.679C244.268 24.3297 243.048 26.5731 242.536 29.4095C242.257 30.7811 242.118 32.6527 242.118 35.024V55.2154H236.747V2.90605H241.525V21.4933C242.036 20.7029 242.664 19.9357 243.408 19.1917C244.687 17.8665 246.186 16.8785 247.907 16.2275C249.627 15.5766 251.406 15.2046 253.242 15.1116C253.405 15.0883 253.614 15.0767 253.87 15.0767C254.149 15.0535 254.474 15.0418 254.846 15.0418C258.566 15.0418 261.74 16.088 264.367 18.1804C266.854 20.0403 268.493 22.4581 269.284 25.434C270.121 28.433 270.504 32.0133 270.435 36.1748Z" fill="#171729"/>
<path d="M284.918 46.6367C286.034 48.1014 287.464 49.2289 289.208 50.0194C290.975 50.8098 292.869 51.205 294.892 51.205C297.752 51.205 300.239 50.5308 302.355 49.1824C304.401 47.7875 306.005 45.9509 307.167 43.6725L312.154 45.5556C310.62 49.0662 308.248 51.7746 305.04 53.681C302.064 55.4247 298.728 56.2965 295.031 56.2965C292.195 56.2965 289.487 55.7502 286.906 54.6575C284.395 53.588 282.326 52.0071 280.699 49.9147C277.746 46.195 276.27 41.4755 276.27 35.7563C276.27 29.7814 277.746 24.9341 280.699 21.2143C282.396 19.0987 284.465 17.5178 286.906 16.4716C289.347 15.4254 292.009 14.9023 294.892 14.9023C300.751 14.9023 305.354 16.9831 308.702 21.1446C311.654 24.8644 313.049 30.1883 312.886 37.1164H282.024C282.163 41.0687 283.128 44.2421 284.918 46.6367ZM284.988 24.2483C283.407 26.3174 282.442 29.084 282.094 32.548H307.307C307.214 30.8044 306.958 29.2584 306.539 27.9099C306.121 26.5383 305.482 25.2945 304.621 24.1785C303.552 22.7836 302.145 21.7026 300.402 20.9354C298.681 20.1449 296.845 19.7497 294.892 19.7497C292.869 19.7497 290.986 20.1333 289.243 20.9005C287.522 21.6444 286.104 22.7604 284.988 24.2483Z" fill="#171729"/>
<path d="M345.387 55.2154V48.9034C343.69 51.5073 341.563 53.3904 339.006 54.5529C336.448 55.7153 333.414 56.2965 329.904 56.2965C326.138 56.2965 323.045 55.2271 320.628 53.0882C318.233 50.9261 317.036 48.0549 317.036 44.4746C317.036 41.9405 317.582 39.8016 318.675 38.058C319.767 36.3143 321.523 34.838 323.941 33.6291C325.661 32.7457 327.637 32.0831 329.869 31.6413C332.124 31.1996 335.332 30.6765 339.494 30.0721L344.725 29.27C344.702 27.7356 344.446 26.3988 343.958 25.2596C343.469 24.0972 342.784 23.1323 341.9 22.3651C341.017 21.5979 339.947 21.0283 338.692 20.6564C337.46 20.2611 336.076 20.0635 334.542 20.0635C332.171 20.0635 330.078 20.4239 328.265 21.1446C326.405 21.8885 324.673 23.2486 323.069 25.2247L319.581 21.5631C321.604 19.2382 323.894 17.5527 326.451 16.5065C329.032 15.4371 331.95 14.9023 335.204 14.9023C337.157 14.9023 339.017 15.2278 340.784 15.8788C342.574 16.5065 344.132 17.4132 345.457 18.5989C348.596 21.2957 350.165 25.434 350.165 31.0136V55.2154H345.387ZM344.864 33.7686C341.214 34.3266 338.262 34.8032 336.007 35.1984C333.751 35.5704 332.182 35.8726 331.299 36.1051C328.695 36.6165 326.556 37.5697 324.882 38.9647C323.255 40.3131 322.441 41.9753 322.441 43.9515C322.441 46.2298 323.208 48.0665 324.743 49.4614C326.324 50.8331 328.335 51.5189 330.776 51.5189C333.658 51.5189 336.158 50.9493 338.273 49.8101C340.412 48.6709 342.074 47.0087 343.26 44.8233C343.981 43.4284 344.423 41.987 344.585 40.4991C344.678 39.7319 344.748 38.7903 344.795 37.6744C344.841 36.5584 344.864 35.2565 344.864 33.7686Z" fill="#171729"/>
<path d="M370.329 55.8083C369.12 55.8083 368.039 55.7269 367.085 55.5642C365.272 55.3317 363.749 54.8202 362.517 54.0298C361.285 53.2393 360.262 52.1117 359.448 50.6471C358.82 49.4149 358.437 48.1827 358.297 46.9505C358.251 46.2996 358.204 45.4859 358.158 44.5094C358.135 43.5098 358.123 42.3357 358.123 40.9873V1.825H363.528V43.4633C363.528 44.5094 363.575 45.3696 363.668 46.0439C363.761 46.6948 363.982 47.3109 364.33 47.8921C364.702 48.7523 365.307 49.4382 366.144 49.9496C367.004 50.4611 367.969 50.7633 369.038 50.8563C369.201 50.8796 369.387 50.8912 369.596 50.8912C369.805 50.8912 370.05 50.9028 370.329 50.9261V55.8083Z" fill="#171729"/>
<path d="M386.102 40.8129V43.4633C386.102 44.5094 386.149 45.3696 386.242 46.0439C386.335 46.6948 386.555 47.3109 386.904 47.8921C387.276 48.7523 387.881 49.4382 388.718 49.9496C389.578 50.4611 390.542 50.7633 391.612 50.8563C391.844 50.8796 392.123 50.9028 392.449 50.9261C392.774 50.9261 393.17 50.9261 393.635 50.9261C394.355 50.9261 395.076 50.9028 395.797 50.8563C396.541 50.7866 397.296 50.6936 398.063 50.5773V55.2154C396.366 55.6107 394.646 55.8083 392.902 55.8083C391.693 55.8083 390.612 55.7269 389.659 55.5642C387.846 55.3317 386.323 54.8202 385.091 54.0298C383.859 53.2393 382.836 52.1117 382.022 50.6471C381.394 49.4149 381.011 48.1827 380.871 46.9505C380.825 46.2996 380.778 45.4859 380.732 44.5094C380.708 43.5098 380.697 42.3357 380.697 40.9873V20.5518H372.362V15.9834H380.697V5.10305H386.102V15.9834H398.063V20.5518H386.102V40.8129Z" fill="#171729"/>
<path d="M438.165 36.1748V55.2154H432.795V36.3143C432.795 34.5707 432.725 32.9898 432.585 31.5716C432.446 30.1302 432.202 28.8283 431.853 27.6658C431.504 26.5034 431.039 25.4805 430.458 24.597C429.877 23.6903 429.133 22.8999 428.226 22.2257C426.227 20.8307 423.925 20.1333 421.322 20.1333C418.229 20.1333 415.765 20.9819 413.928 22.679C411.999 24.3297 410.778 26.5731 410.267 29.4095C409.988 30.7811 409.848 32.6527 409.848 35.024V55.2154H404.478V2.90605H409.255V21.4933C409.767 20.7029 410.395 19.9357 411.139 19.1917C412.417 17.8665 413.917 16.8785 415.637 16.2275C417.358 15.5766 419.136 15.2046 420.973 15.1116C421.136 15.0883 421.345 15.0767 421.6 15.0767C421.879 15.0535 422.205 15.0418 422.577 15.0418C426.297 15.0418 429.47 16.088 432.097 18.1804C434.585 20.0403 436.224 22.4581 437.014 25.434C437.851 28.433 438.235 32.0133 438.165 36.1748Z" fill="#171729"/>
<circle cx="178.348" cy="8.62137" r="5.71528" fill="#171729"/>
</svg>
